<?xml version="1.0" standalone="no"?>
<!DOCTYPE svg PUBLIC "-//W3C//DTD SVG 1.1//EN" "http://www.w3.org/Graphics/SVG/1.1/DTD/svg11.dtd" >
<svg xmlns="http://www.w3.org/2000/svg" xmlns:xlink="http://www.w3.org/1999/xlink" version="1.1">
<metadata>
Created by FontForge 20150318 at Mon Aug 31 07:30:44 2015
 By uniteet7
Copyright (c) 2014 by Ryoichi Tsunekawa. All rights reserved.
</metadata>
<defs>
<font id="GraphieBook" horiz-adv-x="410" >
  <font-face 
    font-family="GraphieBook"
    font-weight="350"
    font-stretch="normal"
    units-per-em="1000"
    panose-1="2 11 5 3 2 2 4 2 2 4"
    ascent="750"
    descent="-250"
    x-height="467"
    cap-height="664"
    bbox="-169 -210 1065 919"
    underline-thickness="44"
    underline-position="-58"
    unicode-range="U+0020-FB03"
  />
<missing-glyph horiz-adv-x="620" 
d="M566 0h-512v664h512v-664zM493 623h-366l183 -254zM283 332l-184 256v-512zM337 332l184 -256v512zM493 41l-183 254l-183 -254h366z" />
    <glyph glyph-name="ff" unicode="ff" horiz-adv-x="625" 
d="M539 710q56 0 89 -18v-64h-3q-30 22 -78 22q-90 0 -90 -101v-82h157v-58h-157v-409h-67v409h-222v-409h-67v409h-90v58h90v74q0 76 38.5 117.5t110.5 41.5q56 0 89 -18v-64h-3q-30 22 -78 22q-90 0 -90 -101v-72h222v84q0 76 38.5 117.5t110.5 41.5z" />
    <glyph glyph-name="fi" unicode="fi" horiz-adv-x="530" 
d="M394 0v409h-226v-409h-67v409h-90v58h90v84q0 76 38 117.5t106 41.5q51 0 84 -18v-64h-3q-30 22 -73 22q-40 0 -62.5 -26t-22.5 -75v-82h293v-467h-67zM428 661q20 0 33 -13.5t13 -32.5q0 -20 -13 -33t-33 -13t-33 13t-13 33t13 33t33 13z" />
    <glyph glyph-name="ffi" unicode="ffi" horiz-adv-x="819" 
d="M750 0h-67v409h-226v-409h-67v409h-222v-409h-67v409h-90v58h90v74q0 76 38.5 117.5t110.5 41.5q56 0 89 -18v-64h-3q-30 22 -78 22q-90 0 -90 -101v-72h222v84q0 76 38 117.5t106 41.5q51 0 84 -18v-64h-3q-30 22 -73 22q-40 0 -62.5 -26t-22.5 -75v-82h293v-467z
M717 661q19 0 32.5 -13.5t13.5 -32.5q0 -20 -13 -33t-33 -13t-33 13t-13 33t13 33t33 13z" />
    <glyph glyph-name="f_j" unicode="fj" horiz-adv-x="530" 
d="M461 467v-542q0 -125 -107 -125q-31 0 -55 10v62h3q17 -12 42 -12q28 0 39 15.5t11 53.5v480h-226v-409h-67v409h-90v58h90v84q0 76 38 117.5t106 41.5q51 0 84 -18v-64h-3q-30 22 -73 22q-40 0 -62.5 -26t-22.5 -75v-82h293zM428 661q20 0 33 -13.5t13 -32.5
q0 -20 -13 -33t-33 -13t-33 13t-13 33t13 33t33 13z" />
    <glyph glyph-name="f_f_j" unicode="ffj" horiz-adv-x="819" 
d="M750 467v-542q0 -125 -107 -125q-31 0 -55 10v62h3q17 -12 42 -12q28 0 39 15.5t11 53.5v480h-226v-409h-67v409h-222v-409h-67v409h-90v58h90v74q0 76 38.5 117.5t110.5 41.5q56 0 89 -18v-64h-3q-30 22 -78 22q-90 0 -90 -101v-72h222v84q0 76 38 117.5t106 41.5
q51 0 84 -18v-64h-3q-30 22 -73 22q-40 0 -62.5 -26t-22.5 -75v-82h293zM717 661q19 0 32.5 -13.5t13.5 -32.5q0 -20 -13 -33t-33 -13t-33 13t-13 33t13 33t33 13z" />
    <glyph glyph-name=".notdef" horiz-adv-x="620" 
d="M566 0h-512v664h512v-664zM493 623h-366l183 -254zM283 332l-184 256v-512zM337 332l184 -256v512zM493 41l-183 254l-183 -254h366z" />
    <glyph glyph-name=".null" horiz-adv-x="0" 
 />
    <glyph glyph-name="nonmarkingreturn" horiz-adv-x="333" 
 />
    <glyph glyph-name="space" unicode=" " horiz-adv-x="220" 
 />
    <glyph glyph-name="exclam" unicode="!" horiz-adv-x="242" 
d="M91 175l-9 489h78l-9 -489h-60zM121 86q20 0 34 -14t14 -34t-14 -34t-34 -14t-34 14t-14 34t14 34t34 14z" />
    <glyph glyph-name="quotedbl" unicode="&#x22;" horiz-adv-x="385" 
d="M84 374l-6 290h64l-6 -290h-52zM249 374l-6 290h64l-6 -290h-52z" />
    <glyph glyph-name="numbersign" unicode="#" horiz-adv-x="650" 
d="M449 243h138l-6 -49h-139l-27 -194h-53l27 194h-169l-27 -194h-53l27 194h-138l7 49h138l27 188h-139l7 49h139l26 184h53l-26 -184h169l26 184h53l-26 -184h138l-7 -49h-138zM254 431l-27 -188h169l27 188h-169z" />
    <glyph glyph-name="dollar" unicode="$" horiz-adv-x="650" 
d="M560 202q0 -77 -54.5 -122.5t-152.5 -51.5v-88h-59v88q-136 6 -209 65v75h4q71 -69 205 -77v213q-108 9 -155 46t-47 110q0 76 53.5 122.5t148.5 53.5v78h59v-78q116 -6 176 -54v-75h-4q-52 58 -172 66v-205q110 -9 158 -48.5t49 -117.5zM160 463q0 -41 30.5 -61.5
t103.5 -27.5v199q-62 -5 -98 -34.5t-36 -75.5zM353 298v-207q65 5 102 34.5t37 75.5q0 44 -32.5 67t-106.5 30z" />
    <glyph glyph-name="percent" unicode="%" horiz-adv-x="754" 
d="M185 674q70 0 109.5 -44.5t39.5 -120.5t-39.5 -120t-109.5 -44t-109.5 44t-39.5 120t39.5 120.5t109.5 44.5zM133 0l422 664h65l-422 -664h-65zM185 621q-42 0 -66 -29.5t-24 -82.5q0 -52 24 -81.5t66 -29.5t66 29.5t24 81.5q0 53 -24 82.5t-66 29.5zM569 319
q70 0 109.5 -44.5t39.5 -120.5t-39.5 -120t-109.5 -44t-109.5 44t-39.5 120t39.5 120.5t109.5 44.5zM569 266q-42 0 -66 -29.5t-24 -82.5q0 -52 24 -81.5t66 -29.5t66 29.5t24 81.5q0 53 -24 82.5t-66 29.5z" />
    <glyph glyph-name="ampersand" unicode="&#x26;" horiz-adv-x="634" 
d="M523 0l-57 59q-83 -69 -205 -69q-100 0 -157 47.5t-57 130.5q0 62 31.5 107t101.5 82l-8 8q-40 42 -57.5 77t-17.5 76q0 71 48.5 113.5t129.5 42.5q82 0 130 -39.5t48 -105.5q0 -61 -38.5 -104.5t-131.5 -84.5l183 -189q44 67 44 166q0 14 -2 40h65q2 -26 2 -38
q0 -126 -65 -214l102 -105h-89zM228 397l12 -12q85 36 117 66.5t32 72.5q0 41 -30 65.5t-80 24.5q-53 0 -84.5 -26.5t-31.5 -69.5q0 -32 14 -58t51 -63zM265 50q95 0 159 53l-201 209q-58 -30 -83.5 -62t-25.5 -74q0 -61 39 -93.5t112 -32.5z" />
    <glyph glyph-name="quotesingle" unicode="'" horiz-adv-x="220" 
d="M84 374l-6 290h64l-6 -290h-52z" />
    <glyph glyph-name="parenleft" unicode="(" horiz-adv-x="360" 
d="M236 664h71q-149 -167 -149 -383t149 -383h-71q-148 165 -148 383t148 383z" />
    <glyph glyph-name="parenright" unicode=")" horiz-adv-x="360" 
d="M124 -102h-71q149 167 149 383t-149 383h71q148 -165 148 -383t-148 -383z" />
    <glyph glyph-name="asterisk" unicode="*" horiz-adv-x="453" 
d="M365 368l-50 -36l-88 145l-89 -145l-50 36l111 130l-166 40l20 57l156 -64l-14 169h62l-13 -169l156 64l19 -57l-165 -40z" />
    <glyph glyph-name="plus" unicode="+" horiz-adv-x="650" 
d="M355 270v-252h-60v252h-252v60h252v252h60v-252h252v-60h-252z" />
    <glyph glyph-name="comma" unicode="," horiz-adv-x="242" 
d="M25 -134l72 210h69l-86 -210h-55z" />
    <glyph glyph-name="hyphen" unicode="-" horiz-adv-x="370" 
d="M47 239v67h276v-67h-276z" />
    <glyph glyph-name="period" unicode="." horiz-adv-x="242" 
d="M121 86q20 0 34 -14t14 -34t-14 -34t-34 -14t-34 14t-14 34t14 34t34 14z" />
    <glyph glyph-name="slash" unicode="/" horiz-adv-x="407" 
d="M34 -80l277 774h62l-278 -774h-61z" />
    <glyph glyph-name="zero" unicode="0" horiz-adv-x="650" 
d="M325 674q130 0 201 -89.5t71 -252.5t-71 -252.5t-201 -89.5t-201 89.5t-71 252.5t71 252.5t201 89.5zM325 611q-96 0 -149 -73t-53 -206t53 -206t149 -73t149 73t53 206t-53 206t-149 73z" />
    <glyph glyph-name="one" unicode="1" horiz-adv-x="650" 
d="M455 0h-69v584l-237 -126v73l251 133h55v-664z" />
    <glyph glyph-name="two" unicode="2" horiz-adv-x="650" 
d="M558 63v-63h-463v67l131 103q152 118 207 182.5t55 124.5q0 65 -44 99.5t-128 34.5q-57 0 -112 -22t-95 -62h-4v77q90 70 211 70q116 0 179 -50t63 -144q0 -79 -60.5 -154t-223.5 -198l-84 -63v-2h368z" />
    <glyph glyph-name="three" unicode="3" horiz-adv-x="650" 
d="M461 343v-2q119 -41 119 -163q0 -88 -69 -138t-190 -50q-72 0 -133.5 20t-95.5 54v78h4q33 -42 93 -65.5t131 -23.5q90 0 139.5 34.5t49.5 98.5q0 121 -179 121h-107v63h93q179 0 179 117q0 60 -47 92t-132 32q-59 0 -114 -22t-92 -62h-4v78q82 69 216 69
q113 0 178 -47.5t65 -131.5q0 -110 -104 -152z" />
    <glyph glyph-name="four" unicode="4" horiz-adv-x="650" 
d="M521 138v-138h-69v138h-402v59l397 467h74v-463h99v-63h-99zM452 576l-317 -375h317v375z" />
    <glyph glyph-name="five" unicode="5" horiz-adv-x="650" 
d="M329 426q117 0 183.5 -57t66.5 -157q0 -104 -70 -163t-193 -59q-74 0 -136 19t-98 52v75h4q74 -83 227 -83q93 0 144 41t51 117q0 74 -52 113t-152 39q-107 0 -195 -47h-4v348h430v-63h-366v-200q65 25 160 25z" />
    <glyph glyph-name="six" unicode="6" horiz-adv-x="650" 
d="M364 429q104 0 167 -59.5t63 -155.5q0 -101 -67.5 -162.5t-177.5 -61.5q-135 0 -210 85t-75 239q0 170 80 265t222 95q117 0 176 -48v-74h-4q-57 59 -167 59q-111 0 -172.5 -71.5t-64.5 -204.5h2q81 94 228 94zM347 53q79 0 127.5 44t48.5 116q0 70 -46 111.5t-123 41.5
q-68 0 -125.5 -30.5t-89.5 -84.5q9 -93 64 -145.5t144 -52.5z" />
    <glyph glyph-name="seven" unicode="7" horiz-adv-x="650" 
d="M607 597l-396 -597h-82l403 601h-459v63h534v-67z" />
    <glyph glyph-name="eight" unicode="8" horiz-adv-x="650" 
d="M470 345v-2q128 -40 128 -167q0 -88 -72.5 -137t-200.5 -49t-200.5 49t-72.5 137q0 122 128 160v2q-108 40 -108 157q0 84 67 131.5t186 47.5t186 -47.5t67 -131.5q0 -112 -108 -150zM142 490q0 -120 183 -120t183 120q0 58 -47.5 89.5t-135.5 31.5t-135.5 -31.5
t-47.5 -89.5zM325 53q96 0 149 33.5t53 94.5q0 126 -202 126t-202 -126q0 -61 53 -94.5t149 -33.5z" />
    <glyph glyph-name="nine" unicode="9" horiz-adv-x="650" 
d="M301 674q135 0 210 -85t75 -239q0 -170 -80 -265t-222 -95q-117 0 -176 48v74h4q57 -59 167 -59q111 0 172.5 71.5t64.5 204.5h-2q-81 -94 -228 -94q-104 0 -167 59.5t-63 155.5q0 101 67.5 162.5t177.5 61.5zM296 298q68 0 125.5 30.5t89.5 84.5q-9 93 -64 145.5
t-144 52.5q-79 0 -127.5 -44t-48.5 -116q0 -70 46 -111.5t123 -41.5z" />
    <glyph glyph-name="colon" unicode=":" horiz-adv-x="242" 
d="M121 86q20 0 34 -14t14 -34t-14 -34t-34 -14t-34 14t-14 34t14 34t34 14zM121 454q20 0 34 -14t14 -34t-14 -34t-34 -14t-34 14t-14 34t14 34t34 14z" />
    <glyph glyph-name="semicolon" unicode=";" horiz-adv-x="242" 
d="M25 -134l72 210h69l-86 -210h-55zM121 454q20 0 34 -14t14 -34t-14 -34t-34 -14t-34 14t-14 34t14 34t34 14z" />
    <glyph glyph-name="less" unicode="&#x3c;" horiz-adv-x="650" 
d="M158 299l421 -185v-66l-507 227v50l507 227v-65l-421 -186v-2z" />
    <glyph glyph-name="equal" unicode="=" horiz-adv-x="650" 
d="M62 398v60h526v-60h-526zM62 142v60h526v-60h-526z" />
    <glyph glyph-name="greater" unicode="&#x3e;" horiz-adv-x="650" 
d="M492 301l-421 185v66l507 -227v-50l-507 -227v65l421 186v2z" />
    <glyph glyph-name="question" unicode="?" horiz-adv-x="482" 
d="M228 674q106 0 166 -49t60 -135q0 -78 -51 -129t-166 -86v-100h-64v143q113 29 162 68t49 101q0 59 -41 91.5t-115 32.5q-123 0 -201 -84h-4v77q83 70 205 70zM205 86q20 0 34 -14t14 -34t-14 -34t-34 -14t-34 14t-14 34t14 34t34 14z" />
    <glyph glyph-name="at" unicode="@" horiz-adv-x="787" 
d="M573 451v-248q0 -30 8.5 -42.5t28.5 -12.5q41 0 65.5 41.5t24.5 117.5q0 128 -80 207.5t-213 79.5q-131 0 -216.5 -90.5t-85.5 -229.5q0 -133 90.5 -218.5t230.5 -85.5q144 0 223 73h3v-49q-86 -64 -228 -64q-161 0 -265 97t-104 248q0 156 100 257.5t254 101.5
q151 0 244 -91t93 -237q0 -93 -39 -147.5t-101 -54.5q-66 0 -75 66h-2q-43 -66 -140 -66q-74 0 -122.5 50t-48.5 126q0 77 48.5 127.5t122.5 50.5q95 0 138 -64h2l1 57h43zM397 148q57 0 93 37t36 95q0 59 -36 96t-93 37q-58 0 -94 -37t-36 -96t36 -95.5t94 -36.5z" />
    <glyph glyph-name="A" unicode="A" horiz-adv-x="724" 
d="M624 0l-68 149h-391l-68 -149h-78l308 664h70l308 -664h-81zM362 578h-2l-165 -362h331z" />
    <glyph glyph-name="B" unicode="B" horiz-adv-x="634" 
d="M478 341v-2q121 -31 121 -158q0 -89 -57.5 -135t-168.5 -46h-292v664h267q227 0 227 -176q0 -111 -97 -147zM155 370h188q159 0 159 114q0 113 -155 113h-192v-227zM155 67h216q153 0 153 117q0 119 -157 119h-212v-236z" />
    <glyph glyph-name="C" unicode="C" horiz-adv-x="658" 
d="M388 674q140 0 219 -69v-84h-4q-74 86 -212 86q-125 0 -201.5 -76t-76.5 -199t76.5 -199t201.5 -76q138 0 212 86h4v-84q-83 -69 -219 -69q-155 0 -252.5 95.5t-97.5 246.5t97.5 246.5t252.5 95.5z" />
    <glyph glyph-name="D" unicode="D" horiz-adv-x="726" 
d="M81 664h255q165 0 258.5 -88t93.5 -243q0 -156 -93.5 -244.5t-258.5 -88.5h-255v664zM155 67h178q132 0 206 70.5t74 195.5q0 124 -74 194t-206 70h-178v-530z" />
    <glyph glyph-name="E" unicode="E" horiz-adv-x="612" 
d="M490 369v-67h-335v-235h407v-67h-481v664h481v-67h-407v-228h335z" />
    <glyph glyph-name="F" unicode="F" horiz-adv-x="592" 
d="M491 362v-67h-336v-295h-74v664h482v-67h-408v-235h336z" />
    <glyph glyph-name="G" unicode="G" horiz-adv-x="706" 
d="M398 607q-129 0 -207 -75t-78 -200t78 -200t207 -75q100 0 171 37v172h-211v67h282v-274q-92 -69 -245 -69q-161 0 -259 93.5t-98 248.5t98 248.5t259 93.5q153 0 245 -69v-84h-4q-90 86 -238 86z" />
    <glyph glyph-name="H" unicode="H" horiz-adv-x="736" 
d="M655 0h-74v303h-426v-303h-74v664h74v-294h426v294h74v-664z" />
    <glyph glyph-name="I" unicode="I" horiz-adv-x="236" 
d="M81 0v664h74v-664h-74z" />
    <glyph glyph-name="J" unicode="J" horiz-adv-x="506" 
d="M441 664v-446q0 -110 -58.5 -169t-167.5 -59q-117 0 -190 67v81h4q64 -81 179 -81q77 0 118 42.5t41 124.5v440h74z" />
    <glyph glyph-name="K" unicode="K" horiz-adv-x="625" 
d="M155 314v-314h-74v664h74v-309l339 309h102l-368 -328l378 -336h-105z" />
    <glyph glyph-name="L" unicode="L" horiz-adv-x="574" 
d="M549 0h-468v664h74v-597h394v-67z" />
    <glyph glyph-name="M" unicode="M" horiz-adv-x="932" 
d="M851 0h-74v590h-2l-281 -590h-62l-277 584h-2v-584h-72v664h113l269 -568h2l272 568h114v-664z" />
    <glyph glyph-name="N" unicode="N" horiz-adv-x="739" 
d="M658 0h-91l-412 590h-2v-590h-72v664h105l398 -566h2v566h72v-664z" />
    <glyph glyph-name="O" unicode="O" horiz-adv-x="765" 
d="M382 674q151 0 248 -96t97 -246t-97 -246t-248 -96t-247.5 96t-96.5 246t96.5 246t247.5 96zM382 607q-119 0 -194 -76.5t-75 -198.5t75 -198.5t194 -76.5t194.5 77t75.5 198t-75.5 198t-194.5 77z" />
    <glyph glyph-name="P" unicode="P" horiz-adv-x="628" 
d="M81 664h284q232 0 232 -205q0 -204 -232 -204h-210v-255h-74v664zM155 322h207q160 0 160 137q0 138 -160 138h-207v-275z" />
    <glyph glyph-name="Q" unicode="Q" horiz-adv-x="762" 
d="M727 332q0 -87 -34.5 -158t-96.5 -117l108 -133h-85l-80 99q-72 -33 -157 -33q-151 0 -247.5 96t-96.5 246t96.5 246t247.5 96t248 -96t97 -246zM382 57q61 0 112 21l-126 155h84l99 -122q101 79 101 221q0 121 -75.5 198t-194.5 77t-194 -76.5t-75 -198.5t75 -198.5
t194 -76.5z" />
    <glyph glyph-name="R" unicode="R" horiz-adv-x="657" 
d="M155 263v-263h-74v664h289q232 0 232 -201q0 -166 -163 -195l182 -268h-88l-171 263h-207zM155 330h212q160 0 160 133q0 134 -160 134h-212v-267z" />
    <glyph glyph-name="S" unicode="S" horiz-adv-x="577" 
d="M292 674q146 0 215 -59v-83h-4q-69 75 -212 75q-76 0 -123 -34.5t-47 -90.5q0 -50 38.5 -74t138.5 -34q134 -13 188.5 -57t54.5 -134t-66.5 -141.5t-182.5 -51.5q-167 0 -251 72v82h4q90 -87 247 -87q82 0 128.5 33t46.5 92q0 54 -40.5 80.5t-145.5 37.5q-130 13 -182 54
t-52 125q0 88 67 141.5t178 53.5z" />
    <glyph glyph-name="T" unicode="T" horiz-adv-x="578" 
d="M327 597v-597h-74v597h-228v67h528v-67h-226z" />
    <glyph glyph-name="U" unicode="U" horiz-adv-x="695" 
d="M630 664v-385q0 -142 -72.5 -215.5t-210.5 -73.5t-210 73.5t-72 215.5v385h74v-381q0 -110 54 -168t155 -58q102 0 156 58t54 168v381h72z" />
    <glyph glyph-name="V" unicode="V" horiz-adv-x="684" 
d="M377 0h-70l-288 664h81l242 -569h2l242 569h79z" />
    <glyph glyph-name="W" unicode="W" horiz-adv-x="1003" 
d="M758 0h-73l-183 539h-2l-183 -539h-73l-221 664h78l180 -551h2l186 551h65l187 -551h2l181 551h76z" />
    <glyph glyph-name="X" unicode="X" horiz-adv-x="687" 
d="M342 294l-223 -294h-88l262 338l-252 326h91l213 -280l212 280h89l-252 -326l262 -338h-91z" />
    <glyph glyph-name="Y" unicode="Y" horiz-adv-x="664" 
d="M370 0h-75v295l-285 369h91l234 -307l230 307h89l-284 -369v-295z" />
    <glyph glyph-name="Z" unicode="Z" horiz-adv-x="635" 
d="M48 0v63l436 534h-416v67h514v-63l-435 -534h440v-67h-539z" />
    <glyph glyph-name="bracketleft" unicode="[" horiz-adv-x="360" 
d="M307 -48v-54h-219v766h219v-54h-153v-658h153z" />
    <glyph glyph-name="backslash" unicode="\" horiz-adv-x="407" 
d="M373 -80h-62l-277 774h61z" />
    <glyph glyph-name="bracketright" unicode="]" horiz-adv-x="360" 
d="M53 610v54h219v-766h-219v54h153v658h-153z" />
    <glyph glyph-name="asciicircum" unicode="^" horiz-adv-x="650" 
d="M126 281h-69l243 383h50l243 -383h-69l-199 315z" />
    <glyph glyph-name="underscore" unicode="_" horiz-adv-x="500" 
d="M500 -74v-47h-500v47h500z" />
    <glyph glyph-name="grave" unicode="`" horiz-adv-x="500" 
d="M229 540l-127 159h76l118 -159h-67z" />
    <glyph glyph-name="a" unicode="a" horiz-adv-x="595" 
d="M527 0h-57l-2 84h-2q-27 -44 -77 -69t-115 -25q-103 0 -169.5 68.5t-66.5 174.5t66.5 175t169.5 69q132 0 192 -94h2l2 84h57v-467zM284 50q79 0 129 51t50 132t-50 132.5t-129 51.5q-78 0 -128 -51.5t-50 -132.5t50 -132t128 -51z" />
    <glyph glyph-name="b" unicode="b" horiz-adv-x="596" 
d="M321 477q103 0 170 -68.5t67 -175.5q0 -106 -66.5 -174.5t-170.5 -68.5q-133 0 -191 94h-2l-2 -84h-58v700h67v-307h2q60 84 184 84zM312 50q78 0 128 51t50 132t-50 132.5t-128 51.5q-79 0 -129.5 -51.5t-50.5 -132.5t50.5 -132t129.5 -51z" />
    <glyph glyph-name="c" unicode="c" horiz-adv-x="492" 
d="M288 477q100 0 156 -50v-75h-3q-55 65 -147 65q-85 0 -136.5 -51t-51.5 -133q0 -81 51.5 -132t136.5 -51q94 0 147 65h3v-76q-53 -49 -156 -49q-112 0 -181 68t-69 175q0 108 69 176t181 68z" />
    <glyph glyph-name="d" unicode="d" horiz-adv-x="595" 
d="M527 0h-58l-2 84h-2q-58 -94 -191 -94q-103 0 -169.5 68.5t-66.5 174.5t66.5 175t169.5 69q124 0 184 -84h2v307h67v-700zM284 50q78 0 128 51t50 132t-50 132.5t-128 51.5t-128 -51.5t-50 -132.5t50 -132t128 -51z" />
    <glyph glyph-name="e" unicode="e" horiz-adv-x="555" 
d="M518 213h-412q7 -75 61 -119t141 -44q108 0 176 67h3v-69q-66 -58 -181 -58q-122 0 -195 66.5t-73 176.5q0 107 68 175.5t175 68.5q108 0 172.5 -61.5t64.5 -163.5v-39zM282 417q-69 0 -117 -40t-59 -106h350q-7 67 -54 106.5t-120 39.5z" />
    <glyph glyph-name="f" unicode="f" horiz-adv-x="336" 
d="M250 710q56 0 89 -18v-64h-3q-30 22 -78 22q-90 0 -90 -101v-82h157v-58h-157v-409h-67v409h-90v58h90v84q0 76 38.5 117.5t110.5 41.5z" />
    <glyph glyph-name="g" unicode="g" horiz-adv-x="595" 
d="M527 467v-430q0 -112 -65.5 -174.5t-183.5 -62.5q-128 0 -197 66v71h3q63 -77 188 -77q90 0 139 46.5t49 133.5v36h-2q-59 -83 -184 -83q-103 0 -169.5 68t-66.5 174t66.5 174t169.5 68q133 0 191 -95h2l2 85h58zM284 53q78 0 128 50.5t50 131.5t-50 131.5t-128 50.5
t-128 -50.5t-50 -131.5t50 -131.5t128 -50.5z" />
    <glyph glyph-name="h" unicode="h" horiz-adv-x="557" 
d="M305 477q91 0 143.5 -55.5t52.5 -152.5v-269h-67v262q0 73 -38 114t-105 41q-72 0 -114 -47.5t-42 -129.5v-240h-67v700h67v-304h2q53 81 168 81z" />
    <glyph glyph-name="i" unicode="i" horiz-adv-x="204" 
d="M102 661q20 0 33 -13.5t13 -32.5q0 -20 -13 -33t-33 -13t-33 13t-13 33t13 33t33 13zM68 0v467h67v-467h-67z" />
    <glyph glyph-name="j" unicode="j" horiz-adv-x="204" 
d="M102 661q20 0 33 -13.5t13 -32.5q0 -20 -13 -33t-33 -13t-33 13t-13 33t13 33t33 13zM135 467v-542q0 -125 -107 -125q-31 0 -55 10v62h3q17 -12 42 -12q28 0 39 15.5t11 53.5v538h67z" />
    <glyph glyph-name="k" unicode="k" horiz-adv-x="480" 
d="M135 215v-215h-67v700h67v-440l227 207h93l-255 -228l265 -239h-97z" />
    <glyph glyph-name="l" unicode="l" horiz-adv-x="203" 
d="M135 700v-700h-67v700h67z" />
    <glyph glyph-name="m" unicode="m" horiz-adv-x="854" 
d="M620 477q86 0 132 -53t46 -151v-273h-67v267q0 73 -32 111.5t-94 38.5q-67 0 -102.5 -44.5t-35.5 -129.5v-243h-67v267q0 150 -126 150q-67 0 -102.5 -44t-35.5 -126v-247h-67v467h57l2 -74h2q47 84 158 84q117 0 157 -99h2q43 99 173 99z" />
    <glyph glyph-name="n" unicode="n" horiz-adv-x="557" 
d="M305 477q91 0 143.5 -55.5t52.5 -152.5v-269h-67v262q0 73 -38 114t-105 41q-72 0 -114 -47.5t-42 -129.5v-240h-67v467h58l2 -83h2q51 93 175 93z" />
    <glyph glyph-name="o" unicode="o" horiz-adv-x="569" 
d="M284 477q108 0 177.5 -68.5t69.5 -175.5q0 -106 -69.5 -174.5t-177.5 -68.5t-177 68t-69 175t69 175.5t177 68.5zM284 417q-78 0 -128 -51.5t-50 -132.5t50 -132t128 -51q79 0 129 51t50 132t-50 132.5t-129 51.5z" />
    <glyph glyph-name="p" unicode="p" horiz-adv-x="596" 
d="M321 477q103 0 170 -68.5t67 -175.5q0 -106 -66.5 -174.5t-170.5 -68.5q-125 0 -184 83h-2v-263h-67v657h58l2 -85h2q58 95 191 95zM312 50q78 0 128 51t50 132t-50 132.5t-128 51.5q-79 0 -129.5 -51.5t-50.5 -132.5t50.5 -132t129.5 -51z" />
    <glyph glyph-name="q" unicode="q" horiz-adv-x="595" 
d="M527 -190h-67v263h-2q-59 -83 -184 -83q-103 0 -169.5 68.5t-66.5 174.5t66.5 175t169.5 69q133 0 191 -95h2l2 85h58v-657zM284 50q78 0 128 51t50 132t-50 132.5t-128 51.5t-128 -51.5t-50 -132.5t50 -132t128 -51z" />
    <glyph glyph-name="r" unicode="r" horiz-adv-x="363" 
d="M280 477q41 0 72 -18v-68h-3q-31 22 -74 22q-140 0 -140 -195v-218h-67v467h58l2 -84q42 94 152 94z" />
    <glyph glyph-name="s" unicode="s" horiz-adv-x="430" 
d="M218 477q102 0 154 -38v-72h-3q-47 50 -149 50q-49 0 -80.5 -23.5t-31.5 -60.5q0 -31 25.5 -45t90.5 -18q96 -6 135.5 -37.5t39.5 -99.5q0 -66 -49 -104.5t-132 -38.5q-118 0 -178 51v75h3q57 -66 173 -66q52 0 84 22.5t32 60.5q0 35 -26.5 51t-96.5 21q-93 7 -130 36
t-37 91q0 65 48.5 105t127.5 40z" />
    <glyph glyph-name="t" unicode="t" horiz-adv-x="363" 
d="M327 77v-69q-30 -18 -81 -18q-70 0 -107.5 40.5t-37.5 114.5v264h-90v58h92l11 125h54v-125h157v-58h-157v-262q0 -46 23 -71.5t63 -25.5q46 0 70 27h3z" />
    <glyph glyph-name="u" unicode="u" horiz-adv-x="557" 
d="M489 0h-57l-3 84h-2q-52 -94 -175 -94q-91 0 -143 55t-52 152v270h67v-262q0 -73 38 -114t104 -41q72 0 114 47.5t42 129.5v240h67v-467z" />
    <glyph glyph-name="v" unicode="v" horiz-adv-x="493" 
d="M281 0h-69l-203 467h72l166 -397h2l166 397h69z" />
    <glyph glyph-name="w" unicode="w" horiz-adv-x="753" 
d="M576 0h-66l-131 360h-2l-132 -360h-68l-168 467h71l130 -380h2l139 380h55l137 -377h2l131 377h68z" />
    <glyph glyph-name="x" unicode="x" horiz-adv-x="512" 
d="M101 0h-80l192 240l-182 227h83l145 -187l142 187h80l-181 -227l191 -240h-83l-153 200z" />
    <glyph glyph-name="y" unicode="y" horiz-adv-x="493" 
d="M183 -190h-69l97 208l-202 449h72l166 -380h2l166 380h69z" />
    <glyph glyph-name="z" unicode="z" horiz-adv-x="488" 
d="M42 0v54l310 355h-295v58h384v-54l-310 -355h315v-58h-404z" />
    <glyph glyph-name="braceleft" unicode="{" horiz-adv-x="376" 
d="M198 525v-101q0 -117 -77 -142v-2q77 -25 77 -142v-101q0 -85 85 -85h41v-54h-51q-140 0 -140 139v109q0 56 -22.5 82t-68.5 26h-19v54h19q46 0 68.5 26t22.5 82v109q0 139 140 139h51v-54h-41q-85 0 -85 -85z" />
    <glyph glyph-name="bar" unicode="|" horiz-adv-x="335" 
d="M141 -190v890h52v-890h-52z" />
    <glyph glyph-name="braceright" unicode="}" horiz-adv-x="376" 
d="M178 37v101q0 117 77 142v2q-77 25 -77 142v101q0 85 -85 85h-41v54h51q140 0 140 -139v-109q0 -56 22.5 -82t68.5 -26h19v-54h-19q-46 0 -68.5 -26t-22.5 -82v-109q0 -139 -140 -139h-51v54h41q85 0 85 85z" />
    <glyph glyph-name="asciitilde" unicode="~" horiz-adv-x="650" 
d="M561 379l49 -30q-71 -128 -166 -128q-32 0 -61 11.5t-75 43.5q-63 44 -99 44q-61 0 -120 -99l-49 30q71 128 166 128q59 0 136 -55q61 -44 99 -44q61 0 120 99z" />
    <glyph glyph-name="uni00A0" unicode="&#xa0;" horiz-adv-x="220" 
 />
    <glyph glyph-name="exclamdown" unicode="&#xa1;" horiz-adv-x="242" 
d="M151 489l9 -489h-78l9 489h60zM121 578q-20 0 -34 14t-14 34t14 34t34 14t34 -14t14 -34t-14 -34t-34 -14z" />
    <glyph glyph-name="cent" unicode="&#xa2;" horiz-adv-x="650" 
d="M541 395h-4q-51 57 -134 64v-368q82 7 134 65h4v-79q-51 -43 -138 -49v-88h-60v88q-109 8 -173 74.5t-64 172.5t64 172.5t173 74.5v88h60v-88q86 -6 138 -49v-78zM176 275q0 -78 44.5 -126t122.5 -57v366q-78 -9 -122.5 -57t-44.5 -126z" />
    <glyph glyph-name="sterling" unicode="&#xa3;" horiz-adv-x="650" 
d="M380 611q-152 0 -152 -166v-84h253v-61h-253v-58q0 -64 -17 -105t-56 -72v-2h401v-63h-469v67q40 31 56 66.5t16 95.5v71h-72v61h72v90q0 108 54.5 165.5t157.5 57.5q114 0 185 -59v-78h-4q-69 74 -172 74z" />
    <glyph glyph-name="currency" unicode="&#xa4;" horiz-adv-x="650" 
d="M520 332q0 -67 -38 -118l75 -74l-40 -40l-74 75q-51 -38 -118 -38t-118 38l-74 -75l-40 40l75 74q-38 51 -38 118t38 118l-75 74l40 40l74 -75q51 38 118 38t118 -38l74 75l40 -40l-75 -74q38 -51 38 -118zM325 190q59 0 99.5 41t40.5 101t-40.5 101t-99.5 41t-99.5 -41
t-40.5 -101t40.5 -101t99.5 -41z" />
    <glyph glyph-name="yen" unicode="&#xa5;" horiz-adv-x="650" 
d="M576 361v-60h-215v-97h215v-60h-215v-144h-69v144h-216v60h216v97h-216v60h204l-235 303h86l196 -262l195 262h83l-235 -303h206z" />
    <glyph glyph-name="brokenbar" unicode="&#xa6;" horiz-adv-x="335" 
d="M141 310v390h52v-390h-52zM141 -190v390h52v-390h-52z" />
    <glyph glyph-name="section" unicode="&#xa7;" horiz-adv-x="542" 
d="M479 312q0 -94 -88 -134v-2q72 -34 72 -123q0 -73 -53 -114t-147 -41q-120 0 -189 50v69h3q63 -60 184 -60q66 0 103.5 25.5t37.5 69.5q0 41 -32 61.5t-114 29.5q-105 12 -149 47t-44 104q0 95 89 137v2q-73 32 -73 120q0 72 53 114.5t143 42.5q107 0 164 -40v-67h-3
q-54 49 -160 49q-63 0 -99.5 -26.5t-36.5 -70.5q0 -40 31.5 -60t111.5 -28q107 -11 151.5 -47t44.5 -108zM312 198q48 8 76.5 37.5t28.5 71.5q0 45 -32.5 66.5t-113.5 32.5q-16 2 -37 5q-49 -6 -79 -36t-30 -74t32 -65.5t113 -31.5q27 -3 42 -6z" />
    <glyph glyph-name="dieresis" unicode="&#xa8;" horiz-adv-x="500" 
d="M153 659q20 0 32.5 -12t12.5 -32t-12.5 -32.5t-32.5 -12.5q-19 0 -31 12.5t-12 32.5t12 32t31 12zM347 659q19 0 31 -12t12 -32t-12 -32.5t-31 -12.5q-20 0 -32.5 12.5t-12.5 32.5t12.5 32t32.5 12z" />
    <glyph glyph-name="copyright" unicode="&#xa9;" horiz-adv-x="794" 
d="M397 674q147 0 244.5 -97.5t97.5 -244.5t-97.5 -244.5t-244.5 -97.5t-244.5 97.5t-97.5 244.5t97.5 244.5t244.5 97.5zM397 630q-126 0 -210 -84.5t-84 -213.5t84 -213.5t210 -84.5t210 84.5t84 213.5t-84 213.5t-210 84.5zM406 512q72 0 113 -34v-55h-3q-37 45 -108 45
q-61 0 -99 -38t-38 -98t38 -98t99 -38q70 0 108 45h3v-55q-43 -34 -113 -34q-83 0 -134 50.5t-51 129.5t51 129.5t134 50.5z" />
    <glyph glyph-name="ordfeminine" unicode="&#xaa;" horiz-adv-x="450" 
d="M387 340h-47l-1 53h-2q-41 -59 -129 -59q-73 0 -119.5 48t-46.5 122t46.5 122t119.5 48q88 0 129 -59h2l1 48h47v-323zM215 382q52 0 85.5 34t33.5 88t-33.5 88t-85.5 34t-85.5 -34t-33.5 -88t33.5 -88t85.5 -34z" />
    <glyph glyph-name="guillemotleft" unicode="&#xab;" horiz-adv-x="477" 
d="M233 97v-73l-201 207v5l201 207v-73l-135 -137zM425 97v-73l-201 207v5l201 207v-73l-135 -137z" />
    <glyph glyph-name="logicalnot" unicode="&#xac;" horiz-adv-x="650" 
d="M594 97h-60v243h-476v60h536v-303z" />
    <glyph glyph-name="uni00AD" unicode="&#xad;" horiz-adv-x="370" 
d="M47 239v67h276v-67h-276z" />
    <glyph glyph-name="registered" unicode="&#xae;" horiz-adv-x="794" 
d="M397 674q147 0 244.5 -97.5t97.5 -244.5t-97.5 -244.5t-244.5 -97.5t-244.5 97.5t-97.5 244.5t97.5 244.5t244.5 97.5zM397 34q126 0 210 84.5t84 213.5t-84 213.5t-210 84.5t-210 -84.5t-84 -213.5t84 -213.5t210 -84.5zM546 399q0 -89 -87 -104l98 -138h-58l-91 135
h-91v-135h-48v350h153q124 0 124 -108zM317 334h103q76 0 76 64q0 65 -76 65h-103v-129z" />
    <glyph glyph-name="macron" unicode="&#xaf;" horiz-adv-x="500" 
d="M96 585v55h308v-55h-308z" />
    <glyph glyph-name="degree" unicode="&#xb0;" horiz-adv-x="388" 
d="M194 674q64 0 106 -42t42 -106t-42 -106t-106 -42t-106 42t-42 106t42 106t106 42zM194 621q-38 0 -65 -27.5t-27 -67.5t26.5 -67t65.5 -27t65.5 27t26.5 67t-26.5 67.5t-65.5 27.5z" />
    <glyph glyph-name="plusminus" unicode="&#xb1;" horiz-adv-x="650" 
d="M593 318h-238v-225h-60v225h-238v60h238v225h60v-225h238v-60zM593 60v-60h-536v60h536z" />
    <glyph glyph-name="twosuperior" unicode="&#xb2;" 
d="M345 435v-47h-280v50l83 65q85 67 115 103.5t30 72.5q0 78 -97 78q-68 0 -122 -52h-3v57q53 42 127 42q71 0 109 -31.5t38 -89.5q0 -48 -33 -90.5t-128 -116.5l-49 -39v-2h210z" />
    <glyph glyph-name="threesuperior" unicode="&#xb3;" 
d="M288 600v-2q71 -25 71 -99q0 -55 -41 -86t-115 -31q-96 0 -138 44v58h3q44 -55 134 -55q49 0 76 19.5t27 55.5q0 70 -99 70h-62v47h53q102 0 102 65q0 71 -100 71q-75 0 -123 -51h-3v57q49 41 131 41q69 0 108 -29.5t39 -82.5q0 -66 -63 -92z" />
    <glyph glyph-name="acute" unicode="&#xb4;" horiz-adv-x="500" 
d="M205 540l118 159h76l-127 -159h-67z" />
    <glyph glyph-name="uni00B5" unicode="&#xb5;" horiz-adv-x="576" 
d="M504 0h-57l-2 83h-2q-51 -93 -176 -93q-79 0 -126 44h-2v-224h-67v657h67v-262q0 -73 38 -114t104 -41q73 0 114.5 47t41.5 130v240h67v-467z" />
    <glyph glyph-name="paragraph" unicode="&#xb6;" horiz-adv-x="570" 
d="M477 653v-843h-50v843h-133v-843h-50v482q-206 11 -206 203q0 205 232 205h263v-47h-56z" />
    <glyph glyph-name="periodcentered" unicode="&#xb7;" horiz-adv-x="242" 
d="M121 380q20 0 34 -14t14 -34t-14 -34t-34 -14t-34 14t-14 34t14 34t34 14z" />
    <glyph glyph-name="cedilla" unicode="&#xb8;" horiz-adv-x="500" 
d="M250 -58h9q40 0 62 -18.5t22 -49.5q0 -74 -102 -74q-52 0 -84 16v51h3q28 -22 80 -22q51 0 51 32q0 29 -54 29q-20 0 -45 -9v15l46 88h42l-30 -56v-2z" />
    <glyph glyph-name="onesuperior" unicode="&#xb9;" 
d="M294 388h-52v348l-110 -70v52l121 80h41v-410z" />
    <glyph glyph-name="ordmasculine" unicode="&#xba;" horiz-adv-x="430" 
d="M215 674q76 0 124.5 -47.5t48.5 -122.5t-48.5 -122.5t-124.5 -47.5t-124.5 47.5t-48.5 122.5t48.5 122.5t124.5 47.5zM215 626q-52 0 -85.5 -34t-33.5 -88t33.5 -88t85.5 -34t85.5 34t33.5 88t-33.5 88t-85.5 34z" />
    <glyph glyph-name="guillemotright" unicode="&#xbb;" horiz-adv-x="477" 
d="M244 370v73l201 -207v-5l-201 -207v73l135 137zM52 370v73l201 -207v-5l-201 -207v73l135 137z" />
    <glyph glyph-name="onequarter" unicode="&#xbc;" horiz-adv-x="968" 
d="M284 0l430 664h57l-430 -664h-57zM887 83v-83h-52v83h-235v45l233 282h54v-280h57v-47h-57zM835 342l-177 -212h177v212zM294 254h-52v348l-110 -70v52l121 80h41v-410z" />
    <glyph glyph-name="onehalf" unicode="&#xbd;" horiz-adv-x="968" 
d="M241 0l430 664h57l-430 -664h-57zM903 47v-47h-280v50l83 65q85 67 115 103.5t30 72.5q0 78 -97 78q-68 0 -122 -52h-3v57q53 42 127 42q71 0 109 -31.5t38 -89.5q0 -48 -33 -90.5t-128 -116.5l-49 -39v-2h210zM294 254h-52v348l-110 -70v52l121 80h41v-410z" />
    <glyph glyph-name="threequarters" unicode="&#xbe;" horiz-adv-x="968" 
d="M291 0l430 664h57l-430 -664h-57zM887 83v-83h-52v83h-235v45l233 282h54v-280h57v-47h-57zM835 342l-177 -212h177v212zM288 466v-2q71 -25 71 -99q0 -55 -41 -86t-115 -31q-96 0 -138 44v58h3q44 -55 134 -55q49 0 76 19.5t27 55.5q0 70 -99 70h-62v47h53q102 0 102 65
q0 71 -100 71q-75 0 -123 -51h-3v57q49 41 131 41q69 0 108 -29.5t39 -82.5q0 -66 -63 -92z" />
    <glyph glyph-name="questiondown" unicode="&#xbf;" horiz-adv-x="482" 
d="M254 -10q-106 0 -166 49t-60 135q0 78 51 129t166 86v100h64v-143q-113 -29 -162 -68t-49 -101q0 -59 41 -91.5t115 -32.5q123 0 201 84h4v-77q-83 -70 -205 -70zM277 578q-20 0 -34 14t-14 34t14 34t34 14t34 -14t14 -34t-14 -34t-34 -14z" />
    <glyph glyph-name="Agrave" unicode="&#xc0;" horiz-adv-x="724" 
d="M624 0l-68 149h-391l-68 -149h-78l308 664h70l308 -664h-81zM362 578h-2l-165 -362h331zM336 729l-127 159h76l118 -159h-67z" />
    <glyph glyph-name="Aacute" unicode="&#xc1;" horiz-adv-x="724" 
d="M624 0l-68 149h-391l-68 -149h-78l308 664h70l308 -664h-81zM362 578h-2l-165 -362h331zM320 729l118 159h76l-127 -159h-67z" />
    <glyph glyph-name="Acircumflex" unicode="&#xc2;" horiz-adv-x="724" 
d="M624 0l-68 149h-391l-68 -149h-78l308 664h70l308 -664h-81zM362 578h-2l-165 -362h331zM362 839l-90 -110h-66l123 159h65l123 -159h-66z" />
    <glyph glyph-name="Atilde" unicode="&#xc3;" horiz-adv-x="724" 
d="M624 0l-68 149h-391l-68 -149h-78l308 664h70l308 -664h-81zM362 578h-2l-165 -362h331zM516 864v-61q-29 -54 -86 -54q-34 0 -79 30q-35 24 -60 24q-50 0 -80 -60h-3v62q29 54 86 54q34 0 77 -29q37 -25 62 -25q50 0 80 59h3z" />
    <glyph glyph-name="Adieresis" unicode="&#xc4;" horiz-adv-x="724" 
d="M624 0l-68 149h-391l-68 -149h-78l308 664h70l308 -664h-81zM362 578h-2l-165 -362h331zM265 848q20 0 32.5 -12t12.5 -32t-12.5 -32.5t-32.5 -12.5q-19 0 -31 12.5t-12 32.5t12 32t31 12zM459 848q19 0 31 -12t12 -32t-12 -32.5t-31 -12.5q-20 0 -32.5 12.5t-12.5 32.5
t12.5 32t32.5 12z" />
    <glyph glyph-name="Aring" unicode="&#xc5;" horiz-adv-x="724" 
d="M624 0l-68 149h-391l-68 -149h-78l308 664h70l308 -664h-81zM362 578h-2l-165 -362h331zM362 901q40 0 65.5 -25.5t25.5 -65.5t-25.5 -65.5t-65.5 -25.5t-65.5 25.5t-25.5 65.5t25.5 65.5t65.5 25.5zM362 853q-19 0 -31 -12t-12 -31t12 -31t31 -12t31 12t12 31t-12 31
t-31 12z" />
    <glyph glyph-name="AE" unicode="&#xc6;" horiz-adv-x="1037" 
d="M580 369h336v-67h-336v-235h408v-67h-482v149h-308l-104 -149h-84l466 664h512v-67h-408v-228zM506 588h-2l-259 -372h261v372z" />
    <glyph glyph-name="Ccedilla" unicode="&#xc7;" horiz-adv-x="658" 
d="M391 607q-125 0 -201.5 -76t-76.5 -199t76.5 -199t201.5 -76q138 0 212 86h4v-84q-78 -66 -210 -69l-25 -46v-2h9q40 0 62 -18.5t22 -49.5q0 -74 -102 -74q-52 0 -84 16v51h3q28 -22 80 -22q51 0 51 32q0 29 -54 29q-20 0 -45 -9v15l41 79q-142 10 -229.5 104.5
t-87.5 236.5q0 151 97.5 246.5t252.5 95.5q140 0 219 -69v-84h-4q-74 86 -212 86z" />
    <glyph glyph-name="Egrave" unicode="&#xc8;" horiz-adv-x="612" 
d="M490 369v-67h-335v-235h407v-67h-481v664h481v-67h-407v-228h335zM295 729l-127 159h76l118 -159h-67z" />
    <glyph glyph-name="Eacute" unicode="&#xc9;" horiz-adv-x="612" 
d="M490 369v-67h-335v-235h407v-67h-481v664h481v-67h-407v-228h335zM279 729l118 159h76l-127 -159h-67z" />
    <glyph glyph-name="Ecircumflex" unicode="&#xca;" horiz-adv-x="612" 
d="M490 369v-67h-335v-235h407v-67h-481v664h481v-67h-407v-228h335zM321 839l-90 -110h-66l123 159h65l123 -159h-66z" />
    <glyph glyph-name="Edieresis" unicode="&#xcb;" horiz-adv-x="612" 
d="M490 369v-67h-335v-235h407v-67h-481v664h481v-67h-407v-228h335zM224 848q20 0 32.5 -12t12.5 -32t-12.5 -32.5t-32.5 -12.5q-19 0 -31 12.5t-12 32.5t12 32t31 12zM418 848q19 0 31 -12t12 -32t-12 -32.5t-31 -12.5q-20 0 -32.5 12.5t-12.5 32.5t12.5 32t32.5 12z" />
    <glyph glyph-name="Igrave" unicode="&#xcc;" horiz-adv-x="236" 
d="M81 0v664h74v-664h-74zM93 729l-127 159h76l118 -159h-67z" />
    <glyph glyph-name="Iacute" unicode="&#xcd;" horiz-adv-x="236" 
d="M81 0v664h74v-664h-74zM77 729l118 159h76l-127 -159h-67z" />
    <glyph glyph-name="Icircumflex" unicode="&#xce;" horiz-adv-x="236" 
d="M81 0v664h74v-664h-74zM119 839l-90 -110h-66l123 159h65l123 -159h-66z" />
    <glyph glyph-name="Idieresis" unicode="&#xcf;" horiz-adv-x="236" 
d="M81 0v664h74v-664h-74zM22 848q20 0 32.5 -12t12.5 -32t-12.5 -32.5t-32.5 -12.5q-19 0 -31 12.5t-12 32.5t12 32t31 12zM216 848q19 0 31 -12t12 -32t-12 -32.5t-31 -12.5q-20 0 -32.5 12.5t-12.5 32.5t12.5 32t32.5 12z" />
    <glyph glyph-name="Eth" unicode="&#xd0;" horiz-adv-x="740" 
d="M96 664h255q165 0 258.5 -88t93.5 -243q0 -156 -93.5 -244.5t-258.5 -88.5h-255v305h-75v64h75v295zM170 67h178q132 0 206 70.5t74 195.5q0 124 -74 194t-206 70h-178v-228h204v-64h-204v-238z" />
    <glyph glyph-name="Ntilde" unicode="&#xd1;" horiz-adv-x="739" 
d="M658 0h-91l-412 590h-2v-590h-72v664h105l398 -566h2v566h72v-664zM524 864v-61q-29 -54 -86 -54q-34 0 -79 30q-35 24 -60 24q-50 0 -80 -60h-3v62q29 54 86 54q34 0 77 -29q37 -25 62 -25q50 0 80 59h3z" />
    <glyph glyph-name="Ograve" unicode="&#xd2;" horiz-adv-x="765" 
d="M382 674q151 0 248 -96t97 -246t-97 -246t-248 -96t-247.5 96t-96.5 246t96.5 246t247.5 96zM382 607q-119 0 -194 -76.5t-75 -198.5t75 -198.5t194 -76.5t194.5 77t75.5 198t-75.5 198t-194.5 77zM356 729l-127 159h76l118 -159h-67z" />
    <glyph glyph-name="Oacute" unicode="&#xd3;" horiz-adv-x="765" 
d="M382 674q151 0 248 -96t97 -246t-97 -246t-248 -96t-247.5 96t-96.5 246t96.5 246t247.5 96zM382 607q-119 0 -194 -76.5t-75 -198.5t75 -198.5t194 -76.5t194.5 77t75.5 198t-75.5 198t-194.5 77zM340 729l118 159h76l-127 -159h-67z" />
    <glyph glyph-name="Ocircumflex" unicode="&#xd4;" horiz-adv-x="765" 
d="M382 674q151 0 248 -96t97 -246t-97 -246t-248 -96t-247.5 96t-96.5 246t96.5 246t247.5 96zM382 607q-119 0 -194 -76.5t-75 -198.5t75 -198.5t194 -76.5t194.5 77t75.5 198t-75.5 198t-194.5 77zM382 839l-90 -110h-66l123 159h65l123 -159h-66z" />
    <glyph glyph-name="Otilde" unicode="&#xd5;" horiz-adv-x="765" 
d="M382 674q151 0 248 -96t97 -246t-97 -246t-248 -96t-247.5 96t-96.5 246t96.5 246t247.5 96zM382 607q-119 0 -194 -76.5t-75 -198.5t75 -198.5t194 -76.5t194.5 77t75.5 198t-75.5 198t-194.5 77zM536 864v-61q-29 -54 -86 -54q-34 0 -79 30q-35 24 -60 24
q-50 0 -80 -60h-3v62q29 54 86 54q33 0 77 -29q37 -25 62 -25q50 0 80 59h3z" />
    <glyph glyph-name="Odieresis" unicode="&#xd6;" horiz-adv-x="765" 
d="M382 674q151 0 248 -96t97 -246t-97 -246t-248 -96t-247.5 96t-96.5 246t96.5 246t247.5 96zM382 607q-119 0 -194 -76.5t-75 -198.5t75 -198.5t194 -76.5t194.5 77t75.5 198t-75.5 198t-194.5 77zM285 848q20 0 32.5 -12t12.5 -32t-12.5 -32.5t-32.5 -12.5
q-19 0 -31 12.5t-12 32.5t12 32t31 12zM479 848q19 0 31 -12t12 -32t-12 -32.5t-31 -12.5q-20 0 -32.5 12.5t-12.5 32.5t12.5 32t32.5 12z" />
    <glyph glyph-name="multiply" unicode="&#xd7;" horiz-adv-x="650" 
d="M577 91l-43 -43l-209 209l-209 -209l-43 43l209 209l-209 209l43 43l209 -209l209 209l43 -43l-209 -209z" />
    <glyph glyph-name="Oslash" unicode="&#xd8;" horiz-adv-x="765" 
d="M727 664l-87 -96q87 -95 87 -236q0 -150 -97 -246t-248 -96q-121 0 -210 64l-49 -54h-85l87 96q-87 95 -87 236q0 150 96.5 246t247.5 96q121 0 210 -64l49 54h86zM113 332q0 -108 61 -182l371 408q-71 49 -163 49q-119 0 -194 -76.5t-75 -198.5zM652 332q0 108 -61 182
l-371 -408q70 -49 162 -49q119 0 194.5 77t75.5 198z" />
    <glyph glyph-name="Ugrave" unicode="&#xd9;" horiz-adv-x="695" 
d="M630 664v-385q0 -142 -72.5 -215.5t-210.5 -73.5t-210 73.5t-72 215.5v385h74v-381q0 -110 54 -168t155 -58q102 0 156 58t54 168v381h72zM321 729l-127 159h76l118 -159h-67z" />
    <glyph glyph-name="Uacute" unicode="&#xda;" horiz-adv-x="695" 
d="M630 664v-385q0 -142 -72.5 -215.5t-210.5 -73.5t-210 73.5t-72 215.5v385h74v-381q0 -110 54 -168t155 -58q102 0 156 58t54 168v381h72zM305 729l118 159h76l-127 -159h-67z" />
    <glyph glyph-name="Ucircumflex" unicode="&#xdb;" horiz-adv-x="695" 
d="M630 664v-385q0 -142 -72.5 -215.5t-210.5 -73.5t-210 73.5t-72 215.5v385h74v-381q0 -110 54 -168t155 -58q102 0 156 58t54 168v381h72zM347 839l-90 -110h-66l123 159h65l123 -159h-66z" />
    <glyph glyph-name="Udieresis" unicode="&#xdc;" horiz-adv-x="695" 
d="M630 664v-385q0 -142 -72.5 -215.5t-210.5 -73.5t-210 73.5t-72 215.5v385h74v-381q0 -110 54 -168t155 -58q102 0 156 58t54 168v381h72zM250 848q20 0 32.5 -12t12.5 -32t-12.5 -32.5t-32.5 -12.5q-19 0 -31 12.5t-12 32.5t12 32t31 12zM444 848q19 0 31 -12t12 -32
t-12 -32.5t-31 -12.5q-20 0 -32.5 12.5t-12.5 32.5t12.5 32t32.5 12z" />
    <glyph glyph-name="Yacute" unicode="&#xdd;" horiz-adv-x="664" 
d="M370 0h-75v295l-285 369h91l234 -307l230 307h89l-284 -369v-295zM290 729l118 159h76l-127 -159h-67z" />
    <glyph glyph-name="Thorn" unicode="&#xde;" horiz-adv-x="628" 
d="M155 551h210q232 0 232 -205t-232 -205h-210v-141h-74v664h74v-113zM155 208h207q160 0 160 138t-160 138h-207v-276z" />
    <glyph glyph-name="germandbls" unicode="&#xdf;" horiz-adv-x="553" 
d="M269 710q82 0 129.5 -41t47.5 -112q0 -43 -16 -76t-56 -65t-40 -57q0 -24 16.5 -39t59.5 -28q67 -20 94.5 -55t27.5 -95q0 -73 -47 -112.5t-133 -39.5q-97 0 -157 44v73h3q24 -26 64.5 -41.5t84.5 -15.5q56 0 86.5 24t30.5 68q0 34 -20 54t-69 35q-59 18 -83.5 46.5
t-24.5 78.5q0 32 13 55t47 51q53 44 53 90t-29.5 72t-80.5 26q-70 0 -102.5 -33.5t-32.5 -107.5v-509h-67v515q0 195 201 195z" />
    <glyph glyph-name="agrave" unicode="&#xe0;" horiz-adv-x="595" 
d="M527 0h-57l-2 84h-2q-27 -44 -77 -69t-115 -25q-103 0 -169.5 68.5t-66.5 174.5t66.5 175t169.5 69q132 0 192 -94h2l2 84h57v-467zM284 50q79 0 129 51t50 132t-50 132.5t-129 51.5q-78 0 -128 -51.5t-50 -132.5t50 -132t128 -51zM256 540l-127 159h76l118 -159h-67z
" />
    <glyph glyph-name="aacute" unicode="&#xe1;" horiz-adv-x="595" 
d="M527 0h-57l-2 84h-2q-27 -44 -77 -69t-115 -25q-103 0 -169.5 68.5t-66.5 174.5t66.5 175t169.5 69q132 0 192 -94h2l2 84h57v-467zM284 50q79 0 129 51t50 132t-50 132.5t-129 51.5q-78 0 -128 -51.5t-50 -132.5t50 -132t128 -51zM240 540l118 159h76l-127 -159h-67z
" />
    <glyph glyph-name="acircumflex" unicode="&#xe2;" horiz-adv-x="595" 
d="M527 0h-57l-2 84h-2q-27 -44 -77 -69t-115 -25q-103 0 -169.5 68.5t-66.5 174.5t66.5 175t169.5 69q132 0 192 -94h2l2 84h57v-467zM284 50q79 0 129 51t50 132t-50 132.5t-129 51.5q-78 0 -128 -51.5t-50 -132.5t50 -132t128 -51zM282 650l-90 -110h-66l123 159h65
l123 -159h-66z" />
    <glyph glyph-name="atilde" unicode="&#xe3;" horiz-adv-x="595" 
d="M527 0h-57l-2 84h-2q-27 -44 -77 -69t-115 -25q-103 0 -169.5 68.5t-66.5 174.5t66.5 175t169.5 69q132 0 192 -94h2l2 84h57v-467zM284 50q79 0 129 51t50 132t-50 132.5t-129 51.5q-78 0 -128 -51.5t-50 -132.5t50 -132t128 -51zM436 675v-61q-29 -54 -86 -54
q-34 0 -79 30q-35 24 -60 24q-50 0 -80 -60h-3v62q29 54 86 54q34 0 77 -29q37 -25 62 -25q50 0 80 59h3z" />
    <glyph glyph-name="adieresis" unicode="&#xe4;" horiz-adv-x="595" 
d="M527 0h-57l-2 84h-2q-27 -44 -77 -69t-115 -25q-103 0 -169.5 68.5t-66.5 174.5t66.5 175t169.5 69q132 0 192 -94h2l2 84h57v-467zM284 50q79 0 129 51t50 132t-50 132.5t-129 51.5q-78 0 -128 -51.5t-50 -132.5t50 -132t128 -51zM185 659q20 0 32.5 -12t12.5 -32
t-12.5 -32.5t-32.5 -12.5q-19 0 -31 12.5t-12 32.5t12 32t31 12zM379 659q19 0 31 -12t12 -32t-12 -32.5t-31 -12.5q-20 0 -32.5 12.5t-12.5 32.5t12.5 32t32.5 12z" />
    <glyph glyph-name="aring" unicode="&#xe5;" horiz-adv-x="595" 
d="M527 0h-57l-2 84h-2q-27 -44 -77 -69t-115 -25q-103 0 -169.5 68.5t-66.5 174.5t66.5 175t169.5 69q132 0 192 -94h2l2 84h57v-467zM284 50q79 0 129 51t50 132t-50 132.5t-129 51.5q-78 0 -128 -51.5t-50 -132.5t50 -132t128 -51zM282 712q40 0 65.5 -25.5t25.5 -65.5
t-25.5 -65.5t-65.5 -25.5t-65.5 25.5t-25.5 65.5t25.5 65.5t65.5 25.5zM282 664q-19 0 -31 -12t-12 -31t12 -31t31 -12t31 12t12 31t-12 31t-31 12z" />
    <glyph glyph-name="ae" unicode="&#xe6;" horiz-adv-x="980" 
d="M943 213h-415q7 -75 61 -119t143 -44q110 0 178 67h3v-69q-69 -58 -174 -58q-155 0 -215 93h-2l-1 -83h-53l-1 83h-2q-58 -93 -191 -93q-103 0 -169.5 68.5t-66.5 174.5t66.5 175t169.5 69q132 0 191 -93h2l1 83h53l1 -83h2q59 93 193 93q105 0 165.5 -60.5t60.5 -164.5
v-39zM284 50q79 0 129 51t50 132t-50 132.5t-129 51.5q-78 0 -128 -51.5t-50 -132.5t50 -132t128 -51zM528 271h353q-7 67 -54 106.5t-121 39.5q-72 0 -119.5 -40t-58.5 -106z" />
    <glyph glyph-name="ccedilla" unicode="&#xe7;" horiz-adv-x="492" 
d="M294 417q-85 0 -136.5 -51t-51.5 -133q0 -81 51.5 -132t136.5 -51q94 0 147 65h3v-76q-49 -46 -142 -49l-25 -46v-2h9q40 0 62 -18.5t22 -49.5q0 -74 -102 -74q-52 0 -84 16v51h3q28 -22 80 -22q51 0 51 32q0 29 -54 29q-20 0 -45 -9v15l41 79q-101 9 -161.5 75.5
t-60.5 166.5q0 108 69 176t181 68q100 0 156 -50v-75h-3q-55 65 -147 65z" />
    <glyph glyph-name="egrave" unicode="&#xe8;" horiz-adv-x="555" 
d="M518 213h-412q7 -75 61 -119t141 -44q108 0 176 67h3v-69q-66 -58 -181 -58q-122 0 -195 66.5t-73 176.5q0 107 68 175.5t175 68.5q108 0 172.5 -61.5t64.5 -163.5v-39zM282 417q-69 0 -117 -40t-59 -106h350q-7 67 -54 106.5t-120 39.5zM256 540l-127 159h76l118 -159
h-67z" />
    <glyph glyph-name="eacute" unicode="&#xe9;" horiz-adv-x="555" 
d="M518 213h-412q7 -75 61 -119t141 -44q108 0 176 67h3v-69q-66 -58 -181 -58q-122 0 -195 66.5t-73 176.5q0 107 68 175.5t175 68.5q108 0 172.5 -61.5t64.5 -163.5v-39zM282 417q-69 0 -117 -40t-59 -106h350q-7 67 -54 106.5t-120 39.5zM240 540l118 159h76l-127 -159
h-67z" />
    <glyph glyph-name="ecircumflex" unicode="&#xea;" horiz-adv-x="555" 
d="M518 213h-412q7 -75 61 -119t141 -44q108 0 176 67h3v-69q-66 -58 -181 -58q-122 0 -195 66.5t-73 176.5q0 107 68 175.5t175 68.5q108 0 172.5 -61.5t64.5 -163.5v-39zM282 417q-69 0 -117 -40t-59 -106h350q-7 67 -54 106.5t-120 39.5zM282 650l-90 -110h-66l123 159
h65l123 -159h-66z" />
    <glyph glyph-name="edieresis" unicode="&#xeb;" horiz-adv-x="555" 
d="M518 213h-412q7 -75 61 -119t141 -44q108 0 176 67h3v-69q-66 -58 -181 -58q-122 0 -195 66.5t-73 176.5q0 107 68 175.5t175 68.5q108 0 172.5 -61.5t64.5 -163.5v-39zM282 417q-69 0 -117 -40t-59 -106h350q-7 67 -54 106.5t-120 39.5zM185 659q20 0 32.5 -12t12.5 -32
t-12.5 -32.5t-32.5 -12.5q-19 0 -31 12.5t-12 32.5t12 32t31 12zM379 659q19 0 31 -12t12 -32t-12 -32.5t-31 -12.5q-20 0 -32.5 12.5t-12.5 32.5t12.5 32t32.5 12z" />
    <glyph glyph-name="igrave" unicode="&#xec;" horiz-adv-x="204" 
d="M68 0v467h67v-467h-67zM76 540l-127 159h76l118 -159h-67z" />
    <glyph glyph-name="iacute" unicode="&#xed;" horiz-adv-x="204" 
d="M68 0v467h67v-467h-67zM60 540l118 159h76l-127 -159h-67z" />
    <glyph glyph-name="icircumflex" unicode="&#xee;" horiz-adv-x="204" 
d="M68 0v467h67v-467h-67zM102 650l-90 -110h-66l123 159h65l123 -159h-66z" />
    <glyph glyph-name="idieresis" unicode="&#xef;" horiz-adv-x="204" 
d="M68 0v467h67v-467h-67zM5 659q20 0 32.5 -12t12.5 -32t-12.5 -32.5t-32.5 -12.5q-19 0 -31 12.5t-12 32.5t12 32t31 12zM199 659q19 0 31 -12t12 -32t-12 -32.5t-31 -12.5q-20 0 -32.5 12.5t-12.5 32.5t12.5 32t32.5 12z" />
    <glyph glyph-name="eth" unicode="&#xf0;" horiz-adv-x="569" 
d="M460 604l-57 -19q128 -136 128 -343q0 -113 -69 -182.5t-178 -69.5q-108 0 -177 68t-69 175q0 106 66.5 175t169.5 69q97 0 158 -58h2q-27 79 -96 146l-166 -54v58l118 38q-67 54 -161 90v3h117q46 -21 111 -72l103 33v-57zM284 50q79 0 129 51t50 132t-50 132.5
t-129 51.5q-78 0 -128 -51.5t-50 -132.5t50 -132t128 -51z" />
    <glyph glyph-name="ntilde" unicode="&#xf1;" horiz-adv-x="557" 
d="M305 477q91 0 143.5 -55.5t52.5 -152.5v-269h-67v262q0 73 -38 114t-105 41q-72 0 -114 -47.5t-42 -129.5v-240h-67v467h58l2 -83h2q51 93 175 93zM433 675v-61q-29 -54 -86 -54q-34 0 -79 30q-35 24 -60 24q-50 0 -80 -60h-3v62q29 54 86 54q33 0 77 -29q37 -25 62 -25
q50 0 80 59h3z" />
    <glyph glyph-name="ograve" unicode="&#xf2;" horiz-adv-x="569" 
d="M284 477q108 0 177.5 -68.5t69.5 -175.5q0 -106 -69.5 -174.5t-177.5 -68.5t-177 68t-69 175t69 175.5t177 68.5zM284 417q-78 0 -128 -51.5t-50 -132.5t50 -132t128 -51q79 0 129 51t50 132t-50 132.5t-129 51.5zM258 540l-127 159h76l118 -159h-67z" />
    <glyph glyph-name="oacute" unicode="&#xf3;" horiz-adv-x="569" 
d="M284 477q108 0 177.5 -68.5t69.5 -175.5q0 -106 -69.5 -174.5t-177.5 -68.5t-177 68t-69 175t69 175.5t177 68.5zM284 417q-78 0 -128 -51.5t-50 -132.5t50 -132t128 -51q79 0 129 51t50 132t-50 132.5t-129 51.5zM242 540l118 159h76l-127 -159h-67z" />
    <glyph glyph-name="ocircumflex" unicode="&#xf4;" horiz-adv-x="569" 
d="M284 477q108 0 177.5 -68.5t69.5 -175.5q0 -106 -69.5 -174.5t-177.5 -68.5t-177 68t-69 175t69 175.5t177 68.5zM284 417q-78 0 -128 -51.5t-50 -132.5t50 -132t128 -51q79 0 129 51t50 132t-50 132.5t-129 51.5zM284 650l-90 -110h-66l123 159h65l123 -159h-66z" />
    <glyph glyph-name="otilde" unicode="&#xf5;" horiz-adv-x="569" 
d="M284 477q108 0 177.5 -68.5t69.5 -175.5q0 -106 -69.5 -174.5t-177.5 -68.5t-177 68t-69 175t69 175.5t177 68.5zM284 417q-78 0 -128 -51.5t-50 -132.5t50 -132t128 -51q79 0 129 51t50 132t-50 132.5t-129 51.5zM438 675v-61q-29 -54 -86 -54q-34 0 -79 30
q-35 24 -60 24q-50 0 -80 -60h-3v62q29 54 86 54q33 0 77 -29q37 -25 62 -25q50 0 80 59h3z" />
    <glyph glyph-name="odieresis" unicode="&#xf6;" horiz-adv-x="569" 
d="M284 477q108 0 177.5 -68.5t69.5 -175.5q0 -106 -69.5 -174.5t-177.5 -68.5t-177 68t-69 175t69 175.5t177 68.5zM284 417q-78 0 -128 -51.5t-50 -132.5t50 -132t128 -51q79 0 129 51t50 132t-50 132.5t-129 51.5zM187 659q20 0 32.5 -12t12.5 -32t-12.5 -32.5
t-32.5 -12.5q-19 0 -31 12.5t-12 32.5t12 32t31 12zM381 659q19 0 31 -12t12 -32t-12 -32.5t-31 -12.5q-20 0 -32.5 12.5t-12.5 32.5t12.5 32t32.5 12z" />
    <glyph glyph-name="divide" unicode="&#xf7;" horiz-adv-x="650" 
d="M325 581q19 0 31 -12t12 -31t-12 -31t-31 -12t-31 12t-12 31t12 31t31 12zM43 270v60h564v-60h-564zM325 105q19 0 31 -12t12 -31t-12 -31t-31 -12t-31 12t-12 31t12 31t31 12z" />
    <glyph glyph-name="oslash" unicode="&#xf8;" horiz-adv-x="569" 
d="M531 467l-61 -68q61 -66 61 -166q0 -106 -69.5 -174.5t-177.5 -68.5q-80 0 -143 41l-27 -31h-76l60 67q-60 68 -60 166q0 107 69 175.5t177 68.5q81 0 143 -41l28 31h76zM106 233q0 -67 36 -116l243 271q-43 29 -101 29q-78 0 -128 -51.5t-50 -132.5zM463 233
q0 69 -37 117l-242 -272q44 -28 100 -28q79 0 129 51t50 132z" />
    <glyph glyph-name="ugrave" unicode="&#xf9;" horiz-adv-x="557" 
d="M489 0h-57l-3 84h-2q-52 -94 -175 -94q-91 0 -143 55t-52 152v270h67v-262q0 -73 38 -114t104 -41q72 0 114 47.5t42 129.5v240h67v-467zM246 540l-127 159h76l118 -159h-67z" />
    <glyph glyph-name="uacute" unicode="&#xfa;" horiz-adv-x="557" 
d="M489 0h-57l-3 84h-2q-52 -94 -175 -94q-91 0 -143 55t-52 152v270h67v-262q0 -73 38 -114t104 -41q72 0 114 47.5t42 129.5v240h67v-467zM230 540l118 159h76l-127 -159h-67z" />
    <glyph glyph-name="ucircumflex" unicode="&#xfb;" horiz-adv-x="557" 
d="M489 0h-57l-3 84h-2q-52 -94 -175 -94q-91 0 -143 55t-52 152v270h67v-262q0 -73 38 -114t104 -41q72 0 114 47.5t42 129.5v240h67v-467zM272 650l-90 -110h-66l123 159h65l123 -159h-66z" />
    <glyph glyph-name="udieresis" unicode="&#xfc;" horiz-adv-x="557" 
d="M489 0h-57l-3 84h-2q-52 -94 -175 -94q-91 0 -143 55t-52 152v270h67v-262q0 -73 38 -114t104 -41q72 0 114 47.5t42 129.5v240h67v-467zM175 659q20 0 32.5 -12t12.5 -32t-12.5 -32.5t-32.5 -12.5q-19 0 -31 12.5t-12 32.5t12 32t31 12zM369 659q19 0 31 -12t12 -32
t-12 -32.5t-31 -12.5q-20 0 -32.5 12.5t-12.5 32.5t12.5 32t32.5 12z" />
    <glyph glyph-name="yacute" unicode="&#xfd;" horiz-adv-x="493" 
d="M183 -190h-69l97 208l-202 449h72l166 -380h2l166 380h69zM204 540l118 159h76l-127 -159h-67z" />
    <glyph glyph-name="thorn" unicode="&#xfe;" horiz-adv-x="596" 
d="M321 477q103 0 170 -68.5t67 -175.5q0 -106 -66.5 -174.5t-170.5 -68.5q-125 0 -184 83h-2v-263h-67v890h67v-307h2q60 84 184 84zM312 50q78 0 128 51t50 132t-50 132.5t-128 51.5q-79 0 -129.5 -51.5t-50.5 -132.5t50.5 -132t129.5 -51z" />
    <glyph glyph-name="ydieresis" unicode="&#xff;" horiz-adv-x="493" 
d="M183 -190h-69l97 208l-202 449h72l166 -380h2l166 380h69zM149 659q20 0 32.5 -12t12.5 -32t-12.5 -32.5t-32.5 -12.5q-19 0 -31 12.5t-12 32.5t12 32t31 12zM343 659q19 0 31 -12t12 -32t-12 -32.5t-31 -12.5q-20 0 -32.5 12.5t-12.5 32.5t12.5 32t32.5 12z" />
    <glyph glyph-name="Amacron" unicode="&#x100;" horiz-adv-x="724" 
d="M624 0l-68 149h-391l-68 -149h-78l308 664h70l308 -664h-81zM362 578h-2l-165 -362h331zM208 774v55h308v-55h-308z" />
    <glyph glyph-name="amacron" unicode="&#x101;" horiz-adv-x="595" 
d="M527 0h-57l-2 84h-2q-27 -44 -77 -69t-115 -25q-103 0 -169.5 68.5t-66.5 174.5t66.5 175t169.5 69q132 0 192 -94h2l2 84h57v-467zM284 50q79 0 129 51t50 132t-50 132.5t-129 51.5q-78 0 -128 -51.5t-50 -132.5t50 -132t128 -51zM128 585v55h308v-55h-308z" />
    <glyph glyph-name="Abreve" unicode="&#x102;" horiz-adv-x="724" 
d="M624 0l-68 149h-391l-68 -149h-78l308 664h70l308 -664h-81zM362 578h-2l-165 -362h331zM467 877h53q-9 -67 -49.5 -103t-108.5 -36t-108.5 36t-49.5 103h53q15 -83 105 -83t105 83z" />
    <glyph glyph-name="abreve" unicode="&#x103;" horiz-adv-x="595" 
d="M527 0h-57l-2 84h-2q-27 -44 -77 -69t-115 -25q-103 0 -169.5 68.5t-66.5 174.5t66.5 175t169.5 69q132 0 192 -94h2l2 84h57v-467zM284 50q79 0 129 51t50 132t-50 132.5t-129 51.5q-78 0 -128 -51.5t-50 -132.5t50 -132t128 -51zM387 688h53q-9 -67 -49.5 -103
t-108.5 -36t-108.5 36t-49.5 103h53q15 -83 105 -83t105 83z" />
    <glyph glyph-name="Aogonek" unicode="&#x104;" horiz-adv-x="724" 
d="M633 -153q38 0 69 28h3v-55q-32 -20 -80 -20q-43 0 -68 22.5t-25 63.5q0 76 85 128l-61 135h-391l-68 -149h-78l308 664h70l308 -664h-24q-97 -43 -97 -106q0 -21 13.5 -34t35.5 -13zM360 578l-165 -362h331l-164 362h-2z" />
    <glyph glyph-name="aogonek" unicode="&#x105;" horiz-adv-x="595" 
d="M527 0h-24q-97 -43 -97 -106q0 -21 13.5 -34t35.5 -13q38 0 69 28h3v-55q-32 -20 -80 -20q-43 0 -68 22.5t-25 63.5q0 90 115 144l-1 54h-2q-27 -44 -77 -69t-115 -25q-103 0 -169.5 68.5t-66.5 174.5t66.5 175t169.5 69q132 0 192 -94h2l2 84h57v-467zM284 50
q79 0 129 51t50 132t-50 132.5t-129 51.5q-78 0 -128 -51.5t-50 -132.5t50 -132t128 -51z" />
    <glyph glyph-name="Cacute" unicode="&#x106;" horiz-adv-x="658" 
d="M388 674q140 0 219 -69v-84h-4q-74 86 -212 86q-125 0 -201.5 -76t-76.5 -199t76.5 -199t201.5 -76q138 0 212 86h4v-84q-83 -69 -219 -69q-155 0 -252.5 95.5t-97.5 246.5t97.5 246.5t252.5 95.5zM325 729l118 159h76l-127 -159h-67z" />
    <glyph glyph-name="cacute" unicode="&#x107;" horiz-adv-x="492" 
d="M288 477q100 0 156 -50v-75h-3q-55 65 -147 65q-85 0 -136.5 -51t-51.5 -133q0 -81 51.5 -132t136.5 -51q94 0 147 65h3v-76q-53 -49 -156 -49q-112 0 -181 68t-69 175q0 108 69 176t181 68zM230 540l118 159h76l-127 -159h-67z" />
    <glyph glyph-name="Ccircumflex" unicode="&#x108;" horiz-adv-x="658" 
d="M388 674q140 0 219 -69v-84h-4q-74 86 -212 86q-125 0 -201.5 -76t-76.5 -199t76.5 -199t201.5 -76q138 0 212 86h4v-84q-83 -69 -219 -69q-155 0 -252.5 95.5t-97.5 246.5t97.5 246.5t252.5 95.5zM367 839l-90 -110h-66l123 159h65l123 -159h-66z" />
    <glyph glyph-name="ccircumflex" unicode="&#x109;" horiz-adv-x="492" 
d="M288 477q100 0 156 -50v-75h-3q-55 65 -147 65q-85 0 -136.5 -51t-51.5 -133q0 -81 51.5 -132t136.5 -51q94 0 147 65h3v-76q-53 -49 -156 -49q-112 0 -181 68t-69 175q0 108 69 176t181 68zM272 650l-90 -110h-66l123 159h65l123 -159h-66z" />
    <glyph glyph-name="Cdotaccent" unicode="&#x10a;" horiz-adv-x="658" 
d="M388 674q140 0 219 -69v-84h-4q-74 86 -212 86q-125 0 -201.5 -76t-76.5 -199t76.5 -199t201.5 -76q138 0 212 86h4v-84q-83 -69 -219 -69q-155 0 -252.5 95.5t-97.5 246.5t97.5 246.5t252.5 95.5zM367 851q21 0 34 -13.5t13 -33.5q0 -21 -13 -34t-34 -13t-34 13t-13 34
q0 20 13 33.5t34 13.5z" />
    <glyph glyph-name="cdotaccent" unicode="&#x10b;" horiz-adv-x="492" 
d="M288 477q100 0 156 -50v-75h-3q-55 65 -147 65q-85 0 -136.5 -51t-51.5 -133q0 -81 51.5 -132t136.5 -51q94 0 147 65h3v-76q-53 -49 -156 -49q-112 0 -181 68t-69 175q0 108 69 176t181 68zM272 662q21 0 34 -13.5t13 -33.5q0 -21 -13 -34t-34 -13t-34 13t-13 34
q0 20 13 33.5t34 13.5z" />
    <glyph glyph-name="Ccaron" unicode="&#x10c;" horiz-adv-x="658" 
d="M388 674q140 0 219 -69v-84h-4q-74 86 -212 86q-125 0 -201.5 -76t-76.5 -199t76.5 -199t201.5 -76q138 0 212 86h4v-84q-83 -69 -219 -69q-155 0 -252.5 95.5t-97.5 246.5t97.5 246.5t252.5 95.5zM399 729h-65l-123 159h66l90 -109l89 109h66z" />
    <glyph glyph-name="ccaron" unicode="&#x10d;" horiz-adv-x="492" 
d="M288 477q100 0 156 -50v-75h-3q-55 65 -147 65q-85 0 -136.5 -51t-51.5 -133q0 -81 51.5 -132t136.5 -51q94 0 147 65h3v-76q-53 -49 -156 -49q-112 0 -181 68t-69 175q0 108 69 176t181 68zM304 540h-65l-123 159h66l90 -109l89 109h66z" />
    <glyph glyph-name="Dcaron" unicode="&#x10e;" horiz-adv-x="726" 
d="M81 664h255q165 0 258.5 -88t93.5 -243q0 -156 -93.5 -244.5t-258.5 -88.5h-255v664zM155 67h178q132 0 206 70.5t74 195.5q0 124 -74 194t-206 70h-178v-530zM371 729h-65l-123 159h66l90 -109l89 109h66z" />
    <glyph glyph-name="dcaron" unicode="&#x10f;" horiz-adv-x="595" 
d="M527 0h-58l-2 84h-2q-58 -94 -191 -94q-103 0 -169.5 68.5t-66.5 174.5t66.5 175t169.5 69q124 0 184 -84h2v307h67v-700zM284 50q78 0 128 51t50 132t-50 132.5t-128 51.5t-128 -51.5t-50 -132.5t50 -132t128 -51zM570 515l32 185h68l-48 -185h-52z" />
    <glyph glyph-name="Dcroat" unicode="&#x110;" horiz-adv-x="740" 
d="M96 664h255q165 0 258.5 -88t93.5 -243q0 -156 -93.5 -244.5t-258.5 -88.5h-255v305h-75v64h75v295zM170 67h178q132 0 206 70.5t74 195.5q0 124 -74 194t-206 70h-178v-228h204v-64h-204v-238z" />
    <glyph glyph-name="dcroat" unicode="&#x111;" horiz-adv-x="606" 
d="M527 535v-535h-58l-2 84h-2q-58 -94 -191 -94q-103 0 -169.5 68.5t-66.5 174.5t66.5 175t169.5 69q124 0 184 -84h2v142h-197v57h197v108h67v-108h77v-57h-77zM284 50q78 0 128 51t50 132t-50 132.5t-128 51.5t-128 -51.5t-50 -132.5t50 -132t128 -51z" />
    <glyph glyph-name="Emacron" unicode="&#x112;" horiz-adv-x="612" 
d="M490 369v-67h-335v-235h407v-67h-481v664h481v-67h-407v-228h335zM167 774v55h308v-55h-308z" />
    <glyph glyph-name="emacron" unicode="&#x113;" horiz-adv-x="555" 
d="M518 213h-412q7 -75 61 -119t141 -44q108 0 176 67h3v-69q-66 -58 -181 -58q-122 0 -195 66.5t-73 176.5q0 107 68 175.5t175 68.5q108 0 172.5 -61.5t64.5 -163.5v-39zM282 417q-69 0 -117 -40t-59 -106h350q-7 67 -54 106.5t-120 39.5zM128 585v55h308v-55h-308z" />
    <glyph glyph-name="Ebreve" unicode="&#x114;" horiz-adv-x="612" 
d="M490 369v-67h-335v-235h407v-67h-481v664h481v-67h-407v-228h335zM426 877h53q-9 -67 -49.5 -103t-108.5 -36t-108.5 36t-49.5 103h53q15 -83 105 -83t105 83z" />
    <glyph glyph-name="ebreve" unicode="&#x115;" horiz-adv-x="555" 
d="M518 213h-412q7 -75 61 -119t141 -44q108 0 176 67h3v-69q-66 -58 -181 -58q-122 0 -195 66.5t-73 176.5q0 107 68 175.5t175 68.5q108 0 172.5 -61.5t64.5 -163.5v-39zM282 417q-69 0 -117 -40t-59 -106h350q-7 67 -54 106.5t-120 39.5zM387 688h53q-9 -67 -49.5 -103
t-108.5 -36t-108.5 36t-49.5 103h53q15 -83 105 -83t105 83z" />
    <glyph glyph-name="Edotaccent" unicode="&#x116;" horiz-adv-x="612" 
d="M490 369v-67h-335v-235h407v-67h-481v664h481v-67h-407v-228h335zM321 851q21 0 34 -13.5t13 -33.5q0 -21 -13 -34t-34 -13t-34 13t-13 34q0 20 13 33.5t34 13.5z" />
    <glyph glyph-name="edotaccent" unicode="&#x117;" horiz-adv-x="555" 
d="M518 213h-412q7 -75 61 -119t141 -44q108 0 176 67h3v-69q-66 -58 -181 -58q-122 0 -195 66.5t-73 176.5q0 107 68 175.5t175 68.5q108 0 172.5 -61.5t64.5 -163.5v-39zM282 417q-69 0 -117 -40t-59 -106h350q-7 67 -54 106.5t-120 39.5zM282 662q21 0 34 -13.5t13 -33.5
q0 -21 -13 -34t-34 -13t-34 13t-13 34q0 20 13 33.5t34 13.5z" />
    <glyph glyph-name="Eogonek" unicode="&#x118;" horiz-adv-x="612" 
d="M155 369h335v-67h-335v-235h407v-67h-24q-97 -43 -97 -106q0 -21 13.5 -34t35.5 -13q38 0 69 28h3v-55q-32 -20 -80 -20q-43 0 -68 23t-25 64q0 62 61 111v2h-369v664h481v-67h-407v-228z" />
    <glyph glyph-name="eogonek" unicode="&#x119;" horiz-adv-x="555" 
d="M518 213h-412q7 -75 61 -119t141 -44q108 0 176 67h3v-69q-17 -14 -56 -36q-90 -49 -90 -115q0 -21 14.5 -35.5t37.5 -14.5q37 0 68 28h3v-55q-32 -20 -80 -20q-43 0 -69 24t-26 66q0 52 44 99v2q-8 -1 -27 -1q-122 0 -195 66.5t-73 176.5q0 107 68 175.5t175 68.5
q108 0 172.5 -61.5t64.5 -163.5v-39zM106 271h350q-7 67 -54 106.5t-120 39.5q-69 0 -117 -40t-59 -106z" />
    <glyph glyph-name="Ecaron" unicode="&#x11a;" horiz-adv-x="612" 
d="M490 369v-67h-335v-235h407v-67h-481v664h481v-67h-407v-228h335zM353 729h-65l-123 159h66l90 -109l89 109h66z" />
    <glyph glyph-name="ecaron" unicode="&#x11b;" horiz-adv-x="555" 
d="M518 213h-412q7 -75 61 -119t141 -44q108 0 176 67h3v-69q-66 -58 -181 -58q-122 0 -195 66.5t-73 176.5q0 107 68 175.5t175 68.5q108 0 172.5 -61.5t64.5 -163.5v-39zM282 417q-69 0 -117 -40t-59 -106h350q-7 67 -54 106.5t-120 39.5zM314 540h-65l-123 159h66
l90 -109l89 109h66z" />
    <glyph glyph-name="Gcircumflex" unicode="&#x11c;" horiz-adv-x="706" 
d="M398 607q-129 0 -207 -75t-78 -200t78 -200t207 -75q100 0 171 37v172h-211v67h282v-274q-92 -69 -245 -69q-161 0 -259 93.5t-98 248.5t98 248.5t259 93.5q153 0 245 -69v-84h-4q-90 86 -238 86zM377 839l-90 -110h-66l123 159h65l123 -159h-66z" />
    <glyph glyph-name="gcircumflex" unicode="&#x11d;" horiz-adv-x="595" 
d="M527 467v-430q0 -112 -65.5 -174.5t-183.5 -62.5q-128 0 -197 66v71h3q63 -77 188 -77q90 0 139 46.5t49 133.5v36h-2q-59 -83 -184 -83q-103 0 -169.5 68t-66.5 174t66.5 174t169.5 68q133 0 191 -95h2l2 85h58zM284 53q78 0 128 50.5t50 131.5t-50 131.5t-128 50.5
t-128 -50.5t-50 -131.5t50 -131.5t128 -50.5zM282 650l-90 -110h-66l123 159h65l123 -159h-66z" />
    <glyph glyph-name="Gbreve" unicode="&#x11e;" horiz-adv-x="706" 
d="M398 607q-129 0 -207 -75t-78 -200t78 -200t207 -75q100 0 171 37v172h-211v67h282v-274q-92 -69 -245 -69q-161 0 -259 93.5t-98 248.5t98 248.5t259 93.5q153 0 245 -69v-84h-4q-90 86 -238 86zM482 877h53q-9 -67 -49.5 -103t-108.5 -36t-108.5 36t-49.5 103h53
q15 -83 105 -83t105 83z" />
    <glyph glyph-name="gbreve" unicode="&#x11f;" horiz-adv-x="595" 
d="M527 467v-430q0 -112 -65.5 -174.5t-183.5 -62.5q-128 0 -197 66v71h3q63 -77 188 -77q90 0 139 46.5t49 133.5v36h-2q-59 -83 -184 -83q-103 0 -169.5 68t-66.5 174t66.5 174t169.5 68q133 0 191 -95h2l2 85h58zM284 53q78 0 128 50.5t50 131.5t-50 131.5t-128 50.5
t-128 -50.5t-50 -131.5t50 -131.5t128 -50.5zM387 688h53q-9 -67 -49.5 -103t-108.5 -36t-108.5 36t-49.5 103h53q15 -83 105 -83t105 83z" />
    <glyph glyph-name="Gdotaccent" unicode="&#x120;" horiz-adv-x="706" 
d="M398 607q-129 0 -207 -75t-78 -200t78 -200t207 -75q100 0 171 37v172h-211v67h282v-274q-92 -69 -245 -69q-161 0 -259 93.5t-98 248.5t98 248.5t259 93.5q153 0 245 -69v-84h-4q-90 86 -238 86zM377 851q21 0 34 -13.5t13 -33.5q0 -21 -13 -34t-34 -13t-34 13t-13 34
q0 20 13 33.5t34 13.5z" />
    <glyph glyph-name="gdotaccent" unicode="&#x121;" horiz-adv-x="595" 
d="M527 467v-430q0 -112 -65.5 -174.5t-183.5 -62.5q-128 0 -197 66v71h3q63 -77 188 -77q90 0 139 46.5t49 133.5v36h-2q-59 -83 -184 -83q-103 0 -169.5 68t-66.5 174t66.5 174t169.5 68q133 0 191 -95h2l2 85h58zM284 53q78 0 128 50.5t50 131.5t-50 131.5t-128 50.5
t-128 -50.5t-50 -131.5t50 -131.5t128 -50.5zM282 662q21 0 34 -13.5t13 -33.5q0 -21 -13 -34t-34 -13t-34 13t-13 34q0 20 13 33.5t34 13.5z" />
    <glyph glyph-name="uni0122" unicode="&#x122;" horiz-adv-x="706" 
d="M398 607q-129 0 -207 -75t-78 -200t78 -200t207 -75q100 0 171 37v172h-211v67h282v-274q-92 -69 -245 -69q-161 0 -259 93.5t-98 248.5t98 248.5t259 93.5q153 0 245 -69v-84h-4q-90 86 -238 86zM237 -210l106 145h73l-115 -145h-64z" />
    <glyph glyph-name="uni0123" unicode="&#x123;" horiz-adv-x="596" 
d="M428 699l-117 -159h-73l126 159h64zM527 467v-430q0 -112 -65.5 -174.5t-183.5 -62.5q-128 0 -197 66v71h3q63 -77 188 -77q90 0 139 46.5t49 133.5v36h-2q-59 -83 -184 -83q-103 0 -169.5 68t-66.5 174t66.5 174t169.5 68q133 0 191 -95h2l2 85h58zM284 53
q78 0 128 50.5t50 131.5t-50 131.5t-128 50.5t-128 -50.5t-50 -131.5t50 -131.5t128 -50.5z" />
    <glyph glyph-name="Hcircumflex" unicode="&#x124;" horiz-adv-x="736" 
d="M655 0h-74v303h-426v-303h-74v664h74v-294h426v294h74v-664zM368 839l-90 -110h-66l123 159h65l123 -159h-66z" />
    <glyph glyph-name="hcircumflex" unicode="&#x125;" horiz-adv-x="557" 
d="M305 477q91 0 143.5 -55.5t52.5 -152.5v-269h-67v262q0 73 -38 114t-105 41q-72 0 -114 -47.5t-42 -129.5v-240h-67v700h67v-304h2q53 81 168 81zM102 870l-90 -110h-66l123 159h65l123 -159h-66z" />
    <glyph glyph-name="Hbar" unicode="&#x126;" horiz-adv-x="739" 
d="M656 0h-74v303h-426v-303h-74v473h-59v60h59v131h74v-131h426v131h74v-131h59v-60h-59v-473zM156 370h426v103h-426v-103z" />
    <glyph glyph-name="hbar" unicode="&#x127;" horiz-adv-x="561" 
d="M309 477q91 0 143.5 -55.5t52.5 -152.5v-269h-67v262q0 73 -38 114t-105 41q-72 0 -114 -47.5t-42 -129.5v-240h-67v535h-71v57h71v108h67v-108h179v-57h-179v-139h2q53 81 168 81z" />
    <glyph glyph-name="Itilde" unicode="&#x128;" horiz-adv-x="236" 
d="M81 0v664h74v-664h-74zM273 864v-61q-29 -54 -86 -54q-34 0 -79 30q-35 24 -60 24q-50 0 -80 -60h-3v62q29 54 86 54q33 0 77 -29q37 -25 62 -25q50 0 80 59h3z" />
    <glyph glyph-name="itilde" unicode="&#x129;" horiz-adv-x="204" 
d="M68 0v467h67v-467h-67zM256 675v-61q-29 -54 -86 -54q-34 0 -79 30q-35 24 -60 24q-50 0 -80 -60h-3v62q29 54 86 54q34 0 77 -29q37 -25 62 -25q50 0 80 59h3z" />
    <glyph glyph-name="Imacron" unicode="&#x12a;" horiz-adv-x="236" 
d="M81 0v664h74v-664h-74zM-35 774v55h308v-55h-308z" />
    <glyph glyph-name="imacron" unicode="&#x12b;" horiz-adv-x="204" 
d="M68 0v467h67v-467h-67zM-52 585v55h308v-55h-308z" />
    <glyph glyph-name="Ibreve" unicode="&#x12c;" horiz-adv-x="236" 
d="M81 0v664h74v-664h-74zM224 877h53q-9 -67 -49.5 -103t-108.5 -36t-108.5 36t-49.5 103h53q15 -83 105 -83t105 83z" />
    <glyph glyph-name="ibreve" unicode="&#x12d;" horiz-adv-x="204" 
d="M68 0v467h67v-467h-67zM207 688h53q-9 -67 -49.5 -103t-108.5 -36t-108.5 36t-49.5 103h53q15 -83 105 -83t105 83z" />
    <glyph glyph-name="Iogonek" unicode="&#x12e;" horiz-adv-x="236" 
d="M179 -125v-55q-31 -20 -79 -20q-43 0 -68 23t-25 65q0 66 74 121v655h74v-664h-13q-83 -51 -83 -106q0 -21 13.5 -34t35.5 -13q37 0 68 28h3z" />
    <glyph glyph-name="iogonek" unicode="&#x12f;" horiz-adv-x="204" 
d="M156 -125v-55q-31 -20 -79 -20q-43 0 -68 23t-25 65q0 71 84 128v451h67v-467h-16q-83 -51 -83 -106q0 -21 13.5 -34t35.5 -13q37 0 68 28h3zM102 661q20 0 33 -13.5t13 -32.5q0 -20 -13 -33t-33 -13t-33 13t-13 33t13 33t33 13z" />
    <glyph glyph-name="Idotaccent" unicode="&#x130;" horiz-adv-x="236" 
d="M81 0v664h74v-664h-74zM119 851q21 0 34 -13.5t13 -33.5q0 -21 -13 -34t-34 -13t-34 13t-13 34q0 20 13 33.5t34 13.5z" />
    <glyph glyph-name="dotlessi" unicode="&#x131;" horiz-adv-x="204" 
d="M68 0v467h67v-467h-67z" />
    <glyph glyph-name="IJ" unicode="&#x132;" horiz-adv-x="742" 
d="M81 0v664h74v-664h-74zM677 664v-446q0 -110 -58.5 -169t-167.5 -59q-117 0 -190 67v81h4q64 -81 179 -81q77 0 118 42.5t41 124.5v440h74z" />
    <glyph glyph-name="ij" unicode="&#x133;" horiz-adv-x="408" 
d="M102 661q20 0 33 -13.5t13 -32.5q0 -20 -13 -33t-33 -13t-33 13t-13 33t13 33t33 13zM68 0v467h67v-467h-67zM306 661q20 0 33 -13.5t13 -32.5q0 -20 -13 -33t-33 -13t-33 13t-13 33t13 33t33 13zM339 467v-542q0 -125 -107 -125q-31 0 -55 10v62h3q17 -12 42 -12
q28 0 39 15.5t11 53.5v538h67z" />
    <glyph glyph-name="Jcircumflex" unicode="&#x134;" horiz-adv-x="506" 
d="M441 664v-446q0 -110 -58.5 -169t-167.5 -59q-117 0 -190 67v81h4q64 -81 179 -81q77 0 118 42.5t41 124.5v440h74zM404 839l-90 -110h-66l123 159h65l123 -159h-66z" />
    <glyph glyph-name="jcircumflex" unicode="&#x135;" horiz-adv-x="204" 
d="M135 467v-542q0 -125 -107 -125q-31 0 -55 10v62h3q17 -12 42 -12q28 0 39 15.5t11 53.5v538h67zM102 650l-90 -110h-66l123 159h65l123 -159h-66z" />
    <glyph glyph-name="uni0136" unicode="&#x136;" horiz-adv-x="625" 
d="M155 314v-314h-74v664h74v-309l339 309h102l-368 -328l378 -336h-105zM184 -210l106 145h73l-115 -145h-64z" />
    <glyph glyph-name="uni0137" unicode="&#x137;" horiz-adv-x="480" 
d="M135 215v-215h-67v700h67v-440l227 207h93l-255 -228l265 -239h-97zM112 -210l106 145h73l-115 -145h-64z" />
    <glyph glyph-name="kgreenlandic" unicode="&#x138;" horiz-adv-x="480" 
d="M135 215v-215h-67v467h67v-207l227 207h93l-255 -228l265 -239h-97z" />
    <glyph glyph-name="Lacute" unicode="&#x139;" horiz-adv-x="574" 
d="M549 0h-468v664h74v-597h394v-67zM77 729l118 159h76l-127 -159h-67z" />
    <glyph glyph-name="lacute" unicode="&#x13a;" horiz-adv-x="203" 
d="M135 700v-700h-67v700h67zM60 760l118 159h76l-127 -159h-67z" />
    <glyph glyph-name="uni013B" unicode="&#x13b;" horiz-adv-x="574" 
d="M549 0h-468v664h74v-597h394v-67zM169 -210l106 145h73l-115 -145h-64z" />
    <glyph glyph-name="uni013C" unicode="&#x13c;" horiz-adv-x="203" 
d="M135 700v-700h-67v700h67zM-38 -210l106 145h73l-115 -145h-64z" />
    <glyph glyph-name="Lcaron" unicode="&#x13d;" horiz-adv-x="574" 
d="M549 0h-468v664h74v-597h394v-67zM244 515l32 185h68l-48 -185h-52z" />
    <glyph glyph-name="lcaron" unicode="&#x13e;" horiz-adv-x="236" 
d="M135 700v-700h-67v700h67zM173 515l32 185h68l-48 -185h-52z" />
    <glyph glyph-name="Ldot" unicode="&#x13f;" horiz-adv-x="574" 
d="M549 0h-468v664h74v-597h394v-67zM403 379q21 0 34 -13.5t13 -33.5q0 -21 -13 -34t-34 -13t-34 13t-13 34q0 20 13 33.5t34 13.5z" />
    <glyph glyph-name="ldot" unicode="&#x140;" horiz-adv-x="241" 
d="M135 700v-700h-67v700h67zM222 379q21 0 34 -13.5t13 -33.5q0 -21 -13 -34t-34 -13t-34 13t-13 34q0 20 13 33.5t34 13.5z" />
    <glyph glyph-name="Lslash" unicode="&#x141;" horiz-adv-x="588" 
d="M563 0h-468v215l-75 -44v72l75 44v377h74v-333l275 163v-73l-275 -162v-192h394v-67z" />
    <glyph glyph-name="lslash" unicode="&#x142;" horiz-adv-x="228" 
d="M140 337v-337h-67v291l-71 -48v69l71 49v339h67v-293l86 59v-70z" />
    <glyph glyph-name="Nacute" unicode="&#x143;" horiz-adv-x="739" 
d="M658 0h-91l-412 590h-2v-590h-72v664h105l398 -566h2v566h72v-664zM328 729l118 159h76l-127 -159h-67z" />
    <glyph glyph-name="nacute" unicode="&#x144;" horiz-adv-x="557" 
d="M305 477q91 0 143.5 -55.5t52.5 -152.5v-269h-67v262q0 73 -38 114t-105 41q-72 0 -114 -47.5t-42 -129.5v-240h-67v467h58l2 -83h2q51 93 175 93zM237 540l118 159h76l-127 -159h-67z" />
    <glyph glyph-name="uni0145" unicode="&#x145;" horiz-adv-x="739" 
d="M658 0h-91l-412 590h-2v-590h-72v664h105l398 -566h2v566h72v-664zM230 -210l106 145h73l-115 -145h-64z" />
    <glyph glyph-name="uni0146" unicode="&#x146;" horiz-adv-x="557" 
d="M305 477q91 0 143.5 -55.5t52.5 -152.5v-269h-67v262q0 73 -38 114t-105 41q-72 0 -114 -47.5t-42 -129.5v-240h-67v467h58l2 -83h2q51 93 175 93zM144 -210l106 145h73l-115 -145h-64z" />
    <glyph glyph-name="Ncaron" unicode="&#x147;" horiz-adv-x="739" 
d="M658 0h-91l-412 590h-2v-590h-72v664h105l398 -566h2v566h72v-664zM402 729h-65l-123 159h66l90 -109l89 109h66z" />
    <glyph glyph-name="ncaron" unicode="&#x148;" horiz-adv-x="557" 
d="M305 477q91 0 143.5 -55.5t52.5 -152.5v-269h-67v262q0 73 -38 114t-105 41q-72 0 -114 -47.5t-42 -129.5v-240h-67v467h58l2 -83h2q51 93 175 93zM311 540h-65l-123 159h66l90 -109l89 109h66z" />
    <glyph glyph-name="napostrophe" unicode="&#x149;" horiz-adv-x="557" 
d="M25 700h62q0 -106 -32 -167h-53q24 60 24 137q0 17 -1 30zM305 477q91 0 143.5 -55.5t52.5 -152.5v-269h-67v262q0 73 -38 114t-105 41q-72 0 -114 -47.5t-42 -129.5v-240h-67v467h58l2 -83h2q51 93 175 93z" />
    <glyph glyph-name="Eng" unicode="&#x14a;" horiz-adv-x="739" 
d="M658 664v-739q0 -125 -109 -125q-34 0 -58 10v69h3q17 -12 42 -12q27 0 38.5 14.5t11.5 47.5v75l-431 589h-2v-593h-72v664h106l397 -542h2v542h72z" />
    <glyph glyph-name="eng" unicode="&#x14b;" horiz-adv-x="557" 
d="M305 477q91 0 143.5 -55.5t52.5 -152.5v-344q0 -125 -107 -125q-32 0 -56 10v62h3q17 -12 42 -12q28 0 39.5 15.5t11.5 53.5v333q0 73 -38 114t-105 41q-72 0 -114 -47.5t-42 -129.5v-240h-67v467h58l2 -83h2q51 93 175 93z" />
    <glyph glyph-name="Omacron" unicode="&#x14c;" horiz-adv-x="765" 
d="M382 674q151 0 248 -96t97 -246t-97 -246t-248 -96t-247.5 96t-96.5 246t96.5 246t247.5 96zM382 607q-119 0 -194 -76.5t-75 -198.5t75 -198.5t194 -76.5t194.5 77t75.5 198t-75.5 198t-194.5 77zM228 774v55h308v-55h-308z" />
    <glyph glyph-name="omacron" unicode="&#x14d;" horiz-adv-x="569" 
d="M284 477q108 0 177.5 -68.5t69.5 -175.5q0 -106 -69.5 -174.5t-177.5 -68.5t-177 68t-69 175t69 175.5t177 68.5zM284 417q-78 0 -128 -51.5t-50 -132.5t50 -132t128 -51q79 0 129 51t50 132t-50 132.5t-129 51.5zM130 585v55h308v-55h-308z" />
    <glyph glyph-name="Obreve" unicode="&#x14e;" horiz-adv-x="765" 
d="M382 674q151 0 248 -96t97 -246t-97 -246t-248 -96t-247.5 96t-96.5 246t96.5 246t247.5 96zM382 607q-119 0 -194 -76.5t-75 -198.5t75 -198.5t194 -76.5t194.5 77t75.5 198t-75.5 198t-194.5 77zM487 877h53q-9 -67 -49.5 -103t-108.5 -36t-108.5 36t-49.5 103h53
q15 -83 105 -83t105 83z" />
    <glyph glyph-name="obreve" unicode="&#x14f;" horiz-adv-x="569" 
d="M284 477q108 0 177.5 -68.5t69.5 -175.5q0 -106 -69.5 -174.5t-177.5 -68.5t-177 68t-69 175t69 175.5t177 68.5zM284 417q-78 0 -128 -51.5t-50 -132.5t50 -132t128 -51q79 0 129 51t50 132t-50 132.5t-129 51.5zM389 688h53q-9 -67 -49.5 -103t-108.5 -36t-108.5 36
t-49.5 103h53q15 -83 105 -83t105 83z" />
    <glyph glyph-name="Ohungarumlaut" unicode="&#x150;" horiz-adv-x="765" 
d="M382 674q151 0 248 -96t97 -246t-97 -246t-248 -96t-247.5 96t-96.5 246t96.5 246t247.5 96zM382 607q-119 0 -194 -76.5t-75 -198.5t75 -198.5t194 -76.5t194.5 77t75.5 198t-75.5 198t-194.5 77zM253 729l117 159h73l-126 -159h-64zM428 729l116 159h74l-127 -159h-63z
" />
    <glyph glyph-name="ohungarumlaut" unicode="&#x151;" horiz-adv-x="569" 
d="M284 477q108 0 177.5 -68.5t69.5 -175.5q0 -106 -69.5 -174.5t-177.5 -68.5t-177 68t-69 175t69 175.5t177 68.5zM284 417q-78 0 -128 -51.5t-50 -132.5t50 -132t128 -51q79 0 129 51t50 132t-50 132.5t-129 51.5zM155 540l117 159h73l-126 -159h-64zM330 540l116 159h74
l-127 -159h-63z" />
    <glyph glyph-name="OE" unicode="&#x152;" horiz-adv-x="1102" 
d="M980 369v-67h-335v-235h407v-67h-662q-165 0 -258.5 88.5t-93.5 244.5q0 155 93.5 243t258.5 88h662v-67h-407v-228h335zM570 597h-177q-132 0 -206 -70t-74 -194q0 -125 74 -195.5t206 -70.5h177v530z" />
    <glyph glyph-name="oe" unicode="&#x153;" horiz-adv-x="980" 
d="M943 213h-412q7 -75 61.5 -119t141.5 -44q108 0 176 67h3v-69q-67 -58 -178 -58q-179 0 -238 126h-2q-27 -60 -83.5 -93t-132.5 -33q-106 0 -173.5 68t-67.5 175t67.5 175.5t173.5 68.5q76 0 132.5 -33.5t83.5 -93.5h2q28 60 84 93.5t132 33.5q106 0 168 -60.5t62 -164.5
v-39zM284 50q79 0 129 51t50 132t-50 132.5t-129 51.5q-78 0 -128 -51.5t-50 -132.5t50 -132t128 -51zM531 271h350q-7 67 -53.5 106.5t-119.5 39.5q-69 0 -117.5 -40t-59.5 -106z" />
    <glyph glyph-name="Racute" unicode="&#x154;" horiz-adv-x="657" 
d="M155 263v-263h-74v664h289q232 0 232 -201q0 -166 -163 -195l182 -268h-88l-171 263h-207zM155 330h212q160 0 160 133q0 134 -160 134h-212v-267zM277 729l118 159h76l-127 -159h-67z" />
    <glyph glyph-name="racute" unicode="&#x155;" horiz-adv-x="363" 
d="M280 477q41 0 72 -18v-68h-3q-31 22 -74 22q-140 0 -140 -195v-218h-67v467h58l2 -84q42 94 152 94zM146 540l118 159h76l-127 -159h-67z" />
    <glyph glyph-name="uni0156" unicode="&#x156;" horiz-adv-x="657" 
d="M155 263v-263h-74v664h289q232 0 232 -201q0 -166 -163 -195l182 -268h-88l-171 263h-207zM155 330h212q160 0 160 133q0 134 -160 134h-212v-267zM200 -210l106 145h73l-115 -145h-64z" />
    <glyph glyph-name="uni0157" unicode="&#x157;" horiz-adv-x="363" 
d="M280 477q41 0 72 -18v-68h-3q-31 22 -74 22q-140 0 -140 -195v-218h-67v467h58l2 -84q42 94 152 94zM-38 -210l106 145h73l-115 -145h-64z" />
    <glyph glyph-name="Rcaron" unicode="&#x158;" horiz-adv-x="657" 
d="M155 263v-263h-74v664h289q232 0 232 -201q0 -166 -163 -195l182 -268h-88l-171 263h-207zM155 330h212q160 0 160 133q0 134 -160 134h-212v-267zM351 729h-65l-123 159h66l90 -109l89 109h66z" />
    <glyph glyph-name="rcaron" unicode="&#x159;" horiz-adv-x="363" 
d="M280 477q41 0 72 -18v-68h-3q-31 22 -74 22q-140 0 -140 -195v-218h-67v467h58l2 -84q42 94 152 94zM220 540h-65l-123 159h66l90 -109l89 109h66z" />
    <glyph glyph-name="Sacute" unicode="&#x15a;" horiz-adv-x="577" 
d="M292 674q146 0 215 -59v-83h-4q-69 75 -212 75q-76 0 -123 -34.5t-47 -90.5q0 -50 38.5 -74t138.5 -34q134 -13 188.5 -57t54.5 -134t-66.5 -141.5t-182.5 -51.5q-167 0 -251 72v82h4q90 -87 247 -87q82 0 128.5 33t46.5 92q0 54 -40.5 80.5t-145.5 37.5q-130 13 -182 54
t-52 125q0 88 67 141.5t178 53.5zM246 729l118 159h76l-127 -159h-67z" />
    <glyph glyph-name="sacute" unicode="&#x15b;" horiz-adv-x="430" 
d="M218 477q102 0 154 -38v-72h-3q-47 50 -149 50q-49 0 -80.5 -23.5t-31.5 -60.5q0 -31 25.5 -45t90.5 -18q96 -6 135.5 -37.5t39.5 -99.5q0 -66 -49 -104.5t-132 -38.5q-118 0 -178 51v75h3q57 -66 173 -66q52 0 84 22.5t32 60.5q0 35 -26.5 51t-96.5 21q-93 7 -130 36
t-37 91q0 65 48.5 105t127.5 40zM172 540l118 159h76l-127 -159h-67z" />
    <glyph glyph-name="Scircumflex" unicode="&#x15c;" horiz-adv-x="577" 
d="M292 674q146 0 215 -59v-83h-4q-69 75 -212 75q-76 0 -123 -34.5t-47 -90.5q0 -50 38.5 -74t138.5 -34q134 -13 188.5 -57t54.5 -134t-66.5 -141.5t-182.5 -51.5q-167 0 -251 72v82h4q90 -87 247 -87q82 0 128.5 33t46.5 92q0 54 -40.5 80.5t-145.5 37.5q-130 13 -182 54
t-52 125q0 88 67 141.5t178 53.5zM288 839l-90 -110h-66l123 159h65l123 -159h-66z" />
    <glyph glyph-name="scircumflex" unicode="&#x15d;" horiz-adv-x="430" 
d="M218 477q102 0 154 -38v-72h-3q-47 50 -149 50q-49 0 -80.5 -23.5t-31.5 -60.5q0 -31 25.5 -45t90.5 -18q96 -6 135.5 -37.5t39.5 -99.5q0 -66 -49 -104.5t-132 -38.5q-118 0 -178 51v75h3q57 -66 173 -66q52 0 84 22.5t32 60.5q0 35 -26.5 51t-96.5 21q-93 7 -130 36
t-37 91q0 65 48.5 105t127.5 40zM214 650l-90 -110h-66l123 159h65l123 -159h-66z" />
    <glyph glyph-name="Scedilla" unicode="&#x15e;" horiz-adv-x="577" 
d="M41 62v82h4q90 -87 247 -87q82 0 128.5 33t46.5 92q0 54 -40.5 80.5t-145.5 37.5q-130 13 -182 54t-52 125q0 88 67 141.5t178 53.5q146 0 215 -59v-83h-4q-69 75 -212 75q-76 0 -123 -34.5t-47 -90.5q0 -50 38.5 -74t138.5 -34q134 -13 188 -57t55 -134
q0 -85 -59 -135.5t-163 -56.5l-25 -47v-2h9q40 0 62 -18.5t22 -49.5q0 -74 -102 -74q-52 0 -84 16v51h3q28 -22 80 -22q51 0 51 32q0 29 -54 29q-20 0 -45 -9v15l41 78q-156 3 -236 72z" />
    <glyph glyph-name="scedilla" unicode="&#x15f;" horiz-adv-x="430" 
d="M40 41v75h3q57 -66 173 -66q52 0 84 22.5t32 60.5q0 35 -26.5 51t-96.5 21q-93 7 -130 36t-37 91q0 65 48.5 105t127.5 40q102 0 154 -38v-72h-3q-47 50 -149 50q-49 0 -80.5 -23.5t-31.5 -60.5q0 -31 25.5 -45t90.5 -18q96 -6 135.5 -37.5t39.5 -99.5q0 -60 -40 -97
t-111 -45l-25 -47v-2h9q40 0 62 -18.5t22 -49.5q0 -74 -102 -74q-52 0 -84 16v51h3q28 -22 80 -22q51 0 51 32q0 29 -54 29q-20 0 -45 -9v15l41 78q-109 3 -166 51z" />
    <glyph glyph-name="Scaron" unicode="&#x160;" horiz-adv-x="577" 
d="M292 674q146 0 215 -59v-83h-4q-69 75 -212 75q-76 0 -123 -34.5t-47 -90.5q0 -50 38.5 -74t138.5 -34q134 -13 188.5 -57t54.5 -134t-66.5 -141.5t-182.5 -51.5q-167 0 -251 72v82h4q90 -87 247 -87q82 0 128.5 33t46.5 92q0 54 -40.5 80.5t-145.5 37.5q-130 13 -182 54
t-52 125q0 88 67 141.5t178 53.5zM320 729h-65l-123 159h66l90 -109l89 109h66z" />
    <glyph glyph-name="scaron" unicode="&#x161;" horiz-adv-x="430" 
d="M218 477q102 0 154 -38v-72h-3q-47 50 -149 50q-49 0 -80.5 -23.5t-31.5 -60.5q0 -31 25.5 -45t90.5 -18q96 -6 135.5 -37.5t39.5 -99.5q0 -66 -49 -104.5t-132 -38.5q-118 0 -178 51v75h3q57 -66 173 -66q52 0 84 22.5t32 60.5q0 35 -26.5 51t-96.5 21q-93 7 -130 36
t-37 91q0 65 48.5 105t127.5 40zM246 540h-65l-123 159h66l90 -109l89 109h66z" />
    <glyph glyph-name="uni0162" unicode="&#x162;" horiz-adv-x="578" 
d="M287 -58h11q40 0 62 -18.5t22 -49.5q0 -74 -102 -74q-52 0 -84 16v51h3q28 -22 80 -22q51 0 51 32q0 29 -54 29q-20 0 -45 -9v15l38 88h-16v597h-228v67h528v-67h-226v-597h-16l-24 -56v-2z" />
    <glyph glyph-name="uni0163" unicode="&#x163;" horiz-adv-x="363" 
d="M196 -58h9q40 0 62 -18.5t22 -49.5q0 -74 -102 -74q-52 0 -84 16v51h3q28 -22 80 -22q51 0 51 32q0 29 -54 29q-20 0 -45 -9v15l47 88q-84 31 -84 145v264h-90v58h92l11 125h54v-125h157v-58h-157v-262q0 -46 23 -71.5t63 -25.5q46 0 70 27h3v-69q-30 -18 -81 -18
q-17 0 -25 1l-25 -47v-2z" />
    <glyph glyph-name="Tcaron" unicode="&#x164;" horiz-adv-x="578" 
d="M327 597v-597h-74v597h-228v67h528v-67h-226zM321 729h-65l-123 159h66l90 -109l89 109h66z" />
    <glyph glyph-name="tcaron" unicode="&#x165;" horiz-adv-x="363" 
d="M327 77v-69q-30 -18 -81 -18q-70 0 -107.5 40.5t-37.5 114.5v264h-90v58h92l11 125h54v-125h157v-58h-157v-262q0 -46 23 -71.5t63 -25.5q46 0 70 27h3zM251 515l32 185h68l-48 -185h-52z" />
    <glyph glyph-name="Tbar" unicode="&#x166;" horiz-adv-x="578" 
d="M463 379v-60h-136v-319h-74v319h-138v60h138v218h-228v67h528v-67h-226v-218h136z" />
    <glyph glyph-name="tbar" unicode="&#x167;" horiz-adv-x="374" 
d="M328 77v-69q-30 -18 -81 -18q-70 0 -107.5 40.5t-37.5 114.5v95h-79v57h79v112h-90v58h92l11 125h54v-125h157v-58h-157v-112h137v-57h-137v-93q0 -46 23 -71.5t63 -25.5q46 0 70 27h3z" />
    <glyph glyph-name="Utilde" unicode="&#x168;" horiz-adv-x="695" 
d="M630 664v-385q0 -142 -72.5 -215.5t-210.5 -73.5t-210 73.5t-72 215.5v385h74v-381q0 -110 54 -168t155 -58q102 0 156 58t54 168v381h72zM501 864v-61q-29 -54 -86 -54q-34 0 -79 30q-35 24 -60 24q-50 0 -80 -60h-3v62q29 54 86 54q33 0 77 -29q37 -25 62 -25
q50 0 80 59h3z" />
    <glyph glyph-name="utilde" unicode="&#x169;" horiz-adv-x="557" 
d="M489 0h-57l-3 84h-2q-52 -94 -175 -94q-91 0 -143 55t-52 152v270h67v-262q0 -73 38 -114t104 -41q72 0 114 47.5t42 129.5v240h67v-467zM426 675v-61q-29 -54 -86 -54q-34 0 -79 30q-35 24 -60 24q-50 0 -80 -60h-3v62q29 54 86 54q33 0 77 -29q37 -25 62 -25
q50 0 80 59h3z" />
    <glyph glyph-name="Umacron" unicode="&#x16a;" horiz-adv-x="695" 
d="M630 664v-385q0 -142 -72.5 -215.5t-210.5 -73.5t-210 73.5t-72 215.5v385h74v-381q0 -110 54 -168t155 -58q102 0 156 58t54 168v381h72zM193 774v55h308v-55h-308z" />
    <glyph glyph-name="umacron" unicode="&#x16b;" horiz-adv-x="557" 
d="M489 0h-57l-3 84h-2q-52 -94 -175 -94q-91 0 -143 55t-52 152v270h67v-262q0 -73 38 -114t104 -41q72 0 114 47.5t42 129.5v240h67v-467zM118 585v55h308v-55h-308z" />
    <glyph glyph-name="Ubreve" unicode="&#x16c;" horiz-adv-x="695" 
d="M630 664v-385q0 -142 -72.5 -215.5t-210.5 -73.5t-210 73.5t-72 215.5v385h74v-381q0 -110 54 -168t155 -58q102 0 156 58t54 168v381h72zM452 877h53q-9 -67 -49.5 -103t-108.5 -36t-108.5 36t-49.5 103h53q15 -83 105 -83t105 83z" />
    <glyph glyph-name="ubreve" unicode="&#x16d;" horiz-adv-x="557" 
d="M489 0h-57l-3 84h-2q-52 -94 -175 -94q-91 0 -143 55t-52 152v270h67v-262q0 -73 38 -114t104 -41q72 0 114 47.5t42 129.5v240h67v-467zM377 688h53q-9 -67 -49.5 -103t-108.5 -36t-108.5 36t-49.5 103h53q15 -83 105 -83t105 83z" />
    <glyph glyph-name="Uring" unicode="&#x16e;" horiz-adv-x="695" 
d="M630 664v-385q0 -142 -72.5 -215.5t-210.5 -73.5t-210 73.5t-72 215.5v385h74v-381q0 -110 54 -168t155 -58q102 0 156 58t54 168v381h72zM347 901q40 0 65.5 -25.5t25.5 -65.5t-25.5 -65.5t-65.5 -25.5t-65.5 25.5t-25.5 65.5t25.5 65.5t65.5 25.5zM347 853
q-19 0 -31 -12t-12 -31t12 -31t31 -12t31 12t12 31t-12 31t-31 12z" />
    <glyph glyph-name="uring" unicode="&#x16f;" horiz-adv-x="557" 
d="M489 0h-57l-3 84h-2q-52 -94 -175 -94q-91 0 -143 55t-52 152v270h67v-262q0 -73 38 -114t104 -41q72 0 114 47.5t42 129.5v240h67v-467zM272 712q40 0 65.5 -25.5t25.5 -65.5t-25.5 -65.5t-65.5 -25.5t-65.5 25.5t-25.5 65.5t25.5 65.5t65.5 25.5zM272 664
q-19 0 -31 -12t-12 -31t12 -31t31 -12t31 12t12 31t-12 31t-31 12z" />
    <glyph glyph-name="Uhungarumlaut" unicode="&#x170;" horiz-adv-x="695" 
d="M630 664v-385q0 -142 -72.5 -215.5t-210.5 -73.5t-210 73.5t-72 215.5v385h74v-381q0 -110 54 -168t155 -58q102 0 156 58t54 168v381h72zM218 729l117 159h73l-126 -159h-64zM393 729l116 159h74l-127 -159h-63z" />
    <glyph glyph-name="uhungarumlaut" unicode="&#x171;" horiz-adv-x="557" 
d="M489 0h-57l-3 84h-2q-52 -94 -175 -94q-91 0 -143 55t-52 152v270h67v-262q0 -73 38 -114t104 -41q72 0 114 47.5t42 129.5v240h67v-467zM143 540l117 159h73l-126 -159h-64zM318 540l116 159h74l-127 -159h-63z" />
    <glyph glyph-name="Uogonek" unicode="&#x172;" horiz-adv-x="695" 
d="M630 664v-385q0 -187 -129 -258q-98 -55 -98 -124q0 -21 15 -35.5t37 -14.5q37 0 68 28h3v-55q-31 -20 -79 -20q-43 0 -69 24t-26 65q0 59 43 101v2q-30 -2 -48 -2q-138 0 -210 73.5t-72 215.5v385h74v-381q0 -110 54 -168t155 -58q102 0 156 58t54 168v381h72z" />
    <glyph glyph-name="uogonek" unicode="&#x173;" horiz-adv-x="557" 
d="M489 0h-24q-97 -43 -97 -106q0 -21 13.5 -34t35.5 -13q38 0 69 28h3v-55q-32 -20 -80 -20q-43 0 -68 22.5t-25 63.5q0 90 115 144l-2 54h-2q-52 -94 -175 -94q-91 0 -143 55t-52 152v270h67v-262q0 -73 38 -114t104 -41q72 0 114 47.5t42 129.5v240h67v-467z" />
    <glyph glyph-name="Wcircumflex" unicode="&#x174;" horiz-adv-x="1003" 
d="M758 0h-73l-183 539h-2l-183 -539h-73l-221 664h78l180 -551h2l186 551h65l187 -551h2l181 551h76zM502 839l-90 -110h-66l123 159h65l123 -159h-66z" />
    <glyph glyph-name="wcircumflex" unicode="&#x175;" horiz-adv-x="753" 
d="M576 0h-66l-131 360h-2l-132 -360h-68l-168 467h71l130 -380h2l139 380h55l137 -377h2l131 377h68zM376 650l-90 -110h-66l123 159h65l123 -159h-66z" />
    <glyph glyph-name="Ycircumflex" unicode="&#x176;" horiz-adv-x="664" 
d="M370 0h-75v295l-285 369h91l234 -307l230 307h89l-284 -369v-295zM332 839l-90 -110h-66l123 159h65l123 -159h-66z" />
    <glyph glyph-name="ycircumflex" unicode="&#x177;" horiz-adv-x="493" 
d="M183 -190h-69l97 208l-202 449h72l166 -380h2l166 380h69zM246 650l-90 -110h-66l123 159h65l123 -159h-66z" />
    <glyph glyph-name="Ydieresis" unicode="&#x178;" horiz-adv-x="664" 
d="M370 0h-75v295l-285 369h91l234 -307l230 307h89l-284 -369v-295zM235 848q20 0 32.5 -12t12.5 -32t-12.5 -32.5t-32.5 -12.5q-19 0 -31 12.5t-12 32.5t12 32t31 12zM429 848q19 0 31 -12t12 -32t-12 -32.5t-31 -12.5q-20 0 -32.5 12.5t-12.5 32.5t12.5 32t32.5 12z" />
    <glyph glyph-name="Zacute" unicode="&#x179;" horiz-adv-x="635" 
d="M48 0v63l436 534h-416v67h514v-63l-435 -534h440v-67h-539zM280 729l118 159h76l-127 -159h-67z" />
    <glyph glyph-name="zacute" unicode="&#x17a;" horiz-adv-x="488" 
d="M42 0v54l310 355h-295v58h384v-54l-310 -355h315v-58h-404zM205 540l118 159h76l-127 -159h-67z" />
    <glyph glyph-name="Zdotaccent" unicode="&#x17b;" horiz-adv-x="635" 
d="M48 0v63l436 534h-416v67h514v-63l-435 -534h440v-67h-539zM322 851q21 0 34 -13.5t13 -33.5q0 -21 -13 -34t-34 -13t-34 13t-13 34q0 20 13 33.5t34 13.5z" />
    <glyph glyph-name="zdotaccent" unicode="&#x17c;" horiz-adv-x="488" 
d="M42 0v54l310 355h-295v58h384v-54l-310 -355h315v-58h-404zM247 662q21 0 34 -13.5t13 -33.5q0 -21 -13 -34t-34 -13t-34 13t-13 34q0 20 13 33.5t34 13.5z" />
    <glyph glyph-name="Zcaron" unicode="&#x17d;" horiz-adv-x="635" 
d="M48 0v63l436 534h-416v67h514v-63l-435 -534h440v-67h-539zM354 729h-65l-123 159h66l90 -109l89 109h66z" />
    <glyph glyph-name="zcaron" unicode="&#x17e;" horiz-adv-x="488" 
d="M42 0v54l310 355h-295v58h384v-54l-310 -355h315v-58h-404zM279 540h-65l-123 159h66l90 -109l89 109h66z" />
    <glyph glyph-name="florin" unicode="&#x192;" horiz-adv-x="650" 
d="M477 674q56 0 89 -18l-5 -63h-4q-25 21 -72 21q-95 0 -109 -102l-13 -93h162v-58h-170l-39 -274q-23 -157 -157 -157q-55 0 -89 18l6 63h4q26 -21 71 -21q84 0 99 102l38 269h-145v58h153l14 98q10 76 53 116.5t114 40.5z" />
    <glyph glyph-name="AEacute" unicode="&#x1fc;" horiz-adv-x="1037" 
d="M580 369h336v-67h-336v-235h408v-67h-482v149h-308l-104 -149h-84l466 664h512v-67h-408v-228zM506 588h-2l-259 -372h261v372zM485 729l118 159h76l-127 -159h-67z" />
    <glyph glyph-name="aeacute" unicode="&#x1fd;" horiz-adv-x="980" 
d="M943 213h-415q7 -75 61 -119t143 -44q110 0 178 67h3v-69q-69 -58 -174 -58q-155 0 -215 93h-2l-1 -83h-53l-1 83h-2q-58 -93 -191 -93q-103 0 -169.5 68.5t-66.5 174.5t66.5 175t169.5 69q132 0 191 -93h2l1 83h53l1 -83h2q59 93 193 93q105 0 165.5 -60.5t60.5 -164.5
v-39zM284 50q79 0 129 51t50 132t-50 132.5t-129 51.5q-78 0 -128 -51.5t-50 -132.5t50 -132t128 -51zM528 271h353q-7 67 -54 106.5t-121 39.5q-72 0 -119.5 -40t-58.5 -106zM453 540l118 159h76l-127 -159h-67z" />
    <glyph glyph-name="Oslashacute" unicode="&#x1fe;" horiz-adv-x="765" 
d="M727 664l-87 -96q87 -95 87 -236q0 -150 -97 -246t-248 -96q-121 0 -210 64l-49 -54h-85l87 96q-87 95 -87 236q0 150 96.5 246t247.5 96q121 0 210 -64l49 54h86zM113 332q0 -108 61 -182l371 408q-71 49 -163 49q-119 0 -194 -76.5t-75 -198.5zM652 332q0 108 -61 182
l-371 -408q70 -49 162 -49q119 0 194.5 77t75.5 198zM339 729l118 159h76l-127 -159h-67z" />
    <glyph glyph-name="oslashacute" unicode="&#x1ff;" horiz-adv-x="569" 
d="M531 467l-61 -68q61 -66 61 -166q0 -106 -69.5 -174.5t-177.5 -68.5q-80 0 -143 41l-27 -31h-76l60 67q-60 68 -60 166q0 107 69 175.5t177 68.5q81 0 143 -41l28 31h76zM106 233q0 -67 36 -116l243 271q-43 29 -101 29q-78 0 -128 -51.5t-50 -132.5zM463 233
q0 69 -37 117l-242 -272q44 -28 100 -28q79 0 129 51t50 132zM251 540l118 159h76l-127 -159h-67z" />
    <glyph glyph-name="uni0218" unicode="&#x218;" horiz-adv-x="577" 
d="M292 674q146 0 215 -59v-83h-4q-69 75 -212 75q-76 0 -123 -34.5t-47 -90.5q0 -50 38.5 -74t138.5 -34q134 -13 188.5 -57t54.5 -134t-66.5 -141.5t-182.5 -51.5q-167 0 -251 72v82h4q90 -87 247 -87q82 0 128.5 33t46.5 92q0 54 -40.5 80.5t-145.5 37.5q-130 13 -182 54
t-52 125q0 88 67 141.5t178 53.5zM154 -210l106 145h73l-115 -145h-64z" />
    <glyph glyph-name="uni0219" unicode="&#x219;" horiz-adv-x="430" 
d="M218 477q102 0 154 -38v-72h-3q-47 50 -149 50q-49 0 -80.5 -23.5t-31.5 -60.5q0 -31 25.5 -45t90.5 -18q96 -6 135.5 -37.5t39.5 -99.5q0 -66 -49 -104.5t-132 -38.5q-118 0 -178 51v75h3q57 -66 173 -66q52 0 84 22.5t32 60.5q0 35 -26.5 51t-96.5 21q-93 7 -130 36
t-37 91q0 65 48.5 105t127.5 40zM83 -210l106 145h73l-115 -145h-64z" />
    <glyph glyph-name="uni021A" unicode="&#x21a;" horiz-adv-x="578" 
d="M327 597v-597h-74v597h-228v67h528v-67h-226zM149 -210l106 145h73l-115 -145h-64z" />
    <glyph glyph-name="uni021B" unicode="&#x21b;" horiz-adv-x="363" 
d="M327 77v-69q-30 -18 -81 -18q-70 0 -107.5 40.5t-37.5 114.5v264h-90v58h92l11 125h54v-125h157v-58h-157v-262q0 -46 23 -71.5t63 -25.5q46 0 70 27h3zM56 -210l106 145h73l-115 -145h-64z" />
    <glyph glyph-name="uni0237" unicode="&#x237;" horiz-adv-x="204" 
d="M135 467v-542q0 -125 -107 -125q-31 0 -55 10v62h3q17 -12 42 -12q28 0 39 15.5t11 53.5v538h67z" />
    <glyph glyph-name="circumflex" unicode="&#x2c6;" horiz-adv-x="500" 
d="M251 650l-90 -110h-66l123 159h65l123 -159h-66z" />
    <glyph glyph-name="caron" unicode="&#x2c7;" horiz-adv-x="500" 
d="M283 540h-65l-123 159h66l90 -109l89 109h66z" />
    <glyph glyph-name="breve" unicode="&#x2d8;" horiz-adv-x="500" 
d="M355 688h53q-9 -67 -49.5 -103t-108.5 -36t-108.5 36t-49.5 103h53q15 -83 105 -83t105 83z" />
    <glyph glyph-name="dotaccent" unicode="&#x2d9;" horiz-adv-x="500" 
d="M250 662q21 0 34 -13.5t13 -33.5q0 -21 -13 -34t-34 -13t-34 13t-13 34q0 20 13 33.5t34 13.5z" />
    <glyph glyph-name="ring" unicode="&#x2da;" horiz-adv-x="500" 
d="M250 712q40 0 65.5 -25.5t25.5 -65.5t-25.5 -65.5t-65.5 -25.5t-65.5 25.5t-25.5 65.5t25.5 65.5t65.5 25.5zM250 664q-19 0 -31 -12t-12 -31t12 -31t31 -12t31 12t12 31t-12 31t-31 12z" />
    <glyph glyph-name="ogonek" unicode="&#x2db;" horiz-adv-x="500" 
d="M320 38l18 -37q-99 -43 -99 -107q0 -21 13.5 -34t35.5 -13q38 0 69 28h3v-55q-32 -20 -80 -20q-43 0 -68 22.5t-25 63.5q0 98 133 152z" />
    <glyph glyph-name="tilde" unicode="&#x2dc;" horiz-adv-x="500" 
d="M404 675v-61q-29 -54 -86 -54q-34 0 -79 30q-35 24 -60 24q-50 0 -80 -60h-3v62q29 54 86 54q34 0 77 -29q37 -25 62 -25q50 0 80 59h3z" />
    <glyph glyph-name="hungarumlaut" unicode="&#x2dd;" horiz-adv-x="500" 
d="M118 540l117 159h73l-126 -159h-64zM293 540l116 159h74l-127 -159h-63z" />
    <glyph glyph-name="uni0394" unicode="&#x394;" horiz-adv-x="720" 
d="M17 0l308 664h70l308 -664h-686zM592 67l-232 511h-2l-232 -511h466z" />
    <glyph glyph-name="uni03A9" unicode="&#x3a9;" horiz-adv-x="777" 
d="M721 67v-67h-243v63q86 39 133 110t47 164q0 119 -75.5 194.5t-194.5 75.5t-194 -75.5t-75 -194.5q0 -93 47 -164t133 -110v-63h-243v67h141v2q-73 41 -113 112t-40 165q0 145 96 236.5t248 91.5t248.5 -91.5t96.5 -236.5q0 -94 -40 -165t-113 -112v-2h141z" />
    <glyph glyph-name="uni03BC" unicode="&#x3bc;" horiz-adv-x="576" 
d="M504 0h-57l-2 83h-2q-51 -93 -176 -93q-79 0 -126 44h-2v-224h-67v657h67v-262q0 -73 38 -114t104 -41q73 0 114.5 47t41.5 130v240h67v-467z" />
    <glyph glyph-name="pi" unicode="&#x3c0;" horiz-adv-x="591" 
d="M495 409v-409h-67v409h-265v-409h-67v409h-81v58h562v-58h-82z" />
    <glyph glyph-name="uni1E02" unicode="&#x1e02;" horiz-adv-x="634" 
d="M478 341v-2q121 -31 121 -158q0 -89 -57.5 -135t-168.5 -46h-292v664h267q227 0 227 -176q0 -111 -97 -147zM155 370h188q159 0 159 114q0 113 -155 113h-192v-227zM155 67h216q153 0 153 117q0 119 -157 119h-212v-236zM309 851q21 0 34 -13.5t13 -33.5q0 -21 -13 -34
t-34 -13t-34 13t-13 34q0 20 13 33.5t34 13.5z" />
    <glyph glyph-name="uni1E03" unicode="&#x1e03;" horiz-adv-x="596" 
d="M321 477q103 0 170 -68.5t67 -175.5q0 -106 -66.5 -174.5t-170.5 -68.5q-133 0 -191 94h-2l-2 -84h-58v700h67v-307h2q60 84 184 84zM312 50q78 0 128 51t50 132t-50 132.5t-128 51.5q-79 0 -129.5 -51.5t-50.5 -132.5t50.5 -132t129.5 -51zM102 882q21 0 34 -13.5
t13 -33.5q0 -21 -13 -34t-34 -13t-34 13t-13 34q0 20 13 33.5t34 13.5z" />
    <glyph glyph-name="uni1E0A" unicode="&#x1e0a;" horiz-adv-x="726" 
d="M81 664h255q165 0 258.5 -88t93.5 -243q0 -156 -93.5 -244.5t-258.5 -88.5h-255v664zM155 67h178q132 0 206 70.5t74 195.5q0 124 -74 194t-206 70h-178v-530zM339 851q21 0 34 -13.5t13 -33.5q0 -21 -13 -34t-34 -13t-34 13t-13 34q0 20 13 33.5t34 13.5z" />
    <glyph glyph-name="uni1E0B" unicode="&#x1e0b;" horiz-adv-x="595" 
d="M527 0h-58l-2 84h-2q-58 -94 -191 -94q-103 0 -169.5 68.5t-66.5 174.5t66.5 175t169.5 69q124 0 184 -84h2v307h67v-700zM284 50q78 0 128 51t50 132t-50 132.5t-128 51.5t-128 -51.5t-50 -132.5t50 -132t128 -51zM494 882q21 0 34 -13.5t13 -33.5q0 -21 -13 -34
t-34 -13t-34 13t-13 34q0 20 13 33.5t34 13.5z" />
    <glyph glyph-name="uni1E1E" unicode="&#x1e1e;" horiz-adv-x="592" 
d="M491 362v-67h-336v-295h-74v664h482v-67h-408v-235h336zM309 851q21 0 34 -13.5t13 -33.5q0 -21 -13 -34t-34 -13t-34 13t-13 34q0 20 13 33.5t34 13.5z" />
    <glyph glyph-name="uni1E1F" unicode="&#x1e1f;" horiz-adv-x="336" 
d="M250 710q56 0 89 -18v-64h-3q-30 22 -78 22q-90 0 -90 -101v-82h157v-58h-157v-409h-67v409h-90v58h90v84q0 76 38.5 117.5t110.5 41.5zM195 882q21 0 34 -13.5t13 -33.5q0 -21 -13 -34t-34 -13t-34 13t-13 34q0 20 13 33.5t34 13.5z" />
    <glyph glyph-name="uni1E40" unicode="&#x1e40;" horiz-adv-x="932" 
d="M851 0h-74v590h-2l-281 -590h-62l-277 584h-2v-584h-72v664h113l269 -568h2l272 568h114v-664zM466 851q21 0 34 -13.5t13 -33.5q0 -21 -13 -34t-34 -13t-34 13t-13 34q0 20 13 33.5t34 13.5z" />
    <glyph glyph-name="uni1E41" unicode="&#x1e41;" horiz-adv-x="854" 
d="M620 477q86 0 132 -53t46 -151v-273h-67v267q0 73 -32 111.5t-94 38.5q-67 0 -102.5 -44.5t-35.5 -129.5v-243h-67v267q0 150 -126 150q-67 0 -102.5 -44t-35.5 -126v-247h-67v467h57l2 -74h2q47 84 158 84q117 0 157 -99h2q43 99 173 99zM434 662q21 0 34 -13.5
t13 -33.5q0 -21 -13 -34t-34 -13t-34 13t-13 34q0 20 13 33.5t34 13.5z" />
    <glyph glyph-name="uni1E56" unicode="&#x1e56;" horiz-adv-x="628" 
d="M81 664h284q232 0 232 -205q0 -204 -232 -204h-210v-255h-74v664zM155 322h207q160 0 160 137q0 138 -160 138h-207v-275zM320 851q21 0 34 -13.5t13 -33.5q0 -21 -13 -34t-34 -13t-34 13t-13 34q0 20 13 33.5t34 13.5z" />
    <glyph glyph-name="uni1E57" unicode="&#x1e57;" horiz-adv-x="596" 
d="M321 477q103 0 170 -68.5t67 -175.5q0 -106 -66.5 -174.5t-170.5 -68.5q-125 0 -184 83h-2v-263h-67v657h58l2 -85h2q58 95 191 95zM312 50q78 0 128 51t50 132t-50 132.5t-128 51.5q-79 0 -129.5 -51.5t-50.5 -132.5t50.5 -132t129.5 -51zM313 661q21 0 34 -13.5
t13 -33.5q0 -21 -13 -34t-34 -13t-34 13t-13 34q0 20 13 33.5t34 13.5z" />
    <glyph glyph-name="uni1E60" unicode="&#x1e60;" horiz-adv-x="577" 
d="M292 674q146 0 215 -59v-83h-4q-69 75 -212 75q-76 0 -123 -34.5t-47 -90.5q0 -50 38.5 -74t138.5 -34q134 -13 188.5 -57t54.5 -134t-66.5 -141.5t-182.5 -51.5q-167 0 -251 72v82h4q90 -87 247 -87q82 0 128.5 33t46.5 92q0 54 -40.5 80.5t-145.5 37.5q-130 13 -182 54
t-52 125q0 88 67 141.5t178 53.5zM288 851q21 0 34 -13.5t13 -33.5q0 -21 -13 -34t-34 -13t-34 13t-13 34q0 20 13 33.5t34 13.5z" />
    <glyph glyph-name="uni1E61" unicode="&#x1e61;" horiz-adv-x="430" 
d="M218 477q102 0 154 -38v-72h-3q-47 50 -149 50q-49 0 -80.5 -23.5t-31.5 -60.5q0 -31 25.5 -45t90.5 -18q96 -6 135.5 -37.5t39.5 -99.5q0 -66 -49 -104.5t-132 -38.5q-118 0 -178 51v75h3q57 -66 173 -66q52 0 84 22.5t32 60.5q0 35 -26.5 51t-96.5 21q-93 7 -130 36
t-37 91q0 65 48.5 105t127.5 40zM214 662q21 0 34 -13.5t13 -33.5q0 -21 -13 -34t-34 -13t-34 13t-13 34q0 20 13 33.5t34 13.5z" />
    <glyph glyph-name="uni1E6A" unicode="&#x1e6a;" horiz-adv-x="578" 
d="M327 597v-597h-74v597h-228v67h528v-67h-226zM289 851q21 0 34 -13.5t13 -33.5q0 -21 -13 -34t-34 -13t-34 13t-13 34q0 20 13 33.5t34 13.5z" />
    <glyph glyph-name="uni1E6B" unicode="&#x1e6b;" horiz-adv-x="363" 
d="M327 77v-69q-30 -18 -81 -18q-70 0 -107.5 40.5t-37.5 114.5v264h-90v58h92l11 125h54v-125h157v-58h-157v-262q0 -46 23 -71.5t63 -25.5q46 0 70 27h3zM139 781q21 0 34 -13.5t13 -33.5q0 -21 -13 -34t-34 -13t-34 13t-13 34q0 20 13 33.5t34 13.5z" />
    <glyph glyph-name="Wgrave" unicode="&#x1e80;" horiz-adv-x="1003" 
d="M758 0h-73l-183 539h-2l-183 -539h-73l-221 664h78l180 -551h2l186 551h65l187 -551h2l181 551h76zM476 729l-127 159h76l118 -159h-67z" />
    <glyph glyph-name="wgrave" unicode="&#x1e81;" horiz-adv-x="753" 
d="M576 0h-66l-131 360h-2l-132 -360h-68l-168 467h71l130 -380h2l139 380h55l137 -377h2l131 377h68zM350 540l-127 159h76l118 -159h-67z" />
    <glyph glyph-name="Wacute" unicode="&#x1e82;" horiz-adv-x="1003" 
d="M758 0h-73l-183 539h-2l-183 -539h-73l-221 664h78l180 -551h2l186 551h65l187 -551h2l181 551h76zM460 729l118 159h76l-127 -159h-67z" />
    <glyph glyph-name="wacute" unicode="&#x1e83;" horiz-adv-x="753" 
d="M576 0h-66l-131 360h-2l-132 -360h-68l-168 467h71l130 -380h2l139 380h55l137 -377h2l131 377h68zM334 540l118 159h76l-127 -159h-67z" />
    <glyph glyph-name="Wdieresis" unicode="&#x1e84;" horiz-adv-x="1003" 
d="M758 0h-73l-183 539h-2l-183 -539h-73l-221 664h78l180 -551h2l186 551h65l187 -551h2l181 551h76zM405 848q20 0 32.5 -12t12.5 -32t-12.5 -32.5t-32.5 -12.5q-19 0 -31 12.5t-12 32.5t12 32t31 12zM599 848q19 0 31 -12t12 -32t-12 -32.5t-31 -12.5q-20 0 -32.5 12.5
t-12.5 32.5t12.5 32t32.5 12z" />
    <glyph glyph-name="wdieresis" unicode="&#x1e85;" horiz-adv-x="753" 
d="M576 0h-66l-131 360h-2l-132 -360h-68l-168 467h71l130 -380h2l139 380h55l137 -377h2l131 377h68zM279 659q20 0 32.5 -12t12.5 -32t-12.5 -32.5t-32.5 -12.5q-19 0 -31 12.5t-12 32.5t12 32t31 12zM473 659q19 0 31 -12t12 -32t-12 -32.5t-31 -12.5q-20 0 -32.5 12.5
t-12.5 32.5t12.5 32t32.5 12z" />
    <glyph glyph-name="Ygrave" unicode="&#x1ef2;" horiz-adv-x="664" 
d="M370 0h-75v295l-285 369h91l234 -307l230 307h89l-284 -369v-295zM306 729l-127 159h76l118 -159h-67z" />
    <glyph glyph-name="ygrave" unicode="&#x1ef3;" horiz-adv-x="493" 
d="M183 -190h-69l97 208l-202 449h72l166 -380h2l166 380h69zM220 540l-127 159h76l118 -159h-67z" />
    <glyph glyph-name="uni2007" unicode="&#x2007;" horiz-adv-x="650" 
 />
    <glyph glyph-name="figuredash" unicode="&#x2012;" horiz-adv-x="650" 
d="M50 302v60h550v-60h-550z" />
    <glyph glyph-name="endash" unicode="&#x2013;" horiz-adv-x="500" 
d="M50 242v60h400v-60h-400z" />
    <glyph glyph-name="emdash" unicode="&#x2014;" horiz-adv-x="1000" 
d="M50 242v60h900v-60h-900z" />
    <glyph glyph-name="quoteleft" unicode="&#x2018;" horiz-adv-x="242" 
d="M193 664l-72 -210h-69l86 210h55z" />
    <glyph glyph-name="quoteright" unicode="&#x2019;" horiz-adv-x="242" 
d="M49 454l72 210h69l-86 -210h-55z" />
    <glyph glyph-name="quotesinglbase" unicode="&#x201a;" horiz-adv-x="242" 
d="M25 -134l72 210h69l-86 -210h-55z" />
    <glyph glyph-name="quotedblleft" unicode="&#x201c;" horiz-adv-x="412" 
d="M193 664l-72 -210h-69l86 210h55zM363 664l-72 -210h-69l86 210h55z" />
    <glyph glyph-name="quotedblright" unicode="&#x201d;" horiz-adv-x="412" 
d="M49 454l72 210h69l-86 -210h-55zM219 454l72 210h69l-86 -210h-55z" />
    <glyph glyph-name="quotedblbase" unicode="&#x201e;" horiz-adv-x="412" 
d="M195 -134l72 210h69l-86 -210h-55zM25 -134l72 210h69l-86 -210h-55z" />
    <glyph glyph-name="dagger" unicode="&#x2020;" horiz-adv-x="490" 
d="M273 479v-386h-56v386h-163v51h163v170h56v-170h163v-51h-163z" />
    <glyph glyph-name="daggerdbl" unicode="&#x2021;" horiz-adv-x="490" 
d="M273 314h163v-51h-163v-170h-56v170h-163v51h163v165h-163v51h163v170h56v-170h163v-51h-163v-165z" />
    <glyph glyph-name="bullet" unicode="&#x2022;" horiz-adv-x="500" 
d="M250 412q61 0 100.5 -39.5t39.5 -100.5q0 -60 -39.5 -100t-100.5 -40t-100.5 40t-39.5 100q0 61 39.5 100.5t100.5 39.5z" />
    <glyph glyph-name="ellipsis" unicode="&#x2026;" horiz-adv-x="1000" 
d="M811 86q20 0 34 -14t14 -34t-14 -34t-34 -14t-34 14t-14 34t14 34t34 14zM500 86q20 0 34 -14t14 -34t-14 -34t-34 -14t-34 14t-14 34t14 34t34 14zM189 86q20 0 34 -14t14 -34t-14 -34t-34 -14t-34 14t-14 34t14 34t34 14z" />
    <glyph glyph-name="perthousand" unicode="&#x2030;" horiz-adv-x="1101" 
d="M916 319q70 0 109.5 -44.5t39.5 -120.5t-39.5 -120t-109.5 -44t-109.5 44t-39.5 120t39.5 120.5t109.5 44.5zM916 266q-42 0 -66 -29.5t-24 -82.5q0 -52 24 -81.5t66 -29.5t66 29.5t24 81.5q0 53 -24 82.5t-66 29.5zM185 674q70 0 109.5 -44.5t39.5 -120.5t-39.5 -120
t-109.5 -44t-109.5 44t-39.5 120t39.5 120.5t109.5 44.5zM133 0l422 664h65l-422 -664h-65zM185 621q-42 0 -66 -29.5t-24 -82.5q0 -52 24 -81.5t66 -29.5t66 29.5t24 81.5q0 53 -24 82.5t-66 29.5zM569 319q70 0 109.5 -44.5t39.5 -120.5t-39.5 -120t-109.5 -44t-109.5 44
t-39.5 120t39.5 120.5t109.5 44.5zM569 266q-42 0 -66 -29.5t-24 -82.5q0 -52 24 -81.5t66 -29.5t66 29.5t24 81.5q0 53 -24 82.5t-66 29.5z" />
    <glyph glyph-name="guilsinglleft" unicode="&#x2039;" horiz-adv-x="285" 
d="M233 97v-73l-201 207v5l201 207v-73l-135 -137z" />
    <glyph glyph-name="guilsinglright" unicode="&#x203a;" horiz-adv-x="285" 
d="M52 370v73l201 -207v-5l-201 -207v73l135 137z" />
    <glyph glyph-name="fraction" unicode="&#x2044;" horiz-adv-x="148" 
d="M-169 0l430 664h57l-430 -664h-57z" />
    <glyph glyph-name="zerosuperior" unicode="&#x2070;" 
d="M205 804q78 0 121 -55t43 -156t-43 -156t-121 -55t-121 55t-43 156t43 156t121 55zM205 757q-54 0 -83 -42.5t-29 -121.5t29 -121.5t83 -42.5t83 42.5t29 121.5t-29 121.5t-83 42.5z" />
    <glyph glyph-name="foursuperior" unicode="&#x2074;" 
d="M329 471v-83h-52v83h-235v45l233 282h54v-280h57v-47h-57zM277 730l-177 -212h177v212z" />
    <glyph glyph-name="fivesuperior" unicode="&#x2075;" 
d="M210 652q71 0 110.5 -35t39.5 -98q0 -64 -42.5 -100.5t-116.5 -36.5q-96 0 -140 41v56h3q45 -50 134 -50q52 0 80.5 23.5t28.5 66.5q0 87 -116 87q-62 0 -114 -27h-3v219h260v-47h-212v-111q39 12 88 12z" />
    <glyph glyph-name="sixsuperior" unicode="&#x2076;" 
d="M227 653q64 0 102.5 -36t38.5 -96q0 -63 -40.5 -101t-107.5 -38q-82 0 -127 52.5t-45 147.5q0 105 48 163.5t134 58.5q72 0 107 -29v-55h-3q-37 37 -99 37q-61 0 -96 -38.5t-39 -111.5h2q46 46 125 46zM218 429q44 0 70.5 25t26.5 66q0 40 -26 63.5t-70 23.5
q-80 0 -117 -64q5 -53 36 -83.5t80 -30.5z" />
    <glyph glyph-name="sevensuperior" unicode="&#x2077;" 
d="M377 748l-232 -360h-61l237 363h-259v47h315v-50z" />
    <glyph glyph-name="eightsuperior" unicode="&#x2078;" 
d="M293 601v-2q78 -24 78 -102q0 -54 -44 -84.5t-122 -30.5t-122 30.5t-44 84.5q0 76 79 99v2q-67 24 -67 94q0 52 41 82t113 30t113 -30t41 -82q0 -68 -66 -91zM103 687q0 -67 102 -67t102 67q0 33 -26.5 51.5t-75.5 18.5t-75.5 -18.5t-26.5 -51.5zM205 429q54 0 83.5 19
t29.5 54q0 72 -113 72t-113 -72q0 -35 29.5 -54t83.5 -19z" />
    <glyph glyph-name="ninesuperior" unicode="&#x2079;" 
d="M190 804q82 0 127 -52.5t45 -147.5q0 -105 -48 -163.5t-134 -58.5q-72 0 -107 29v55h3q37 -37 99 -37q61 0 96 38.5t39 111.5h-2q-46 -46 -125 -46q-64 0 -102.5 36t-38.5 96q0 63 40.5 101t107.5 38zM191 579q80 0 117 64q-5 53 -36 83.5t-80 30.5q-44 0 -70.5 -25
t-26.5 -66q0 -40 26 -63.5t70 -23.5z" />
    <glyph glyph-name="zeroinferior" unicode="&#x2080;" 
d="M205 226q78 0 121 -55t43 -156t-43 -156t-121 -55t-121 55t-43 156t43 156t121 55zM205 179q-54 0 -83 -42.5t-29 -121.5t29 -121.5t83 -42.5t83 42.5t29 121.5t-29 121.5t-83 42.5z" />
    <glyph glyph-name="oneinferior" unicode="&#x2081;" 
d="M294 -190h-52v348l-110 -70v52l121 80h41v-410z" />
    <glyph glyph-name="twoinferior" unicode="&#x2082;" 
d="M345 -143v-47h-280v50l83 65q85 67 115 103.5t30 72.5q0 78 -97 78q-68 0 -122 -52h-3v57q53 42 127 42q71 0 109 -31.5t38 -89.5q0 -48 -33 -90.5t-128 -116.5l-49 -39v-2h210z" />
    <glyph glyph-name="threeinferior" unicode="&#x2083;" 
d="M288 22v-2q71 -25 71 -99q0 -55 -41 -86t-115 -31q-96 0 -138 44v58h3q44 -55 134 -55q49 0 76 19.5t27 55.5q0 70 -99 70h-62v47h53q102 0 102 65q0 71 -100 71q-75 0 -123 -51h-3v57q49 41 131 41q69 0 108 -29.5t39 -82.5q0 -66 -63 -92z" />
    <glyph glyph-name="fourinferior" unicode="&#x2084;" 
d="M329 -107v-83h-52v83h-235v45l233 282h54v-280h57v-47h-57zM277 152l-177 -212h177v212z" />
    <glyph glyph-name="fiveinferior" unicode="&#x2085;" 
d="M210 74q71 0 110.5 -35t39.5 -98q0 -64 -42.5 -100.5t-116.5 -36.5q-96 0 -140 41v56h3q45 -50 134 -50q52 0 80.5 23.5t28.5 66.5q0 87 -116 87q-62 0 -114 -27h-3v219h260v-47h-212v-111q39 12 88 12z" />
    <glyph glyph-name="sixinferior" unicode="&#x2086;" 
d="M227 75q64 0 102.5 -36t38.5 -96q0 -63 -40.5 -101t-107.5 -38q-82 0 -127 52.5t-45 147.5q0 105 48 163.5t134 58.5q72 0 107 -29v-55h-3q-37 37 -99 37q-61 0 -96 -38.5t-39 -111.5h2q46 46 125 46zM218 -149q44 0 70.5 25t26.5 66q0 40 -26 63.5t-70 23.5
q-80 0 -117 -64q5 -53 36 -83.5t80 -30.5z" />
    <glyph glyph-name="seveninferior" unicode="&#x2087;" 
d="M377 170l-232 -360h-61l237 363h-259v47h315v-50z" />
    <glyph glyph-name="eightinferior" unicode="&#x2088;" 
d="M293 23v-2q78 -24 78 -102q0 -54 -44 -84.5t-122 -30.5t-122 30.5t-44 84.5q0 76 79 99v2q-67 24 -67 94q0 52 41 82t113 30t113 -30t41 -82q0 -68 -66 -91zM103 109q0 -67 102 -67t102 67q0 33 -26.5 51.5t-75.5 18.5t-75.5 -18.5t-26.5 -51.5zM205 -149q54 0 83.5 19
t29.5 54q0 72 -113 72t-113 -72q0 -35 29.5 -54t83.5 -19z" />
    <glyph glyph-name="nineinferior" unicode="&#x2089;" 
d="M190 226q82 0 127 -52.5t45 -147.5q0 -105 -48 -163.5t-134 -58.5q-72 0 -107 29v55h3q37 -37 99 -37q61 0 96 38.5t39 111.5h-2q-46 -46 -125 -46q-64 0 -102.5 36t-38.5 96q0 63 40.5 101t107.5 38zM191 1q80 0 117 64q-5 53 -36 83.5t-80 30.5q-44 0 -70.5 -25
t-26.5 -66q0 -40 26 -63.5t70 -23.5z" />
    <glyph glyph-name="Euro" unicode="&#x20ac;" horiz-adv-x="650" 
d="M423 611q-84 0 -140 -43.5t-79 -124.5h314v-59h-325q-3 -25 -3 -52q0 -17 2 -45h326v-59h-316q22 -84 79 -129.5t142 -45.5q101 0 160 59h4v-74q-57 -48 -169 -48q-113 0 -188.5 63t-99.5 175h-76v59h68q-2 30 -2 45q0 18 2 52h-68v59h78q26 109 100.5 170t185.5 61
q112 0 169 -48v-74h-4q-59 59 -160 59z" />
    <glyph glyph-name="uni20B9" unicode="&#x20b9;" horiz-adv-x="650" 
d="M440 606v-2q47 -34 54 -98h96v-58h-95q-17 -160 -223 -160h-32v-2l327 -286h-93l-335 298v50h115q80 0 121.5 23t48.5 77h-359v58h359q-8 53 -49.5 75.5t-120.5 22.5h-189v60h525v-58h-150z" />
    <glyph glyph-name="uni2113" unicode="&#x2113;" horiz-adv-x="467" 
d="M300 50q57 0 95 41h3v-73q-40 -28 -102 -28q-75 0 -118.5 43t-44.5 124q-31 -19 -66 -39v68q39 22 66 40v298q0 71 36 110t102 39q61 0 94.5 -37.5t33.5 -105.5q0 -173 -199 -326v-34q0 -120 100 -120zM200 519v-241q136 119 136 252q0 83 -65 83q-71 0 -71 -94z" />
    <glyph glyph-name="uni2117" unicode="&#x2117;" horiz-adv-x="794" 
d="M397 674q147 0 244.5 -97.5t97.5 -244.5t-97.5 -244.5t-244.5 -97.5t-244.5 97.5t-97.5 244.5t97.5 244.5t244.5 97.5zM397 34q126 0 210 84.5t84 213.5t-84 213.5t-210 84.5t-210 -84.5t-84 -213.5t84 -213.5t210 -84.5zM283 507h150q125 0 125 -111t-125 -111h-101
v-128h-49v350zM332 329h99q77 0 77 67t-77 67h-99v-134z" />
    <glyph glyph-name="trademark" unicode="&#x2122;" horiz-adv-x="765" 
d="M274 664v-40h-105v-297h-46v297h-104v40h255zM706 327h-46v281h-2l-121 -282h-41l-121 282h-2v-281h-43v337h70l116 -273h2l117 273h71v-337z" />
    <glyph glyph-name="uni2126" unicode="&#x2126;" horiz-adv-x="777" 
d="M721 67v-67h-243v63q86 39 133 110t47 164q0 119 -75.5 194.5t-194.5 75.5t-194 -75.5t-75 -194.5q0 -93 47 -164t133 -110v-63h-243v67h141v2q-73 41 -113 112t-40 165q0 145 96 236.5t248 91.5t248.5 -91.5t96.5 -236.5q0 -94 -40 -165t-113 -112v-2h141z" />
    <glyph glyph-name="estimated" unicode="&#x212e;" horiz-adv-x="813" 
d="M406 674q149 0 254.5 -100t105.5 -242v-8h-584q-4 0 -4 -4v-188q0 -8 8 -20q89 -102 222 -102q67 0 127.5 30.5t104.5 83.5h53q-51 -62 -126.5 -98t-160.5 -36q-149 0 -254.5 100t-105.5 242t105.5 242t254.5 100zM408 654q-129 0 -222 -100q-8 -12 -8 -22v-184
q0 -6 4 -6h448q6 0 6 6v188q0 12 -10 22q-93 96 -218 96z" />
    <glyph glyph-name="onethird" unicode="&#x2153;" horiz-adv-x="968" 
d="M241 0l430 664h57l-430 -664h-57zM846 212v-2q71 -25 71 -99q0 -55 -41 -86t-115 -31q-96 0 -138 44v58h3q44 -55 134 -55q49 0 76 19.5t27 55.5q0 70 -99 70h-62v47h53q102 0 102 65q0 71 -100 71q-75 0 -123 -51h-3v57q49 41 131 41q69 0 108 -29.5t39 -82.5
q0 -66 -63 -92zM294 254h-52v348l-110 -70v52l121 80h41v-410z" />
    <glyph glyph-name="twothirds" unicode="&#x2154;" horiz-adv-x="968" 
d="M256 0l430 664h57l-430 -664h-57zM846 212v-2q71 -25 71 -99q0 -55 -41 -86t-115 -31q-96 0 -138 44v58h3q44 -55 134 -55q49 0 76 19.5t27 55.5q0 70 -99 70h-62v47h53q102 0 102 65q0 71 -100 71q-75 0 -123 -51h-3v57q49 41 131 41q69 0 108 -29.5t39 -82.5
q0 -66 -63 -92zM345 301v-47h-280v50l83 65q85 67 115 103.5t30 72.5q0 78 -97 78q-68 0 -122 -52h-3v57q53 42 127 42q71 0 109 -31.5t38 -89.5q0 -48 -33 -90.5t-128 -116.5l-49 -39v-2h210z" />
    <glyph glyph-name="oneeighth" unicode="&#x215b;" horiz-adv-x="968" 
d="M241 0l430 664h57l-430 -664h-57zM851 213v-2q78 -24 78 -102q0 -54 -44 -84.5t-122 -30.5t-122 30.5t-44 84.5q0 76 79 99v2q-67 24 -67 94q0 52 41 82t113 30t113 -30t41 -82q0 -68 -66 -91zM661 299q0 -67 102 -67t102 67q0 33 -26.5 51.5t-75.5 18.5t-75.5 -18.5
t-26.5 -51.5zM763 41q54 0 83.5 19t29.5 54q0 72 -113 72t-113 -72q0 -35 29.5 -54t83.5 -19zM294 254h-52v348l-110 -70v52l121 80h41v-410z" />
    <glyph glyph-name="threeeighths" unicode="&#x215c;" horiz-adv-x="968" 
d="M244 0l430 664h57l-430 -664h-57zM851 213v-2q78 -24 78 -102q0 -54 -44 -84.5t-122 -30.5t-122 30.5t-44 84.5q0 76 79 99v2q-67 24 -67 94q0 52 41 82t113 30t113 -30t41 -82q0 -68 -66 -91zM661 299q0 -67 102 -67t102 67q0 33 -26.5 51.5t-75.5 18.5t-75.5 -18.5
t-26.5 -51.5zM763 41q54 0 83.5 19t29.5 54q0 72 -113 72t-113 -72q0 -35 29.5 -54t83.5 -19zM288 466v-2q71 -25 71 -99q0 -55 -41 -86t-115 -31q-96 0 -138 44v58h3q44 -55 134 -55q49 0 76 19.5t27 55.5q0 70 -99 70h-62v47h53q102 0 102 65q0 71 -100 71q-75 0 -123 -51
h-3v57q49 41 131 41q69 0 108 -29.5t39 -82.5q0 -66 -63 -92z" />
    <glyph glyph-name="fiveeighths" unicode="&#x215d;" horiz-adv-x="968" 
d="M244 0l430 664h57l-430 -664h-57zM851 213v-2q78 -24 78 -102q0 -54 -44 -84.5t-122 -30.5t-122 30.5t-44 84.5q0 76 79 99v2q-67 24 -67 94q0 52 41 82t113 30t113 -30t41 -82q0 -68 -66 -91zM661 299q0 -67 102 -67t102 67q0 33 -26.5 51.5t-75.5 18.5t-75.5 -18.5
t-26.5 -51.5zM763 41q54 0 83.5 19t29.5 54q0 72 -113 72t-113 -72q0 -35 29.5 -54t83.5 -19zM210 518q71 0 110.5 -35t39.5 -98q0 -64 -42.5 -100.5t-116.5 -36.5q-96 0 -140 41v56h3q45 -50 134 -50q52 0 80.5 23.5t28.5 66.5q0 87 -116 87q-62 0 -114 -27h-3v219h260v-47
h-212v-111q39 12 88 12z" />
    <glyph glyph-name="seveneighths" unicode="&#x215e;" horiz-adv-x="968" 
d="M195 0l430 664h57l-430 -664h-57zM851 213v-2q78 -24 78 -102q0 -54 -44 -84.5t-122 -30.5t-122 30.5t-44 84.5q0 76 79 99v2q-67 24 -67 94q0 52 41 82t113 30t113 -30t41 -82q0 -68 -66 -91zM661 299q0 -67 102 -67t102 67q0 33 -26.5 51.5t-75.5 18.5t-75.5 -18.5
t-26.5 -51.5zM763 41q54 0 83.5 19t29.5 54q0 72 -113 72t-113 -72q0 -35 29.5 -54t83.5 -19zM377 614l-232 -360h-61l237 363h-259v47h315v-50z" />
    <glyph glyph-name="partialdiff" unicode="&#x2202;" horiz-adv-x="593" 
d="M311 710q107 0 168 -75.5t61 -207.5q0 -189 -86.5 -313t-219.5 -124q-83 0 -136 54.5t-53 141.5q0 115 70.5 195.5t170.5 80.5q58 0 105 -25.5t74 -71.5h2q3 31 3 65q0 104 -45 160.5t-128 56.5q-82 0 -139 -54h-4v71q62 46 157 46zM240 53q73 0 130 62t83 166
q-20 55 -62 86.5t-94 31.5q-77 0 -129.5 -60.5t-52.5 -151.5q0 -59 35 -96.5t90 -37.5z" />
    <glyph glyph-name="uni2206" unicode="&#x2206;" horiz-adv-x="720" 
d="M17 0l308 664h70l308 -664h-686zM592 67l-232 511h-2l-232 -511h466z" />
    <glyph glyph-name="product" unicode="&#x220f;" horiz-adv-x="691" 
d="M612 -130h-74v727h-386v-727h-74v794h534v-794z" />
    <glyph glyph-name="summation" unicode="&#x2211;" horiz-adv-x="572" 
d="M146 597l269 -330l-269 -330h403v-67h-504v63l272 334l-272 334v63h504v-67h-403z" />
    <glyph glyph-name="minus" unicode="&#x2212;" horiz-adv-x="650" 
d="M52 270v60h546v-60h-546z" />
    <glyph glyph-name="uni2219" unicode="&#x2219;" horiz-adv-x="242" 
d="M121 380q20 0 34 -14t14 -34t-14 -34t-34 -14t-34 14t-14 34t14 34t34 14z" />
    <glyph glyph-name="radical" unicode="&#x221a;" horiz-adv-x="517" 
d="M296 -70h-74l-103 235h-77v60h125l84 -199h2l180 658h73z" />
    <glyph glyph-name="infinity" unicode="&#x221e;" horiz-adv-x="693" 
d="M501 485q65 0 104.5 -42t39.5 -111t-40 -111t-106 -42q-49 0 -85.5 23.5t-69.5 75.5h-2q-60 -99 -151 -99q-65 0 -104 41.5t-39 111.5q0 69 39.5 111t105.5 42q49 0 85 -23t70 -77h2q60 100 151 100zM197 235q36 0 63.5 21t56.5 69q-32 58 -61 81t-67 23q-39 0 -61 -26
t-22 -71t24 -71t67 -26zM504 235q39 0 61 26t22 71t-24.5 71t-67.5 26q-68 0 -119 -90q32 -57 61 -80.5t67 -23.5z" />
    <glyph glyph-name="integral" unicode="&#x222b;" horiz-adv-x="373" 
d="M270 710q50 0 81 -22v-66h-3q-22 28 -66 28q-62 0 -62 -77v-641q0 -132 -117 -132q-50 0 -80 22v66h3q21 -28 65 -28q62 0 62 77v641q0 132 117 132z" />
    <glyph glyph-name="approxequal" unicode="&#x2248;" horiz-adv-x="650" 
d="M561 502l49 -30q-71 -128 -166 -128q-32 0 -61 11.5t-75 43.5q-63 44 -99 44q-61 0 -120 -99l-49 30q71 128 166 128q59 0 136 -55q61 -44 99 -44q61 0 120 99zM561 256l49 -30q-71 -128 -166 -128q-32 0 -61 11.5t-75 43.5q-63 44 -99 44q-61 0 -120 -99l-49 30
q71 128 166 128q59 0 136 -55q61 -44 99 -44q61 0 120 99z" />
    <glyph glyph-name="notequal" unicode="&#x2260;" horiz-adv-x="650" 
d="M307 205h281v-60h-318l-86 -138h-62l86 138h-146v60h183l118 190h-301v60h338l86 138h62l-86 -138h126v-60h-163z" />
    <glyph glyph-name="lessequal" unicode="&#x2264;" horiz-adv-x="650" 
d="M164 355l414 -159v-66l-506 201v49l506 201v-65l-414 -159v-2zM578 60v-60h-506v60h506z" />
    <glyph glyph-name="greaterequal" unicode="&#x2265;" horiz-adv-x="650" 
d="M578 331l-506 -201v66l414 159v2l-414 159v65l506 -201v-49zM578 60v-60h-506v60h506z" />
    <glyph glyph-name="lozenge" unicode="&#x25ca;" horiz-adv-x="599" 
d="M326 0h-53l-227 332l227 332h53l227 -332zM300 597l-181 -265l181 -265l180 265z" />
    <glyph glyph-name="uniE069" unicode="&#xe069;" horiz-adv-x="204" 
d="M102 661q20 0 33 -13.5t13 -32.5q0 -20 -13 -33t-33 -13t-33 13t-13 33t13 33t33 13zM68 0v467h67v-467h-67z" />
    <glyph glyph-name="uniEF01" unicode="&#xef01;" horiz-adv-x="500" 
d="M111 -210l106 145h73l-115 -145h-64z" />
    <glyph glyph-name="uniEF02" unicode="&#xef02;" horiz-adv-x="500" 
d="M200 515l32 185h68l-48 -185h-52z" />
    <glyph glyph-name="uniF8FF" unicode="&#xf8ff;" horiz-adv-x="1000" 
d="M439 210v52h-1l-17 -78h-23l28 126h27v-66h1l28 66h31l-28 -126h-24l17 78h-1l-22 -52h-16zM140 285l-17 -77q-7 -24 -25 -24h-46l28 126h43q18 0 18 -15q0 -4 -1 -10zM293 184h-24l6 26h-17l-7 -26h-24l23 103q5 23 26 23h22q18 0 18 -15q0 -4 -1 -10zM570 184h-24l6 26
h-17l-7 -26h-24l23 103q5 23 26 23h22q18 0 18 -15q0 -4 -1 -10zM401 285l-11 -52q-4 -17 -13 -20l6 -29h-23l-4 26h-13l-6 -26h-24l28 126h43q18 0 18 -15q0 -4 -1 -10zM845 285l-12 -53q-4 -22 -24 -22h-22l-6 -26h-24l28 126h43q18 0 18 -15q0 -4 -1 -10zM233 310
l-28 -126h-24l6 26h-18l-6 -26h-24l28 126h24l-18 -81h18l18 81h24zM703 310h24l-17 -75q-1 -6 4 -6h7q5 0 6 4l17 77h24l-17 -78q-4 -22 -24 -22l-14 -26h-24l14 26q-18 0 -18 15q0 5 1 10zM901 242l-4 -19h-26l-4 -20h33l-5 -19h-56l28 126h57l-5 -19h-32l-11 -49h25z
M671 291l-24 -107h-24l24 107h-19l4 19h61l-4 -19h-18zM100 291l-20 -88h13q4 0 6 5l17 77q1 6 -3 6h-13zM810 233l11 52q1 6 -4 6h-12l-14 -62h13q5 0 6 4zM366 233l11 52q1 6 -4 6h-12l-14 -62h13q5 0 6 4zM564 291h-7q-5 0 -6 -5l-13 -57h18l12 56q1 6 -4 6zM287 291h-7
q-5 0 -6 -5l-13 -57h18l12 56q1 6 -4 6zM987 333v-30h-6v25h-1l-7 -20h-4l-7 20h-1v-25h-5v30h10l5 -16h1l5 16h10zM952 333v-5h-9v-25h-6v25h-8v5h23z" />
    <glyph glyph-name="zero.numr" 
d="M205 670q78 0 121 -55t43 -156t-43 -156t-121 -55t-121 55t-43 156t43 156t121 55zM205 623q-54 0 -83 -42.5t-29 -121.5t29 -121.5t83 -42.5t83 42.5t29 121.5t-29 121.5t-83 42.5z" />
    <glyph glyph-name="one.numr" 
d="M294 254h-52v348l-110 -70v52l121 80h41v-410z" />
    <glyph glyph-name="two.numr" 
d="M345 301v-47h-280v50l83 65q85 67 115 103.5t30 72.5q0 78 -97 78q-68 0 -122 -52h-3v57q53 42 127 42q71 0 109 -31.5t38 -89.5q0 -48 -33 -90.5t-128 -116.5l-49 -39v-2h210z" />
    <glyph glyph-name="three.numr" 
d="M288 466v-2q71 -25 71 -99q0 -55 -41 -86t-115 -31q-96 0 -138 44v58h3q44 -55 134 -55q49 0 76 19.5t27 55.5q0 70 -99 70h-62v47h53q102 0 102 65q0 71 -100 71q-75 0 -123 -51h-3v57q49 41 131 41q69 0 108 -29.5t39 -82.5q0 -66 -63 -92z" />
    <glyph glyph-name="four.numr" 
d="M329 337v-83h-52v83h-235v45l233 282h54v-280h57v-47h-57zM277 596l-177 -212h177v212z" />
    <glyph glyph-name="five.numr" 
d="M210 518q71 0 110.5 -35t39.5 -98q0 -64 -42.5 -100.5t-116.5 -36.5q-96 0 -140 41v56h3q45 -50 134 -50q52 0 80.5 23.5t28.5 66.5q0 87 -116 87q-62 0 -114 -27h-3v219h260v-47h-212v-111q39 12 88 12z" />
    <glyph glyph-name="six.numr" 
d="M227 519q64 0 102.5 -36t38.5 -96q0 -63 -40.5 -101t-107.5 -38q-82 0 -127 52.5t-45 147.5q0 105 48 163.5t134 58.5q72 0 107 -29v-55h-3q-37 37 -99 37q-61 0 -96 -38.5t-39 -111.5h2q46 46 125 46zM218 295q44 0 70.5 25t26.5 66q0 40 -26 63.5t-70 23.5
q-80 0 -117 -64q5 -53 36 -83.5t80 -30.5z" />
    <glyph glyph-name="seven.numr" 
d="M377 614l-232 -360h-61l237 363h-259v47h315v-50z" />
    <glyph glyph-name="eight.numr" 
d="M293 467v-2q78 -24 78 -102q0 -54 -44 -84.5t-122 -30.5t-122 30.5t-44 84.5q0 76 79 99v2q-67 24 -67 94q0 52 41 82t113 30t113 -30t41 -82q0 -68 -66 -91zM103 553q0 -67 102 -67t102 67q0 33 -26.5 51.5t-75.5 18.5t-75.5 -18.5t-26.5 -51.5zM205 295q54 0 83.5 19
t29.5 54q0 72 -113 72t-113 -72q0 -35 29.5 -54t83.5 -19z" />
    <glyph glyph-name="nine.numr" 
d="M190 670q82 0 127 -52.5t45 -147.5q0 -105 -48 -163.5t-134 -58.5q-72 0 -107 29v55h3q37 -37 99 -37q61 0 96 38.5t39 111.5h-2q-46 -46 -125 -46q-64 0 -102.5 36t-38.5 96q0 63 40.5 101t107.5 38zM191 445q80 0 117 64q-5 53 -36 83.5t-80 30.5q-44 0 -70.5 -25
t-26.5 -66q0 -40 26 -63.5t70 -23.5z" />
    <glyph glyph-name="zero.dnom" 
d="M205 416q78 0 121 -55t43 -156t-43 -156t-121 -55t-121 55t-43 156t43 156t121 55zM205 369q-54 0 -83 -42.5t-29 -121.5t29 -121.5t83 -42.5t83 42.5t29 121.5t-29 121.5t-83 42.5z" />
    <glyph glyph-name="one.dnom" 
d="M294 0h-52v348l-110 -70v52l121 80h41v-410z" />
    <glyph glyph-name="two.dnom" 
d="M345 47v-47h-280v50l83 65q85 67 115 103.5t30 72.5q0 78 -97 78q-68 0 -122 -52h-3v57q53 42 127 42q71 0 109 -31.5t38 -89.5q0 -48 -33 -90.5t-128 -116.5l-49 -39v-2h210z" />
    <glyph glyph-name="three.dnom" 
d="M288 212v-2q71 -25 71 -99q0 -55 -41 -86t-115 -31q-96 0 -138 44v58h3q44 -55 134 -55q49 0 76 19.5t27 55.5q0 70 -99 70h-62v47h53q102 0 102 65q0 71 -100 71q-75 0 -123 -51h-3v57q49 41 131 41q69 0 108 -29.5t39 -82.5q0 -66 -63 -92z" />
    <glyph glyph-name="four.dnom" 
d="M329 83v-83h-52v83h-235v45l233 282h54v-280h57v-47h-57zM277 342l-177 -212h177v212z" />
    <glyph glyph-name="five.dnom" 
d="M210 264q71 0 110.5 -35t39.5 -98q0 -64 -42.5 -100.5t-116.5 -36.5q-96 0 -140 41v56h3q45 -50 134 -50q52 0 80.5 23.5t28.5 66.5q0 87 -116 87q-62 0 -114 -27h-3v219h260v-47h-212v-111q39 12 88 12z" />
    <glyph glyph-name="six.dnom" 
d="M227 265q64 0 102.5 -36t38.5 -96q0 -63 -40.5 -101t-107.5 -38q-82 0 -127 52.5t-45 147.5q0 105 48 163.5t134 58.5q72 0 107 -29v-55h-3q-37 37 -99 37q-61 0 -96 -38.5t-39 -111.5h2q46 46 125 46zM218 41q44 0 70.5 25t26.5 66q0 40 -26 63.5t-70 23.5
q-80 0 -117 -64q5 -53 36 -83.5t80 -30.5z" />
    <glyph glyph-name="seven.dnom" 
d="M377 360l-232 -360h-61l237 363h-259v47h315v-50z" />
    <glyph glyph-name="eight.dnom" 
d="M293 213v-2q78 -24 78 -102q0 -54 -44 -84.5t-122 -30.5t-122 30.5t-44 84.5q0 76 79 99v2q-67 24 -67 94q0 52 41 82t113 30t113 -30t41 -82q0 -68 -66 -91zM103 299q0 -67 102 -67t102 67q0 33 -26.5 51.5t-75.5 18.5t-75.5 -18.5t-26.5 -51.5zM205 41q54 0 83.5 19
t29.5 54q0 72 -113 72t-113 -72q0 -35 29.5 -54t83.5 -19z" />
    <glyph glyph-name="nine.dnom" 
d="M190 416q82 0 127 -52.5t45 -147.5q0 -105 -48 -163.5t-134 -58.5q-72 0 -107 29v55h3q37 -37 99 -37q61 0 96 38.5t39 111.5h-2q-46 -46 -125 -46q-64 0 -102.5 36t-38.5 96q0 63 40.5 101t107.5 38zM191 191q80 0 117 64q-5 53 -36 83.5t-80 30.5q-44 0 -70.5 -25
t-26.5 -66q0 -40 26 -63.5t70 -23.5z" />
    </font>
</defs>
</svg>
