<?xml version="1.0" standalone="no"?>
<!DOCTYPE svg PUBLIC "-//W3C//DTD SVG 1.1//EN" "http://www.w3.org/Graphics/SVG/1.1/DTD/svg11.dtd" >
<svg xmlns="http://www.w3.org/2000/svg" xmlns:xlink="http://www.w3.org/1999/xlink" version="1.1">
<metadata>
Created by FontForge 20150318 at Mon Aug 31 07:30:03 2015
 By uniteet7
Copyright (c) 2014 by Ryoichi Tsunekawa. All rights reserved.
</metadata>
<defs>
<font id="GraphieBold" horiz-adv-x="410" >
  <font-face 
    font-family="GraphieBold"
    font-weight="700"
    font-stretch="normal"
    units-per-em="1000"
    panose-1="2 11 8 3 2 2 4 2 2 4"
    ascent="750"
    descent="-250"
    x-height="470"
    cap-height="664"
    bbox="-186 -210 1076 925"
    underline-thickness="74"
    underline-position="-28"
    unicode-range="U+0020-FB03"
  />
<missing-glyph horiz-adv-x="620" 
d="M566 0h-512v664h512v-664zM493 623h-366l183 -254zM283 332l-184 256v-512zM337 332l184 -256v512zM493 41l-183 254l-183 -254h366z" />
    <glyph glyph-name="ff" unicode="ff" horiz-adv-x="693" 
d="M593 710q61 0 98 -16v-120h-5q-30 20 -73 20q-32 0 -50 -19t-18 -53v-52h135v-111h-135v-359h-131v359h-192v-359h-131v359h-78v111h78v46q0 89 46 136.5t133 47.5q61 0 98 -16v-120h-5q-30 20 -73 20q-32 0 -50 -19t-18 -53v-42h192v56q0 89 46 136.5t133 47.5z" />
    <glyph glyph-name="fi" unicode="fi" horiz-adv-x="608" 
d="M549 0h-131v359h-196v-359h-131v359h-78v111h78v56q0 88 45.5 136t128.5 48q56 0 93 -16v-120h-5q-30 20 -68 20q-29 0 -46 -19t-17 -53v-52h327v-470zM484 535q-35 0 -58 22.5t-23 58.5q0 35 23 57.5t58 22.5t58 -22.5t23 -57.5q0 -36 -23 -58.5t-58 -22.5z" />
    <glyph glyph-name="ffi" unicode="ffi" horiz-adv-x="931" 
d="M872 470v-470h-131v359h-196v-359h-131v359h-192v-359h-131v359h-78v111h78v46q0 89 46 136.5t133 47.5q61 0 98 -16v-120h-5q-30 20 -73 20q-32 0 -50 -19t-18 -53v-42h192v56q0 88 45.5 136t128.5 48q56 0 93 -16v-120h-5q-30 20 -68 20q-29 0 -46 -19t-17 -53v-52h327
zM807 535q-35 0 -58 22.5t-23 58.5q0 35 23 57.5t58 22.5t58 -22.5t23 -57.5q0 -36 -23 -58.5t-58 -22.5z" />
    <glyph glyph-name="f_j" unicode="fj" horiz-adv-x="608" 
d="M549 470v-514q0 -76 -37.5 -116t-106.5 -40q-36 0 -67 10v118h6q15 -12 35 -12q39 0 39 51v392h-196v-359h-131v359h-78v111h78v56q0 88 45.5 136t128.5 48q56 0 93 -16v-120h-5q-30 20 -68 20q-29 0 -46 -19t-17 -53v-52h327zM484 535q-35 0 -58 22.5t-23 58.5
q0 35 23 57.5t58 22.5t58 -22.5t23 -57.5q0 -36 -23 -58.5t-58 -22.5z" />
    <glyph glyph-name="f_f_j" unicode="ffj" horiz-adv-x="931" 
d="M872 470v-514q0 -76 -37.5 -116t-106.5 -40q-36 0 -67 10v118h6q15 -12 35 -12q39 0 39 51v392h-196v-359h-131v359h-192v-359h-131v359h-78v111h78v46q0 89 46 136.5t133 47.5q61 0 98 -16v-120h-5q-30 20 -73 20q-32 0 -50 -19t-18 -53v-42h192v56q0 88 45.5 136
t128.5 48q56 0 93 -16v-120h-5q-30 20 -68 20q-29 0 -46 -19t-17 -53v-52h327zM807 535q-35 0 -58 22.5t-23 58.5q0 35 23 57.5t58 22.5t58 -22.5t23 -57.5q0 -36 -23 -58.5t-58 -22.5z" />
    <glyph glyph-name=".notdef" horiz-adv-x="620" 
d="M566 0h-512v664h512v-664zM493 623h-366l183 -254zM283 332l-184 256v-512zM337 332l184 -256v512zM493 41l-183 254l-183 -254h366z" />
    <glyph glyph-name=".null" horiz-adv-x="0" 
 />
    <glyph glyph-name="nonmarkingreturn" horiz-adv-x="333" 
 />
    <glyph glyph-name="space" unicode=" " horiz-adv-x="220" 
 />
    <glyph glyph-name="exclam" unicode="!" horiz-adv-x="275" 
d="M76 214l-16 450h155l-16 -450h-123zM138 155q35 0 58.5 -24t23.5 -59t-23.5 -58.5t-58.5 -23.5q-36 0 -59.5 23.5t-23.5 58.5t23.5 59t59.5 24z" />
    <glyph glyph-name="quotedbl" unicode="&#x22;" horiz-adv-x="451" 
d="M74 365l-12 299h126l-12 -299h-102zM275 365l-12 299h126l-12 -299h-102z" />
    <glyph glyph-name="numbersign" unicode="#" horiz-adv-x="650" 
d="M473 266h120l-13 -90h-120l-25 -176h-99l25 176h-118l-25 -176h-99l25 176h-120l13 90h120l20 142h-120l13 90h120l23 166h99l-23 -166h118l23 166h99l-23 -166h120l-13 -90h-120zM276 408l-20 -142h118l20 142h-118z" />
    <glyph glyph-name="dollar" unicode="$" horiz-adv-x="650" 
d="M572 216q0 -84 -54.5 -132t-158.5 -56v-88h-65v87q-131 4 -208 53v140h7q71 -64 201 -70v121q-110 7 -160 48.5t-50 124.5q0 82 54.5 132t155.5 59v79h65v-77q119 -5 177 -44v-140h-7q-52 55 -170 61v-118q112 -9 162 -51.5t51 -128.5zM210 453q0 -22 20 -34t64 -17v111
q-84 -9 -84 -60zM359 265v-114q87 9 87 60q0 23 -20.5 36t-66.5 18z" />
    <glyph glyph-name="percent" unicode="%" horiz-adv-x="762" 
d="M185 674q71 0 111 -45t40 -120q0 -74 -40 -119t-111 -45t-111 45t-40 119q0 75 40 120t111 45zM116 0l428 664h102l-428 -664h-102zM185 595q-28 0 -44.5 -23t-16.5 -63q0 -39 16.5 -62t44.5 -23t44.5 23t16.5 62q0 40 -16.5 63t-44.5 23zM577 319q71 0 111 -45t40 -120
q0 -74 -40 -119t-111 -45t-111 45t-40 119q0 75 40 120t111 45zM577 240q-28 0 -44.5 -23t-16.5 -63q0 -39 16.5 -62t44.5 -23t44.5 23t16.5 62q0 40 -16.5 63t-44.5 23z" />
    <glyph glyph-name="ampersand" unicode="&#x26;" horiz-adv-x="645" 
d="M458 0l-32 37q-65 -47 -166 -47q-104 0 -162.5 49t-58.5 136q0 115 112 181q-64 76 -64 145q0 80 52.5 126.5t141.5 46.5t141 -44t52 -119q0 -58 -33 -101.5t-104 -77.5l112 -128q25 44 25 110q0 11 -2 33h126q1 -10 1 -29q0 -122 -72 -203l101 -115h-170zM260 419l8 -9
q52 23 73.5 44.5t21.5 49.5q0 26 -20.5 42t-52.5 16q-33 0 -53 -16.5t-20 -43.5q0 -37 43 -83zM268 106q46 0 85 15l-131 153q-51 -34 -51 -83q0 -41 25 -63t72 -22z" />
    <glyph glyph-name="quotesingle" unicode="'" horiz-adv-x="250" 
d="M74 365l-12 299h126l-12 -299h-102z" />
    <glyph glyph-name="parenleft" unicode="(" horiz-adv-x="403" 
d="M229 664h133q-146 -167 -146 -383t146 -383h-133q-73 79 -112.5 178t-39.5 205t39.5 205t112.5 178z" />
    <glyph glyph-name="parenright" unicode=")" horiz-adv-x="403" 
d="M174 -102h-133q146 167 146 383t-146 383h133q73 -79 112.5 -178t39.5 -205t-39.5 -205t-112.5 -178z" />
    <glyph glyph-name="asterisk" unicode="*" horiz-adv-x="466" 
d="M394 380l-94 -67l-67 133l-67 -133l-94 67l107 107l-149 24l36 108l132 -67l-23 148h116l-23 -148l132 67l36 -108l-149 -24z" />
    <glyph glyph-name="plus" unicode="+" horiz-adv-x="650" 
d="M383 242v-226h-116v226h-226v116h226v226h116v-226h226v-116h-226z" />
    <glyph glyph-name="comma" unicode="," horiz-adv-x="275" 
d="M-7 -106l92 251h135l-121 -251h-106z" />
    <glyph glyph-name="hyphen" unicode="-" horiz-adv-x="370" 
d="M42 208v132h286v-132h-286z" />
    <glyph glyph-name="period" unicode="." horiz-adv-x="275" 
d="M138 155q35 0 58.5 -24t23.5 -59t-23.5 -58.5t-58.5 -23.5q-36 0 -59.5 23.5t-23.5 58.5t23.5 59t59.5 24z" />
    <glyph glyph-name="slash" unicode="/" horiz-adv-x="425" 
d="M25 -80l259 774h116l-258 -774h-117z" />
    <glyph glyph-name="zero" unicode="0" horiz-adv-x="650" 
d="M325 674q131 0 203.5 -89.5t72.5 -252.5t-72.5 -252.5t-203.5 -89.5t-203.5 89.5t-72.5 252.5t72.5 252.5t203.5 89.5zM325 550q-65 0 -100 -56.5t-35 -161.5t35 -161.5t100 -56.5t100 56.5t35 161.5t-35 161.5t-100 56.5z" />
    <glyph glyph-name="one" unicode="1" horiz-adv-x="650" 
d="M492 0h-139v506l-205 -115v144l230 129h114v-664z" />
    <glyph glyph-name="two" unicode="2" horiz-adv-x="650" 
d="M563 124v-124h-473v130l161 127q100 79 135.5 121.5t35.5 84.5t-30.5 64.5t-86.5 22.5q-120 0 -200 -82h-7v148q83 58 206 58q125 0 192 -53t67 -151q0 -80 -46.5 -143.5t-168.5 -150.5l-71 -50v-2h286z" />
    <glyph glyph-name="three" unicode="3" horiz-adv-x="650" 
d="M481 338v-2q100 -47 100 -155q0 -90 -70 -140.5t-195 -50.5q-70 0 -130.5 17t-95.5 46v147h7q33 -40 91.5 -63t124.5 -23q61 0 93.5 23.5t32.5 66.5q0 38 -30.5 55t-99.5 17h-91v117h79q70 0 101 16t31 53q0 43 -31 65.5t-90 22.5q-55 0 -108 -21.5t-88 -59.5h-7v147
q80 58 218 58q116 0 181.5 -50t65.5 -139q0 -100 -89 -147z" />
    <glyph glyph-name="four" unicode="4" horiz-adv-x="650" 
d="M534 120v-120h-139v120h-349v117l343 427h145v-420h85v-124h-85zM395 497l-199 -253h199v253z" />
    <glyph glyph-name="five" unicode="5" horiz-adv-x="650" 
d="M340 430q114 0 178 -57.5t64 -158.5q0 -105 -71.5 -164.5t-198.5 -59.5q-152 0 -229 55v140h7q73 -71 216 -71q64 0 99 26t35 73q0 96 -161 96q-97 0 -169 -29h-7v384h436v-124h-315v-124q56 14 116 14z" />
    <glyph glyph-name="six" unicode="6" horiz-adv-x="650" 
d="M372 437q103 0 164 -59.5t61 -157.5q0 -103 -68.5 -166.5t-179.5 -63.5q-137 0 -212.5 85t-75.5 239q0 167 82 263.5t224 96.5q117 0 178 -43v-139h-7q-60 58 -157 58q-75 0 -121 -44.5t-56 -126.5h2q64 58 166 58zM345 114q50 0 80 28.5t30 75.5t-29.5 75t-79.5 28
q-93 0 -141 -71q5 -63 42 -99.5t98 -36.5z" />
    <glyph glyph-name="seven" unicode="7" horiz-adv-x="650" 
d="M604 534l-336 -534h-164l347 540h-388v124h541v-130z" />
    <glyph glyph-name="eight" unicode="8" horiz-adv-x="650" 
d="M494 345v-2q109 -44 109 -162q0 -90 -73.5 -140.5t-204.5 -50.5t-204.5 50.5t-73.5 140.5q0 108 111 148v2q-91 45 -91 154q0 89 68.5 139t189.5 50t189.5 -50t68.5 -139q0 -98 -89 -140zM325 550q-117 0 -117 -80q0 -40 28 -59t89 -19t89 19t28 59q0 80 -117 80z
M325 114q65 0 100.5 21t35.5 61q0 80 -136 80t-136 -80q0 -40 35.5 -61t100.5 -21z" />
    <glyph glyph-name="nine" unicode="9" horiz-adv-x="650" 
d="M301 674q137 0 212.5 -85t75.5 -239q0 -167 -82 -263.5t-224 -96.5q-117 0 -178 43v139h7q60 -58 157 -58q75 0 121 44.5t56 126.5h-2q-64 -58 -166 -58q-103 0 -164 59.5t-61 157.5q0 103 68.5 166.5t179.5 63.5zM304 343q93 0 141 71q-5 63 -42 99.5t-98 36.5
q-50 0 -80 -28.5t-30 -75.5t29.5 -75t79.5 -28z" />
    <glyph glyph-name="colon" unicode=":" horiz-adv-x="275" 
d="M138 155q35 0 58.5 -24t23.5 -59t-23.5 -58.5t-58.5 -23.5q-36 0 -59.5 23.5t-23.5 58.5t23.5 59t59.5 24zM138 470q35 0 58.5 -24t23.5 -59t-23.5 -58.5t-58.5 -23.5q-36 0 -59.5 23.5t-23.5 58.5t23.5 59t59.5 24z" />
    <glyph glyph-name="semicolon" unicode=";" horiz-adv-x="275" 
d="M-7 -106l92 251h135l-121 -251h-106zM138 470q35 0 58.5 -24t23.5 -59t-23.5 -58.5t-58.5 -23.5q-36 0 -59.5 23.5t-23.5 58.5t23.5 59t59.5 24z" />
    <glyph glyph-name="less" unicode="&#x3c;" horiz-adv-x="650" 
d="M232 299l352 -144v-127l-515 222v100l515 222v-126l-352 -145v-2z" />
    <glyph glyph-name="equal" unicode="=" horiz-adv-x="650" 
d="M57 375v116h536v-116h-536zM57 109v116h536v-116h-536z" />
    <glyph glyph-name="greater" unicode="&#x3e;" horiz-adv-x="650" 
d="M418 301l-352 144v127l515 -222v-100l-515 -222v126l352 145v2z" />
    <glyph glyph-name="question" unicode="?" horiz-adv-x="497" 
d="M229 674q113 0 178 -51.5t65 -142.5q0 -74 -47 -122.5t-151 -82.5v-61h-128v142q101 21 143 47.5t42 69.5q0 36 -27 56.5t-75 20.5q-119 0 -198 -82h-7v148q82 58 205 58zM210 155q35 0 58.5 -24t23.5 -59t-23.5 -58.5t-58.5 -23.5t-59 23.5t-24 58.5t24 59t59 24z" />
    <glyph glyph-name="at" unicode="@" horiz-adv-x="774" 
d="M568 450v-226q0 -43 30 -43t47.5 33.5t17.5 94.5q0 117 -70 188t-192 71q-118 0 -194.5 -82.5t-76.5 -209.5q0 -123 82 -201.5t209 -78.5q131 0 218 68h5v-77q-89 -57 -223 -57q-164 0 -269.5 97t-105.5 249q0 155 100.5 256.5t254.5 101.5t246 -91t92 -236
q0 -93 -42.5 -147.5t-109.5 -54.5q-68 0 -87 59h-2q-37 -59 -119 -59q-73 0 -120 49.5t-47 126.5t47 126.5t120 49.5q77 0 113 -52h2l2 45h72zM393 181q41 0 67 28t26 72t-26 71.5t-67 27.5q-42 0 -68 -27.5t-26 -71.5t26 -72t68 -28z" />
    <glyph glyph-name="A" unicode="A" horiz-adv-x="737" 
d="M564 0l-45 112h-305l-45 -112h-155l283 664h143l283 -664h-159zM367 494h-2l-101 -255h205z" />
    <glyph glyph-name="B" unicode="B" horiz-adv-x="648" 
d="M508 340v-2q110 -36 110 -153q0 -185 -236 -185h-311v664h286q117 0 177 -46.5t60 -136.5q0 -102 -86 -141zM219 396h126q100 0 100 69q0 67 -90 67h-136v-136zM219 132h158q91 0 91 69q0 71 -100 71h-149v-140z" />
    <glyph glyph-name="C" unicode="C" horiz-adv-x="637" 
d="M386 674q127 0 204 -52v-162h-7q-65 82 -190 82q-96 0 -154 -57.5t-58 -152.5t58 -152.5t154 -57.5q126 0 190 82h7v-162q-79 -52 -204 -52q-158 0 -256.5 95.5t-98.5 246.5t98.5 246.5t256.5 95.5z" />
    <glyph glyph-name="D" unicode="D" horiz-adv-x="722" 
d="M71 664h267q169 0 261.5 -87t92.5 -245t-92.5 -245t-261.5 -87h-267v664zM219 132h110q104 0 158.5 51t54.5 149t-54.5 149t-158.5 51h-110v-400z" />
    <glyph glyph-name="E" unicode="E" horiz-adv-x="616" 
d="M496 395v-124h-277v-139h349v-132h-497v664h497v-132h-349v-137h277z" />
    <glyph glyph-name="F" unicode="F" horiz-adv-x="598" 
d="M219 386h277v-132h-277v-254h-148v664h497v-132h-349v-146z" />
    <glyph glyph-name="G" unicode="G" horiz-adv-x="700" 
d="M407 542q-103 0 -164.5 -57t-61.5 -153t61.5 -153t164.5 -57q45 0 86 9v113h-146v124h289v-326q-91 -52 -235 -52q-170 0 -270 92.5t-100 249.5t100 249.5t270 92.5q144 0 235 -52v-162h-7q-85 82 -222 82z" />
    <glyph glyph-name="H" unicode="H" horiz-adv-x="734" 
d="M663 0h-149v268h-295v-268h-148v664h148v-264h295v264h149v-664z" />
    <glyph glyph-name="I" unicode="I" horiz-adv-x="290" 
d="M71 0v664h148v-664h-148z" />
    <glyph glyph-name="J" unicode="J" horiz-adv-x="512" 
d="M456 664v-425q0 -249 -249 -249q-108 0 -181 52v156h7q24 -34 67 -55t90 -21q118 0 118 132v410h148z" />
    <glyph glyph-name="K" unicode="K" horiz-adv-x="673" 
d="M219 282v-282h-148v664h148v-279l244 279h187l-297 -326l307 -338h-195z" />
    <glyph glyph-name="L" unicode="L" horiz-adv-x="580" 
d="M554 0h-483v664h148v-532h335v-132z" />
    <glyph glyph-name="M" unicode="M" horiz-adv-x="949" 
d="M878 0h-148v500h-2l-192 -500h-134l-186 486h-2v-486h-143v664h222l178 -463h2l178 463h227v-664z" />
    <glyph glyph-name="N" unicode="N" horiz-adv-x="741" 
d="M492 0l-276 493h-2v-493h-143v664h203l251 -446h2v446h143v-664h-178z" />
    <glyph glyph-name="O" unicode="O" horiz-adv-x="760" 
d="M380 674q154 0 251.5 -96t97.5 -246t-97.5 -246t-251.5 -96t-251.5 96t-97.5 246t97.5 246t251.5 96zM380 542q-88 0 -143.5 -58.5t-55.5 -151.5t55.5 -151.5t143.5 -58.5t143.5 58.5t55.5 151.5t-55.5 151.5t-143.5 58.5z" />
    <glyph glyph-name="P" unicode="P" horiz-adv-x="642" 
d="M71 664h293q251 0 251 -221q0 -220 -251 -220h-145v-223h-148v664zM219 355h138q108 0 108 88q0 89 -108 89h-138v-177z" />
    <glyph glyph-name="Q" unicode="Q" horiz-adv-x="758" 
d="M576 -76l-66 87q-60 -21 -130 -21q-154 0 -251.5 96t-97.5 246t97.5 246t251.5 96t251.5 -96t97.5 -246q0 -159 -108 -256l117 -152h-162zM380 122q25 0 42 4l-110 144h161l60 -79q46 57 46 141q0 93 -55.5 151.5t-143.5 58.5t-143.5 -58.5t-55.5 -151.5t55.5 -151.5
t143.5 -58.5z" />
    <glyph glyph-name="R" unicode="R" horiz-adv-x="669" 
d="M219 231v-231h-148v664h298q251 0 251 -217q0 -160 -139 -201l159 -246h-174l-135 231h-112zM219 363h144q107 0 107 84q0 85 -107 85h-144v-169z" />
    <glyph glyph-name="S" unicode="S" horiz-adv-x="590" 
d="M310 674q62 0 119.5 -13.5t88.5 -35.5v-153h-7q-69 71 -203 71q-55 0 -87 -19.5t-32 -53.5q0 -29 27.5 -43.5t100.5 -22.5q130 -14 185.5 -62t55.5 -144q0 -100 -69 -154t-197 -54q-166 0 -247 58v153h7q95 -80 235 -80q124 0 124 73q0 30 -28.5 45.5t-103.5 23.5
q-128 14 -182.5 60t-54.5 138q0 100 71 156.5t197 56.5z" />
    <glyph glyph-name="T" unicode="T" horiz-adv-x="595" 
d="M372 532v-532h-148v532h-198v132h543v-132h-197z" />
    <glyph glyph-name="U" unicode="U" horiz-adv-x="690" 
d="M634 664v-381q0 -293 -291 -293q-287 0 -287 293v381h148v-371q0 -171 143 -171q144 0 144 171v371h143z" />
    <glyph glyph-name="V" unicode="V" horiz-adv-x="697" 
d="M421 0h-145l-262 664h159l177 -473h2l176 473h155z" />
    <glyph glyph-name="W" unicode="W" horiz-adv-x="1010" 
d="M788 0h-151l-131 423h-2l-132 -423h-150l-205 664h156l130 -443h2l138 443h127l138 -446h2l131 446h152z" />
    <glyph glyph-name="X" unicode="X" horiz-adv-x="721" 
d="M198 0h-173l235 339l-225 325h179l149 -226l149 226h174l-226 -325l236 -339h-179l-159 242z" />
    <glyph glyph-name="Y" unicode="Y" horiz-adv-x="699" 
d="M424 0h-148v272l-272 392h179l169 -257l169 257h174l-271 -392v-272z" />
    <glyph glyph-name="Z" unicode="Z" horiz-adv-x="647" 
d="M601 0h-554v126l353 406h-333v132h529v-126l-353 -406h358v-132z" />
    <glyph glyph-name="bracketleft" unicode="[" horiz-adv-x="403" 
d="M350 -1v-101h-272v766h272v-102h-145v-563h145z" />
    <glyph glyph-name="backslash" unicode="\" horiz-adv-x="425" 
d="M284 -80l-259 774h117l258 -774h-116z" />
    <glyph glyph-name="bracketright" unicode="]" horiz-adv-x="403" 
d="M53 563v101h272v-766h-272v102h145v563h-145z" />
    <glyph glyph-name="asciicircum" unicode="^" horiz-adv-x="650" 
d="M175 276h-134l234 388h100l234 -388h-135l-149 257z" />
    <glyph glyph-name="underscore" unicode="_" horiz-adv-x="500" 
d="M0 -143v85h500v-85h-500z" />
    <glyph glyph-name="grave" unicode="`" horiz-adv-x="500" 
d="M201 538l-129 170h138l111 -170h-120z" />
    <glyph glyph-name="a" unicode="a" horiz-adv-x="587" 
d="M529 0h-109l-4 63h-2q-49 -73 -153 -73q-100 0 -165 69.5t-65 175.5t65 175.5t165 69.5q105 0 152 -71h2l5 61h109v-470zM283 106q53 0 86 36t33 93t-33 93t-86 36t-86.5 -36t-33.5 -93t33.5 -93t86.5 -36z" />
    <glyph glyph-name="b" unicode="b" horiz-adv-x="588" 
d="M327 480q100 0 165 -69.5t65 -175.5t-65 -175.5t-165 -69.5q-105 0 -153 72h-2l-5 -62h-109v700h131v-271h2q49 51 136 51zM305 106q54 0 87 36t33 93t-33 93t-87 36q-53 0 -86 -36t-33 -93t33 -93t86 -36z" />
    <glyph glyph-name="c" unicode="c" horiz-adv-x="476" 
d="M287 480q93 0 146 -35v-140h-5q-46 59 -127 59q-64 0 -101 -34.5t-37 -94.5q0 -59 37 -94t101 -35q82 0 127 60h5v-141q-50 -35 -146 -35q-114 0 -185 68.5t-71 176.5t71 176.5t185 68.5z" />
    <glyph glyph-name="d" unicode="d" horiz-adv-x="587" 
d="M529 0h-109l-4 63h-2q-49 -73 -153 -73q-100 0 -165 69.5t-65 175.5t65 175.5t165 69.5q85 0 135 -50h2v270h131v-700zM283 106q53 0 86 36t33 93t-33 93t-86 36t-86.5 -36t-33.5 -93t33.5 -93t86.5 -36z" />
    <glyph glyph-name="e" unicode="e" horiz-adv-x="544" 
d="M513 202h-350q10 -47 51 -73t102 -26q105 0 164 57h5v-126q-61 -44 -175 -44q-124 0 -201.5 68t-77.5 177q0 108 69 176.5t176 68.5q109 0 173 -60.5t64 -164.5v-53zM280 367q-43 0 -75 -23t-42 -63h232q-7 42 -37.5 64t-77.5 22z" />
    <glyph glyph-name="f" unicode="f" horiz-adv-x="370" 
d="M270 710q61 0 98 -16v-120h-5q-30 20 -73 20q-32 0 -50 -19t-18 -53v-52h135v-111h-135v-359h-131v359h-78v111h78v56q0 89 46 136.5t133 47.5z" />
    <glyph glyph-name="g" unicode="g" horiz-adv-x="587" 
d="M529 470v-432q0 -110 -70 -174t-192 -64t-189 51v132h5q26 -31 71 -49t97 -18q70 0 108.5 34t38.5 96v3h-2q-49 -51 -135 -51q-100 0 -165 67.5t-65 173.5t65 173.5t165 67.5q104 0 153 -72h2l4 62h109zM283 114q53 0 86 34t33 91t-33 91t-86 34q-54 0 -87 -34t-33 -91
t33 -91t87 -34z" />
    <glyph glyph-name="h" unicode="h" horiz-adv-x="553" 
d="M321 480q86 0 134.5 -53t48.5 -148v-279h-131v263q0 49 -23 75t-64 26q-46 0 -71.5 -29.5t-25.5 -84.5v-250h-131v700h131v-273h2q45 53 130 53z" />
    <glyph glyph-name="i" unicode="i" horiz-adv-x="248" 
d="M124 696q35 0 58 -22.5t23 -57.5q0 -36 -23 -58.5t-58 -22.5t-58 22.5t-23 58.5q0 35 23 57.5t58 22.5zM58 0v470h131v-470h-131z" />
    <glyph glyph-name="j" unicode="j" horiz-adv-x="248" 
d="M124 696q35 0 58 -22.5t23 -57.5q0 -36 -23 -58.5t-58 -22.5t-58 22.5t-23 58.5q0 35 23 57.5t58 22.5zM189 470v-514q0 -76 -37.5 -116t-106.5 -40q-36 0 -67 10v118h6q15 -12 35 -12q39 0 39 51v503h131z" />
    <glyph glyph-name="k" unicode="k" horiz-adv-x="534" 
d="M189 0h-131v700h131v-422l162 192h162l-204 -229l214 -241h-169l-165 197v-197z" />
    <glyph glyph-name="l" unicode="l" horiz-adv-x="247" 
d="M58 0v700h131v-700h-131z" />
    <glyph glyph-name="m" unicode="m" horiz-adv-x="837" 
d="M613 480q84 0 129.5 -52t45.5 -148v-280h-131v265q0 99 -79 99q-88 0 -88 -122v-242h-131v265q0 99 -80 99q-88 0 -88 -112v-252h-131v470h109l5 -63h2q42 73 138 73q98 0 143 -77h2q43 77 154 77z" />
    <glyph glyph-name="n" unicode="n" horiz-adv-x="553" 
d="M321 480q86 0 134.5 -53t48.5 -148v-279h-131v263q0 49 -23 75t-64 26q-46 0 -71.5 -29.5t-25.5 -84.5v-250h-131v470h109l5 -67h2q44 77 147 77z" />
    <glyph glyph-name="o" unicode="o" horiz-adv-x="565" 
d="M283 480q110 0 180.5 -68.5t70.5 -176.5q0 -107 -70.5 -176t-180.5 -69q-111 0 -181.5 69t-70.5 176q0 108 70.5 176.5t181.5 68.5zM283 364q-53 0 -86.5 -36t-33.5 -93t33.5 -93t86.5 -36t86 36t33 93t-33 93t-86 36z" />
    <glyph glyph-name="p" unicode="p" horiz-adv-x="588" 
d="M327 480q100 0 165 -69.5t65 -175.5t-65 -175.5t-165 -69.5q-87 0 -136 51h-2v-231h-131v660h109l5 -62h2q47 72 153 72zM305 106q54 0 87 36t33 93t-33 93t-87 36q-53 0 -86 -36t-33 -93t33 -93t86 -36z" />
    <glyph glyph-name="q" unicode="q" horiz-adv-x="587" 
d="M529 -190h-131v231h-2q-49 -51 -135 -51q-100 0 -165 69.5t-65 175.5t65 175.5t165 69.5q104 0 153 -72h2l4 62h109v-660zM283 106q53 0 86 36t33 93t-33 93t-86 36t-86.5 -36t-33.5 -93t33.5 -93t86.5 -36z" />
    <glyph glyph-name="r" unicode="r" horiz-adv-x="395" 
d="M315 480q46 0 69 -18v-128h-5q-31 22 -74 22q-60 0 -88 -37.5t-28 -116.5v-202h-131v470h109l6 -73h2q39 83 140 83z" />
    <glyph glyph-name="s" unicode="s" horiz-adv-x="438" 
d="M233 480q90 0 148 -30v-125h-5q-47 47 -140 47q-76 0 -76 -44q0 -16 16.5 -23.5t61.5 -10.5q93 -6 133.5 -41t40.5 -110q0 -72 -51 -112.5t-142 -40.5q-118 0 -178 42v126h6q55 -60 166 -60q76 0 76 45q0 19 -18.5 28t-67.5 13q-90 8 -128 39.5t-38 100.5
q0 71 53.5 113.5t142.5 42.5z" />
    <glyph glyph-name="t" unicode="t" horiz-adv-x="391" 
d="M358 133v-127q-33 -16 -92 -16q-86 0 -130.5 46t-44.5 135v188h-78v111h82l17 132h110v-132h135v-111h-135v-183q0 -34 17 -52t48 -18q40 0 66 27h5z" />
    <glyph glyph-name="u" unicode="u" horiz-adv-x="552" 
d="M494 0h-109l-5 67h-2q-44 -77 -146 -77q-86 0 -134.5 53.5t-48.5 148.5v278h131v-263q0 -49 23 -75t64 -26q45 0 70.5 30t25.5 84v250h131v-470z" />
    <glyph glyph-name="v" unicode="v" horiz-adv-x="508" 
d="M321 0h-133l-182 470h140l109 -325h2l110 325h135z" />
    <glyph glyph-name="w" unicode="w" horiz-adv-x="768" 
d="M762 470l-157 -470h-125l-94 284h-2l-95 -284h-125l-158 470h139l88 -303h2l101 303h103l100 -303h2l88 303h133z" />
    <glyph glyph-name="x" unicode="x" horiz-adv-x="548" 
d="M271 158l-106 -158h-152l178 242l-168 228h158l97 -143l96 143h151l-167 -228l177 -242h-158z" />
    <glyph glyph-name="y" unicode="y" horiz-adv-x="508" 
d="M233 -190h-135l89 205l-181 455h140l110 -310h2l109 310h135z" />
    <glyph glyph-name="z" unicode="z" horiz-adv-x="497" 
d="M41 0v105l237 254h-222v111h395v-105l-237 -254h242v-111h-415z" />
    <glyph glyph-name="braceleft" unicode="{" horiz-adv-x="419" 
d="M254 512v-71q0 -130 -81 -159v-2q81 -29 81 -159v-71q0 -50 50 -50h61v-102h-85q-79 0 -116 37t-37 115v91q0 48 -19 68.5t-61 20.5h-23v102h23q42 0 61 20.5t19 68.5v91q0 78 37 115t116 37h85v-102h-61q-50 0 -50 -50z" />
    <glyph glyph-name="bar" unicode="|" horiz-adv-x="335" 
d="M119 -190v890h97v-890h-97z" />
    <glyph glyph-name="braceright" unicode="}" horiz-adv-x="419" 
d="M165 50v71q0 130 81 159v2q-81 29 -81 159v71q0 50 -50 50h-61v102h85q79 0 116 -37t37 -115v-91q0 -48 19 -68.5t61 -20.5h23v-102h-23q-42 0 -61 -20.5t-19 -68.5v-91q0 -78 -37 -115t-116 -37h-85v102h61q50 0 50 50z" />
    <glyph glyph-name="asciitilde" unicode="~" horiz-adv-x="650" 
d="M212 405q37 0 69.5 -13t76.5 -45q49 -36 78 -36q23 0 45 21.5t50 72.5l95 -56q-79 -154 -188 -154q-37 0 -69.5 13t-76.5 45q-49 36 -78 36q-23 0 -45 -21.5t-50 -72.5l-95 56q79 154 188 154z" />
    <glyph glyph-name="uni00A0" unicode="&#xa0;" horiz-adv-x="220" 
 />
    <glyph glyph-name="exclamdown" unicode="&#xa1;" horiz-adv-x="275" 
d="M199 450l16 -450h-155l16 450h123zM137 509q-35 0 -58.5 24t-23.5 59t23.5 58.5t58.5 23.5q36 0 59.5 -23.5t23.5 -58.5t-23.5 -59t-59.5 -24z" />
    <glyph glyph-name="cent" unicode="&#xa2;" horiz-adv-x="650" 
d="M541 356h-7q-44 53 -115 60v-264q72 9 115 61h7v-150q-38 -29 -122 -35v-88h-65v88q-116 7 -186 76.5t-70 179.5t70 179.5t186 76.5v88h65v-88q78 -6 122 -36v-148zM239 284q0 -53 30 -87t85 -43v260q-55 -8 -85 -42t-30 -88z" />
    <glyph glyph-name="sterling" unicode="&#xa3;" horiz-adv-x="650" 
d="M399 550q-50 0 -77 -29.5t-27 -84.5v-53h194v-109h-194q-4 -103 -70 -148v-2h340v-124h-476v130q36 21 51.5 49.5t15.5 75.5v19h-67v109h67v68q0 107 57.5 165t163.5 58q111 0 188 -48v-147h-7q-68 71 -159 71z" />
    <glyph glyph-name="currency" unicode="&#xa4;" horiz-adv-x="650" 
d="M522 332q0 -53 -25 -98l72 -69l-77 -77l-69 72q-45 -25 -98 -25t-98 25l-69 -72l-77 77l72 69q-25 45 -25 98t25 98l-72 69l77 77l69 -72q45 25 98 25t98 -25l69 72l77 -77l-72 -69q25 -45 25 -98zM325 237q40 0 66.5 27t26.5 68t-26.5 68t-66.5 27t-66.5 -27t-26.5 -68
t26.5 -68t66.5 -27z" />
    <glyph glyph-name="yen" unicode="&#xa5;" horiz-adv-x="650" 
d="M581 355v-89h-186v-67h186v-89h-186v-110h-139v110h-187v89h187v67h-187v89h179l-215 309h168l127 -199l127 199h162l-215 -309h179z" />
    <glyph glyph-name="brokenbar" unicode="&#xa6;" horiz-adv-x="335" 
d="M119 310v390h97v-390h-97zM119 -190v390h97v-390h-97z" />
    <glyph glyph-name="section" unicode="&#xa7;" horiz-adv-x="552" 
d="M426 193v-2q52 -40 52 -125q0 -79 -55.5 -123.5t-153.5 -44.5q-123 0 -191 42v119h5q65 -56 180 -56q45 0 70.5 16.5t25.5 45.5q0 25 -24 38.5t-85 20.5q-103 13 -147.5 51.5t-44.5 110.5q0 85 72 130v2q-56 37 -56 121q0 80 56.5 125.5t155.5 45.5q100 0 162 -33v-117
h-5q-52 46 -154 46q-45 0 -70.5 -17t-25.5 -46q0 -23 22.5 -34.5t80.5 -18.5q107 -13 152.5 -53.5t45.5 -117.5q0 -83 -68 -126zM315 231q59 16 59 75q0 33 -26.5 49t-97.5 25q-33 -5 -52.5 -26t-19.5 -52q0 -30 24.5 -44.5t90.5 -23.5z" />
    <glyph glyph-name="dieresis" unicode="&#xa8;" horiz-adv-x="500" 
d="M144 690q33 0 54 -21t21 -53t-21 -53.5t-54 -21.5t-53 21t-20 54q0 32 20 53t53 21zM356 690q33 0 53 -21t20 -53q0 -33 -20 -54t-53 -21t-54 21.5t-21 53.5t21 53t54 21z" />
    <glyph glyph-name="copyright" unicode="&#xa9;" horiz-adv-x="776" 
d="M388 674q147 0 244.5 -97.5t97.5 -244.5t-97.5 -244.5t-244.5 -97.5t-244.5 97.5t-97.5 244.5t97.5 244.5t244.5 97.5zM388 597q-112 0 -185 -74.5t-73 -190.5t73 -190.5t185 -74.5t185 74.5t73 190.5t-73 190.5t-185 74.5zM399 512q65 0 106 -25v-96h-5q-33 43 -97 43
q-46 0 -74 -28t-28 -74t28 -74t74 -28q65 0 97 43h5v-96q-41 -25 -106 -25q-83 0 -135 50.5t-52 129.5t52 129.5t135 50.5z" />
    <glyph glyph-name="ordfeminine" unicode="&#xaa;" horiz-adv-x="440" 
d="M386 338h-86l-2 35h-2q-35 -43 -99 -43q-70 0 -116 49t-46 124q0 74 46 122.5t116 48.5q65 0 99 -43h2l2 34h86v-327zM211 421q34 0 54.5 22.5t20.5 59.5q0 36 -20.5 58t-54.5 22q-32 0 -52.5 -22t-20.5 -58q0 -37 20.5 -59.5t52.5 -22.5z" />
    <glyph glyph-name="guillemotleft" unicode="&#xab;" horiz-adv-x="517" 
d="M244 146v-134l-217 219v8l217 220v-134l-97 -90zM469 146v-134l-217 219v8l217 220v-134l-97 -90z" />
    <glyph glyph-name="logicalnot" unicode="&#xac;" horiz-adv-x="650" 
d="M598 92h-116v220h-430v116h546v-336z" />
    <glyph glyph-name="uni00AD" unicode="&#xad;" horiz-adv-x="370" 
d="M42 208v132h286v-132h-286z" />
    <glyph glyph-name="registered" unicode="&#xae;" horiz-adv-x="776" 
d="M388 674q147 0 244.5 -97.5t97.5 -244.5t-97.5 -244.5t-244.5 -97.5t-244.5 97.5t-97.5 244.5t97.5 244.5t244.5 97.5zM388 67q112 0 185 74.5t73 190.5t-73 190.5t-185 74.5t-185 -74.5t-73 -190.5t73 -190.5t185 -74.5zM544 391q0 -85 -72 -108l83 -126h-104l-65 117
h-47v-117h-87v350h158q134 0 134 -116zM339 349h66q50 0 50 39q0 41 -50 41h-66v-80z" />
    <glyph glyph-name="macron" unicode="&#xaf;" horiz-adv-x="500" 
d="M86 564v103h328v-103h-328z" />
    <glyph glyph-name="degree" unicode="&#xb0;" horiz-adv-x="389" 
d="M195 674q65 0 108 -43t43 -108t-43 -108.5t-108 -43.5t-108.5 43.5t-43.5 108.5t43.5 108t108.5 43zM195 594q-30 0 -49 -20t-19 -51q0 -32 19 -52t49 -20t49 20t19 52q0 31 -19 51t-49 20z" />
    <glyph glyph-name="plusminus" unicode="&#xb1;" horiz-adv-x="650" 
d="M383 116h215v-116h-546v116h215v174h-215v116h215v202h116v-202h215v-116h-215v-174z" />
    <glyph glyph-name="twosuperior" unicode="&#xb2;" 
d="M349 474v-86h-287v90l101 78q54 42 72.5 64.5t18.5 47.5q0 50 -68 50q-66 0 -114 -50h-5v102q49 34 123 34q76 0 117.5 -33t41.5 -94q0 -45 -24.5 -79.5t-95.5 -89.5l-42 -32v-2h162z" />
    <glyph glyph-name="threesuperior" unicode="&#xb3;" 
d="M303 598v-2q57 -29 57 -95q0 -56 -42.5 -87.5t-118.5 -31.5q-92 0 -135 37v102h5q43 -53 128 -53q68 0 68 46q0 42 -72 42h-53v78h46q74 0 74 40q0 44 -66 44q-71 0 -117 -49h-5v101q50 34 133 34q71 0 110 -31t39 -86q0 -60 -51 -89z" />
    <glyph glyph-name="acute" unicode="&#xb4;" horiz-adv-x="500" 
d="M180 538l111 170h138l-129 -170h-120z" />
    <glyph glyph-name="uni00B5" unicode="&#xb5;" horiz-adv-x="568" 
d="M507 0h-109l-5 67h-2q-43 -77 -147 -77q-28 0 -52 6v-186h-131v660h131v-263q0 -49 23 -75t64 -26q47 0 72 29.5t25 84.5v250h131v-470z" />
    <glyph glyph-name="paragraph" unicode="&#xb6;" horiz-adv-x="594" 
d="M504 617v-807h-86v807h-101v-807h-86v452q-199 23 -199 217q0 221 251 221h274v-83h-53z" />
    <glyph glyph-name="periodcentered" unicode="&#xb7;" horiz-adv-x="275" 
d="M138 415q35 0 58.5 -24t23.5 -59t-23.5 -58.5t-58.5 -23.5q-36 0 -59.5 23.5t-23.5 58.5t23.5 59t59.5 24z" />
    <glyph glyph-name="cedilla" unicode="&#xb8;" horiz-adv-x="500" 
d="M260 -47v-2q99 0 99 -74q0 -77 -123 -77q-56 0 -90 14v67h5q35 -19 80 -19q16 0 25 6.5t9 16.5q0 24 -37 24q-23 0 -47 -6v15l47 82h59z" />
    <glyph glyph-name="onesuperior" unicode="&#xb9;" 
d="M312 388h-94v299l-103 -62v94l121 79h76v-410z" />
    <glyph glyph-name="ordmasculine" unicode="&#xba;" horiz-adv-x="424" 
d="M211 674q79 0 128.5 -48t49.5 -123q0 -77 -49.5 -125t-128.5 -48q-77 0 -126.5 48.5t-49.5 124.5q0 75 49.5 123t126.5 48zM211 583q-32 0 -52.5 -22t-20.5 -58q0 -37 20.5 -59.5t52.5 -22.5q34 0 54.5 22.5t20.5 59.5q0 36 -20.5 58t-54.5 22z" />
    <glyph glyph-name="guillemotright" unicode="&#xbb;" horiz-adv-x="517" 
d="M273 324v134l217 -219v-8l-217 -220v134l97 90zM48 324v134l217 -219v-8l-217 -220v134l97 90z" />
    <glyph glyph-name="onequarter" unicode="&#xbc;" horiz-adv-x="978" 
d="M265 0l430 664h100l-430 -664h-100zM901 71v-71h-94v71h-200v82l197 257h97v-253h50v-86h-50zM807 294l-106 -137h106v137zM312 254h-94v299l-103 -62v94l121 79h76v-410z" />
    <glyph glyph-name="onehalf" unicode="&#xbd;" horiz-adv-x="978" 
d="M224 0l430 664h100l-430 -664h-100zM917 86v-86h-287v90l101 78q54 42 72.5 64.5t18.5 47.5q0 50 -68 50q-66 0 -114 -50h-5v102q49 34 123 34q76 0 117.5 -33t41.5 -94q0 -45 -24.5 -79.5t-95.5 -89.5l-42 -32v-2h162zM312 254h-94v299l-103 -62v94l121 79h76v-410z" />
    <glyph glyph-name="threequarters" unicode="&#xbe;" horiz-adv-x="978" 
d="M267 0l430 664h100l-430 -664h-100zM901 71v-71h-94v71h-200v82l197 257h97v-253h50v-86h-50zM807 294l-106 -137h106v137zM303 464v-2q57 -29 57 -95q0 -56 -42.5 -87.5t-118.5 -31.5q-92 0 -135 37v102h5q43 -53 128 -53q68 0 68 46q0 42 -72 42h-53v78h46q74 0 74 40
q0 44 -66 44q-71 0 -117 -49h-5v101q50 34 133 34q71 0 110 -31t39 -86q0 -60 -51 -89z" />
    <glyph glyph-name="questiondown" unicode="&#xbf;" horiz-adv-x="497" 
d="M268 -10q-113 0 -178 51.5t-65 142.5q0 74 47 122.5t151 82.5v61h128v-142q-101 -21 -143 -47.5t-42 -69.5q0 -36 27 -56.5t75 -20.5q119 0 198 82h7v-148q-82 -58 -205 -58zM287 509q-35 0 -58.5 24t-23.5 59t23.5 58.5t58.5 23.5t59 -23.5t24 -58.5t-24 -59t-59 -24z
" />
    <glyph glyph-name="Agrave" unicode="&#xc0;" horiz-adv-x="737" 
d="M564 0l-45 112h-305l-45 -112h-155l283 664h143l283 -664h-159zM367 494h-2l-101 -255h205zM315 724l-129 170h138l111 -170h-120z" />
    <glyph glyph-name="Aacute" unicode="&#xc1;" horiz-adv-x="737" 
d="M564 0l-45 112h-305l-45 -112h-155l283 664h143l283 -664h-159zM367 494h-2l-101 -255h205zM302 724l111 170h138l-129 -170h-120z" />
    <glyph glyph-name="Acircumflex" unicode="&#xc2;" horiz-adv-x="737" 
d="M564 0l-45 112h-305l-45 -112h-155l283 664h143l283 -664h-159zM367 494h-2l-101 -255h205zM369 804l-64 -80h-120l123 170h121l123 -170h-120z" />
    <glyph glyph-name="Atilde" unicode="&#xc3;" horiz-adv-x="737" 
d="M564 0l-45 112h-305l-45 -112h-155l283 664h143l283 -664h-159zM367 494h-2l-101 -255h205zM533 885v-101q-34 -56 -93 -56q-38 0 -81 24q-38 21 -68 21q-52 0 -81 -55h-5v101q32 56 93 56q38 0 81 -24q38 -21 68 -21q50 0 81 55h5z" />
    <glyph glyph-name="Adieresis" unicode="&#xc4;" horiz-adv-x="737" 
d="M564 0l-45 112h-305l-45 -112h-155l283 664h143l283 -664h-159zM367 494h-2l-101 -255h205zM263 876q33 0 54 -21t21 -53t-21 -53.5t-54 -21.5t-53 21t-20 54q0 32 20 53t53 21zM475 876q33 0 53 -21t20 -53q0 -33 -20 -54t-53 -21t-54 21.5t-21 53.5t21 53t54 21z" />
    <glyph glyph-name="Aring" unicode="&#xc5;" horiz-adv-x="737" 
d="M564 0l-45 112h-305l-45 -112h-155l283 664h143l283 -664h-159zM367 494h-2l-101 -255h205zM369 918q48 0 78.5 -30.5t30.5 -78.5t-30.5 -78.5t-78.5 -30.5t-78.5 30.5t-30.5 78.5t30.5 78.5t78.5 30.5zM369 850q-18 0 -29.5 -11t-11.5 -30t11.5 -30t29.5 -11t29.5 11
t11.5 30t-11.5 30t-29.5 11z" />
    <glyph glyph-name="AE" unicode="&#xc6;" horiz-adv-x="1050" 
d="M653 395h277v-124h-277v-139h349v-132h-497v112h-261l-72 -112h-168l441 664h557v-132h-349v-137zM505 517h-2l-178 -278h180v278z" />
    <glyph glyph-name="Ccedilla" unicode="&#xc7;" horiz-adv-x="637" 
d="M393 542q-96 0 -154 -57.5t-58 -152.5t58 -152.5t154 -57.5q126 0 190 82h7v-162q-76 -51 -195 -52l-21 -37v-2q99 0 99 -74q0 -77 -123 -77q-56 0 -90 14v67h5q35 -19 80 -19q16 0 25 6.5t9 16.5q0 24 -37 24q-23 0 -47 -6v15l43 75q-139 14 -223 107.5t-84 231.5
q0 151 98.5 246.5t256.5 95.5q127 0 204 -52v-162h-7q-65 82 -190 82z" />
    <glyph glyph-name="Egrave" unicode="&#xc8;" horiz-adv-x="616" 
d="M496 395v-124h-277v-139h349v-132h-497v664h497v-132h-349v-137h277zM265 724l-129 170h138l111 -170h-120z" />
    <glyph glyph-name="Eacute" unicode="&#xc9;" horiz-adv-x="616" 
d="M496 395v-124h-277v-139h349v-132h-497v664h497v-132h-349v-137h277zM252 724l111 170h138l-129 -170h-120z" />
    <glyph glyph-name="Ecircumflex" unicode="&#xca;" horiz-adv-x="616" 
d="M496 395v-124h-277v-139h349v-132h-497v664h497v-132h-349v-137h277zM319 804l-64 -80h-120l123 170h121l123 -170h-120z" />
    <glyph glyph-name="Edieresis" unicode="&#xcb;" horiz-adv-x="616" 
d="M496 395v-124h-277v-139h349v-132h-497v664h497v-132h-349v-137h277zM213 876q33 0 54 -21t21 -53t-21 -53.5t-54 -21.5t-53 21t-20 54q0 32 20 53t53 21zM425 876q33 0 53 -21t20 -53q0 -33 -20 -54t-53 -21t-54 21.5t-21 53.5t21 53t54 21z" />
    <glyph glyph-name="Igrave" unicode="&#xcc;" horiz-adv-x="290" 
d="M71 0v664h148v-664h-148zM91 724l-129 170h138l111 -170h-120z" />
    <glyph glyph-name="Iacute" unicode="&#xcd;" horiz-adv-x="290" 
d="M71 0v664h148v-664h-148zM78 724l111 170h138l-129 -170h-120z" />
    <glyph glyph-name="Icircumflex" unicode="&#xce;" horiz-adv-x="290" 
d="M71 0v664h148v-664h-148zM145 804l-64 -80h-120l123 170h121l123 -170h-120z" />
    <glyph glyph-name="Idieresis" unicode="&#xcf;" horiz-adv-x="290" 
d="M71 0v664h148v-664h-148zM39 876q33 0 54 -21t21 -53t-21 -53.5t-54 -21.5t-53 21t-20 54q0 32 20 53t53 21zM251 876q33 0 53 -21t20 -53q0 -33 -20 -54t-53 -21t-54 21.5t-21 53.5t21 53t54 21z" />
    <glyph glyph-name="Eth" unicode="&#xd0;" horiz-adv-x="739" 
d="M88 664h267q169 0 261.5 -87t92.5 -245t-92.5 -245t-261.5 -87h-267v277h-69v115h69v272zM236 132h110q104 0 158.5 51t54.5 149t-54.5 149t-158.5 51h-110v-140h144v-115h-144v-145z" />
    <glyph glyph-name="Ntilde" unicode="&#xd1;" horiz-adv-x="741" 
d="M492 0l-276 493h-2v-493h-143v664h203l251 -446h2v446h143v-664h-178zM534 885v-101q-34 -56 -93 -56q-38 0 -81 24q-38 21 -68 21q-52 0 -81 -55h-5v101q32 56 93 56q38 0 81 -24q38 -21 68 -21q50 0 81 55h5z" />
    <glyph glyph-name="Ograve" unicode="&#xd2;" horiz-adv-x="760" 
d="M380 674q154 0 251.5 -96t97.5 -246t-97.5 -246t-251.5 -96t-251.5 96t-97.5 246t97.5 246t251.5 96zM380 542q-88 0 -143.5 -58.5t-55.5 -151.5t55.5 -151.5t143.5 -58.5t143.5 58.5t55.5 151.5t-55.5 151.5t-143.5 58.5zM326 724l-129 170h138l111 -170h-120z" />
    <glyph glyph-name="Oacute" unicode="&#xd3;" horiz-adv-x="760" 
d="M380 674q154 0 251.5 -96t97.5 -246t-97.5 -246t-251.5 -96t-251.5 96t-97.5 246t97.5 246t251.5 96zM380 542q-88 0 -143.5 -58.5t-55.5 -151.5t55.5 -151.5t143.5 -58.5t143.5 58.5t55.5 151.5t-55.5 151.5t-143.5 58.5zM313 724l111 170h138l-129 -170h-120z" />
    <glyph glyph-name="Ocircumflex" unicode="&#xd4;" horiz-adv-x="760" 
d="M380 674q154 0 251.5 -96t97.5 -246t-97.5 -246t-251.5 -96t-251.5 96t-97.5 246t97.5 246t251.5 96zM380 542q-88 0 -143.5 -58.5t-55.5 -151.5t55.5 -151.5t143.5 -58.5t143.5 58.5t55.5 151.5t-55.5 151.5t-143.5 58.5zM380 804l-64 -80h-120l123 170h121l123 -170
h-120z" />
    <glyph glyph-name="Otilde" unicode="&#xd5;" horiz-adv-x="760" 
d="M380 674q154 0 251.5 -96t97.5 -246t-97.5 -246t-251.5 -96t-251.5 96t-97.5 246t97.5 246t251.5 96zM380 542q-88 0 -143.5 -58.5t-55.5 -151.5t55.5 -151.5t143.5 -58.5t143.5 58.5t55.5 151.5t-55.5 151.5t-143.5 58.5zM544 885v-101q-34 -56 -93 -56q-38 0 -81 24
q-38 21 -68 21q-52 0 -81 -55h-5v101q32 56 93 56q38 0 81 -24q38 -21 68 -21q50 0 81 55h5z" />
    <glyph glyph-name="Odieresis" unicode="&#xd6;" horiz-adv-x="760" 
d="M380 674q154 0 251.5 -96t97.5 -246t-97.5 -246t-251.5 -96t-251.5 96t-97.5 246t97.5 246t251.5 96zM380 542q-88 0 -143.5 -58.5t-55.5 -151.5t55.5 -151.5t143.5 -58.5t143.5 58.5t55.5 151.5t-55.5 151.5t-143.5 58.5zM274 876q33 0 54 -21t21 -53t-21 -53.5
t-54 -21.5t-53 21t-20 54q0 32 20 53t53 21zM486 876q33 0 53 -21t20 -53q0 -33 -20 -54t-53 -21t-54 21.5t-21 53.5t21 53t54 21z" />
    <glyph glyph-name="multiply" unicode="&#xd7;" horiz-adv-x="650" 
d="M595 112l-82 -82l-188 188l-188 -188l-82 82l188 188l-188 188l82 82l188 -188l188 188l82 -82l-188 -188z" />
    <glyph glyph-name="Oslash" unicode="&#xd8;" horiz-adv-x="760" 
d="M729 664l-84 -100q84 -95 84 -232q0 -150 -97.5 -246t-251.5 -96q-101 0 -179 43l-28 -33h-142l84 100q-84 95 -84 232q0 150 97.5 246t251.5 96q101 0 179 -43l28 33h142zM181 332q0 -66 30 -117l258 308q-41 19 -89 19q-88 0 -143.5 -58.5t-55.5 -151.5zM579 332
q0 66 -30 117l-258 -308q41 -19 89 -19q88 0 143.5 58.5t55.5 151.5z" />
    <glyph glyph-name="Ugrave" unicode="&#xd9;" horiz-adv-x="690" 
d="M634 664v-381q0 -293 -291 -293q-287 0 -287 293v381h148v-371q0 -171 143 -171q144 0 144 171v371h143zM291 724l-129 170h138l111 -170h-120z" />
    <glyph glyph-name="Uacute" unicode="&#xda;" horiz-adv-x="690" 
d="M634 664v-381q0 -293 -291 -293q-287 0 -287 293v381h148v-371q0 -171 143 -171q144 0 144 171v371h143zM278 724l111 170h138l-129 -170h-120z" />
    <glyph glyph-name="Ucircumflex" unicode="&#xdb;" horiz-adv-x="690" 
d="M634 664v-381q0 -293 -291 -293q-287 0 -287 293v381h148v-371q0 -171 143 -171q144 0 144 171v371h143zM345 804l-64 -80h-120l123 170h121l123 -170h-120z" />
    <glyph glyph-name="Udieresis" unicode="&#xdc;" horiz-adv-x="690" 
d="M634 664v-381q0 -293 -291 -293q-287 0 -287 293v381h148v-371q0 -171 143 -171q144 0 144 171v371h143zM239 876q33 0 54 -21t21 -53t-21 -53.5t-54 -21.5t-53 21t-20 54q0 32 20 53t53 21zM451 876q33 0 53 -21t20 -53q0 -33 -20 -54t-53 -21t-54 21.5t-21 53.5t21 53
t54 21z" />
    <glyph glyph-name="Yacute" unicode="&#xdd;" horiz-adv-x="699" 
d="M424 0h-148v272l-272 392h179l169 -257l169 257h174l-271 -392v-272zM283 724l111 170h138l-129 -170h-120z" />
    <glyph glyph-name="Thorn" unicode="&#xde;" horiz-adv-x="642" 
d="M219 567h145q124 0 187.5 -56t63.5 -165t-63.5 -165t-187.5 -56h-145v-125h-148v664h148v-97zM219 257h138q108 0 108 89t-108 89h-138v-178z" />
    <glyph glyph-name="germandbls" unicode="&#xdf;" horiz-adv-x="554" 
d="M267 710q89 0 141 -45t52 -123q0 -86 -63 -141q-27 -23 -27 -42q0 -13 10 -21t39 -18q63 -21 91.5 -61.5t28.5 -108.5q0 -78 -46 -119t-133 -41q-85 0 -137 29v133h5q49 -46 118 -46q64 0 64 44q0 24 -13.5 38.5t-50.5 27.5q-56 20 -78 50.5t-22 86.5q0 67 56 120
q34 33 34 58q0 63 -68 63q-79 0 -79 -85v-509h-131v515q0 195 209 195z" />
    <glyph glyph-name="agrave" unicode="&#xe0;" horiz-adv-x="587" 
d="M529 0h-109l-4 63h-2q-49 -73 -153 -73q-100 0 -165 69.5t-65 175.5t65 175.5t165 69.5q105 0 152 -71h2l5 61h109v-470zM283 106q53 0 86 36t33 93t-33 93t-86 36t-86.5 -36t-33.5 -93t33.5 -93t86.5 -36zM226 538l-129 170h138l111 -170h-120z" />
    <glyph glyph-name="aacute" unicode="&#xe1;" horiz-adv-x="587" 
d="M529 0h-109l-4 63h-2q-49 -73 -153 -73q-100 0 -165 69.5t-65 175.5t65 175.5t165 69.5q105 0 152 -71h2l5 61h109v-470zM283 106q53 0 86 36t33 93t-33 93t-86 36t-86.5 -36t-33.5 -93t33.5 -93t86.5 -36zM213 538l111 170h138l-129 -170h-120z" />
    <glyph glyph-name="acircumflex" unicode="&#xe2;" horiz-adv-x="587" 
d="M529 0h-109l-4 63h-2q-49 -73 -153 -73q-100 0 -165 69.5t-65 175.5t65 175.5t165 69.5q105 0 152 -71h2l5 61h109v-470zM283 106q53 0 86 36t33 93t-33 93t-86 36t-86.5 -36t-33.5 -93t33.5 -93t86.5 -36zM280 618l-64 -80h-120l123 170h121l123 -170h-120z" />
    <glyph glyph-name="atilde" unicode="&#xe3;" horiz-adv-x="587" 
d="M529 0h-109l-4 63h-2q-49 -73 -153 -73q-100 0 -165 69.5t-65 175.5t65 175.5t165 69.5q105 0 152 -71h2l5 61h109v-470zM283 106q53 0 86 36t33 93t-33 93t-86 36t-86.5 -36t-33.5 -93t33.5 -93t86.5 -36zM444 699v-101q-34 -56 -93 -56q-38 0 -81 24q-38 21 -68 21
q-52 0 -81 -55h-5v101q32 56 93 56q38 0 81 -24q38 -21 68 -21q50 0 81 55h5z" />
    <glyph glyph-name="adieresis" unicode="&#xe4;" horiz-adv-x="587" 
d="M529 0h-109l-4 63h-2q-49 -73 -153 -73q-100 0 -165 69.5t-65 175.5t65 175.5t165 69.5q105 0 152 -71h2l5 61h109v-470zM283 106q53 0 86 36t33 93t-33 93t-86 36t-86.5 -36t-33.5 -93t33.5 -93t86.5 -36zM174 690q33 0 54 -21t21 -53t-21 -53.5t-54 -21.5t-53 21
t-20 54q0 32 20 53t53 21zM386 690q33 0 53 -21t20 -53q0 -33 -20 -54t-53 -21t-54 21.5t-21 53.5t21 53t54 21z" />
    <glyph glyph-name="aring" unicode="&#xe5;" horiz-adv-x="587" 
d="M529 0h-109l-4 63h-2q-49 -73 -153 -73q-100 0 -165 69.5t-65 175.5t65 175.5t165 69.5q105 0 152 -71h2l5 61h109v-470zM283 106q53 0 86 36t33 93t-33 93t-86 36t-86.5 -36t-33.5 -93t33.5 -93t86.5 -36zM280 732q48 0 78.5 -30.5t30.5 -78.5t-30.5 -78.5t-78.5 -30.5
t-78.5 30.5t-30.5 78.5t30.5 78.5t78.5 30.5zM280 664q-18 0 -29.5 -11t-11.5 -30t11.5 -30t29.5 -11t29.5 11t11.5 30t-11.5 30t-29.5 11z" />
    <glyph glyph-name="ae" unicode="&#xe6;" horiz-adv-x="917" 
d="M887 202h-356q10 -47 51.5 -73t104.5 -26q108 0 167 57h5v-126q-62 -44 -159 -44q-127 0 -182 71h-2l-2 -61h-97l-2 61h-2q-49 -71 -152 -71q-100 0 -165 69.5t-65 175.5t65 175.5t165 69.5q102 0 151 -69h2l3 59h97l2 -59h2q50 69 156 69q102 0 157.5 -59t55.5 -166v-53
zM283 106q53 0 86 36t33 93t-33 93t-86 36t-86.5 -36t-33.5 -93t33.5 -93t86.5 -36zM531 281h238q-8 40 -39 63t-78 23t-78.5 -23t-42.5 -63z" />
    <glyph glyph-name="ccedilla" unicode="&#xe7;" horiz-adv-x="476" 
d="M301 364q-64 0 -101 -34.5t-37 -94.5q0 -59 37 -94t101 -35q82 0 127 60h5v-141q-45 -32 -132 -35l-21 -37v-2q99 0 99 -74q0 -77 -123 -77q-56 0 -90 14v67h5q35 -19 80 -19q16 0 25 6.5t9 16.5q0 24 -37 24q-23 0 -47 -6v15l43 75q-97 13 -155 79t-58 163
q0 108 71 176.5t185 68.5q93 0 146 -35v-140h-5q-46 59 -127 59z" />
    <glyph glyph-name="egrave" unicode="&#xe8;" horiz-adv-x="544" 
d="M513 202h-350q10 -47 51 -73t102 -26q105 0 164 57h5v-126q-61 -44 -175 -44q-124 0 -201.5 68t-77.5 177q0 108 69 176.5t176 68.5q109 0 173 -60.5t64 -164.5v-53zM280 367q-43 0 -75 -23t-42 -63h232q-7 42 -37.5 64t-77.5 22zM224 538l-129 170h138l111 -170h-120z
" />
    <glyph glyph-name="eacute" unicode="&#xe9;" horiz-adv-x="544" 
d="M513 202h-350q10 -47 51 -73t102 -26q105 0 164 57h5v-126q-61 -44 -175 -44q-124 0 -201.5 68t-77.5 177q0 108 69 176.5t176 68.5q109 0 173 -60.5t64 -164.5v-53zM280 367q-43 0 -75 -23t-42 -63h232q-7 42 -37.5 64t-77.5 22zM211 538l111 170h138l-129 -170h-120z
" />
    <glyph glyph-name="ecircumflex" unicode="&#xea;" horiz-adv-x="544" 
d="M513 202h-350q10 -47 51 -73t102 -26q105 0 164 57h5v-126q-61 -44 -175 -44q-124 0 -201.5 68t-77.5 177q0 108 69 176.5t176 68.5q109 0 173 -60.5t64 -164.5v-53zM280 367q-43 0 -75 -23t-42 -63h232q-7 42 -37.5 64t-77.5 22zM278 618l-64 -80h-120l123 170h121
l123 -170h-120z" />
    <glyph glyph-name="edieresis" unicode="&#xeb;" horiz-adv-x="544" 
d="M513 202h-350q10 -47 51 -73t102 -26q105 0 164 57h5v-126q-61 -44 -175 -44q-124 0 -201.5 68t-77.5 177q0 108 69 176.5t176 68.5q109 0 173 -60.5t64 -164.5v-53zM280 367q-43 0 -75 -23t-42 -63h232q-7 42 -37.5 64t-77.5 22zM172 690q33 0 54 -21t21 -53t-21 -53.5
t-54 -21.5t-53 21t-20 54q0 32 20 53t53 21zM384 690q33 0 53 -21t20 -53q0 -33 -20 -54t-53 -21t-54 21.5t-21 53.5t21 53t54 21z" />
    <glyph glyph-name="igrave" unicode="&#xec;" horiz-adv-x="248" 
d="M189 470v-470h-131v470h131zM70 538l-129 170h138l111 -170h-120z" />
    <glyph glyph-name="iacute" unicode="&#xed;" horiz-adv-x="248" 
d="M189 470v-470h-131v470h131zM57 538l111 170h138l-129 -170h-120z" />
    <glyph glyph-name="icircumflex" unicode="&#xee;" horiz-adv-x="248" 
d="M189 470v-470h-131v470h131zM124 618l-64 -80h-120l123 170h121l123 -170h-120z" />
    <glyph glyph-name="idieresis" unicode="&#xef;" horiz-adv-x="248" 
d="M189 470v-470h-131v470h131zM18 690q33 0 54 -21t21 -53t-21 -53.5t-54 -21.5t-53 21t-20 54q0 32 20 53t53 21zM230 690q33 0 53 -21t20 -53q0 -33 -20 -54t-53 -21t-54 21.5t-21 53.5t21 53t54 21z" />
    <glyph glyph-name="eth" unicode="&#xf0;" horiz-adv-x="565" 
d="M463 600l-47 -16q118 -139 118 -332q0 -119 -70 -190.5t-181 -71.5t-181.5 69t-70.5 176q0 106 65 175.5t165 69.5q52 0 89 -20l2 1q-24 42 -60 81l-153 -52v75l94 32q-59 53 -147 98v5h198q20 -12 76 -59l103 35v-76zM283 106q53 0 86 36t33 93t-33 93t-86 36t-86.5 -36
t-33.5 -93t33.5 -93t86.5 -36z" />
    <glyph glyph-name="ntilde" unicode="&#xf1;" horiz-adv-x="553" 
d="M321 480q86 0 134.5 -53t48.5 -148v-279h-131v263q0 49 -23 75t-64 26q-46 0 -71.5 -29.5t-25.5 -84.5v-250h-131v470h109l5 -67h2q44 77 147 77zM441 699v-101q-34 -56 -93 -56q-38 0 -81 24q-38 21 -68 21q-52 0 -81 -55h-5v101q32 56 93 56q38 0 81 -24q38 -21 68 -21
q50 0 81 55h5z" />
    <glyph glyph-name="ograve" unicode="&#xf2;" horiz-adv-x="565" 
d="M283 480q110 0 180.5 -68.5t70.5 -176.5q0 -107 -70.5 -176t-180.5 -69q-111 0 -181.5 69t-70.5 176q0 108 70.5 176.5t181.5 68.5zM283 364q-53 0 -86.5 -36t-33.5 -93t33.5 -93t86.5 -36t86 36t33 93t-33 93t-86 36zM229 538l-129 170h138l111 -170h-120z" />
    <glyph glyph-name="oacute" unicode="&#xf3;" horiz-adv-x="565" 
d="M283 480q110 0 180.5 -68.5t70.5 -176.5q0 -107 -70.5 -176t-180.5 -69q-111 0 -181.5 69t-70.5 176q0 108 70.5 176.5t181.5 68.5zM283 364q-53 0 -86.5 -36t-33.5 -93t33.5 -93t86.5 -36t86 36t33 93t-33 93t-86 36zM216 538l111 170h138l-129 -170h-120z" />
    <glyph glyph-name="ocircumflex" unicode="&#xf4;" horiz-adv-x="565" 
d="M283 480q110 0 180.5 -68.5t70.5 -176.5q0 -107 -70.5 -176t-180.5 -69q-111 0 -181.5 69t-70.5 176q0 108 70.5 176.5t181.5 68.5zM283 364q-53 0 -86.5 -36t-33.5 -93t33.5 -93t86.5 -36t86 36t33 93t-33 93t-86 36zM283 618l-64 -80h-120l123 170h121l123 -170h-120z
" />
    <glyph glyph-name="otilde" unicode="&#xf5;" horiz-adv-x="565" 
d="M283 480q110 0 180.5 -68.5t70.5 -176.5q0 -107 -70.5 -176t-180.5 -69q-111 0 -181.5 69t-70.5 176q0 108 70.5 176.5t181.5 68.5zM283 364q-53 0 -86.5 -36t-33.5 -93t33.5 -93t86.5 -36t86 36t33 93t-33 93t-86 36zM447 699v-101q-34 -56 -93 -56q-38 0 -81 24
q-38 21 -68 21q-52 0 -81 -55h-5v101q32 56 93 56q38 0 81 -24q38 -21 68 -21q50 0 81 55h5z" />
    <glyph glyph-name="odieresis" unicode="&#xf6;" horiz-adv-x="565" 
d="M283 480q110 0 180.5 -68.5t70.5 -176.5q0 -107 -70.5 -176t-180.5 -69q-111 0 -181.5 69t-70.5 176q0 108 70.5 176.5t181.5 68.5zM283 364q-53 0 -86.5 -36t-33.5 -93t33.5 -93t86.5 -36t86 36t33 93t-33 93t-86 36zM177 690q33 0 54 -21t21 -53t-21 -53.5t-54 -21.5
t-53 21t-20 54q0 32 20 53t53 21zM389 690q33 0 53 -21t20 -53q0 -33 -20 -54t-53 -21t-54 21.5t-21 53.5t21 53t54 21z" />
    <glyph glyph-name="divide" unicode="&#xf7;" horiz-adv-x="650" 
d="M325 598q31 0 51.5 -20t20.5 -52t-20 -52t-52 -20t-52 20t-20 52t20.5 52t51.5 20zM41 242v116h568v-116h-568zM325 146q32 0 52 -20t20 -52t-20.5 -52t-51.5 -20t-51.5 20t-20.5 52t20 52t52 20z" />
    <glyph glyph-name="oslash" unicode="&#xf8;" horiz-adv-x="565" 
d="M534 470l-57 -72q57 -66 57 -163q0 -107 -70.5 -176t-180.5 -69q-60 0 -112 22l-10 -12h-130l58 73q-58 66 -58 162q0 108 70.5 176.5t181.5 68.5q59 0 111 -22l10 12h130zM163 235q0 -28 10 -56l143 181q-20 4 -33 4q-53 0 -86.5 -36t-33.5 -93zM402 235q0 28 -10 56
l-143 -181q20 -4 34 -4q53 0 86 36t33 93z" />
    <glyph glyph-name="ugrave" unicode="&#xf9;" horiz-adv-x="552" 
d="M494 0h-109l-5 67h-2q-44 -77 -146 -77q-86 0 -134.5 53.5t-48.5 148.5v278h131v-263q0 -49 23 -75t64 -26q45 0 70.5 30t25.5 84v250h131v-470zM217 538l-129 170h138l111 -170h-120z" />
    <glyph glyph-name="uacute" unicode="&#xfa;" horiz-adv-x="552" 
d="M494 0h-109l-5 67h-2q-44 -77 -146 -77q-86 0 -134.5 53.5t-48.5 148.5v278h131v-263q0 -49 23 -75t64 -26q45 0 70.5 30t25.5 84v250h131v-470zM204 538l111 170h138l-129 -170h-120z" />
    <glyph glyph-name="ucircumflex" unicode="&#xfb;" horiz-adv-x="552" 
d="M494 0h-109l-5 67h-2q-44 -77 -146 -77q-86 0 -134.5 53.5t-48.5 148.5v278h131v-263q0 -49 23 -75t64 -26q45 0 70.5 30t25.5 84v250h131v-470zM271 618l-64 -80h-120l123 170h121l123 -170h-120z" />
    <glyph glyph-name="udieresis" unicode="&#xfc;" horiz-adv-x="552" 
d="M494 0h-109l-5 67h-2q-44 -77 -146 -77q-86 0 -134.5 53.5t-48.5 148.5v278h131v-263q0 -49 23 -75t64 -26q45 0 70.5 30t25.5 84v250h131v-470zM165 690q33 0 54 -21t21 -53t-21 -53.5t-54 -21.5t-53 21t-20 54q0 32 20 53t53 21zM377 690q33 0 53 -21t20 -53
q0 -33 -20 -54t-53 -21t-54 21.5t-21 53.5t21 53t54 21z" />
    <glyph glyph-name="yacute" unicode="&#xfd;" horiz-adv-x="508" 
d="M233 -190h-135l89 205l-181 455h140l110 -310h2l109 310h135zM187 538l111 170h138l-129 -170h-120z" />
    <glyph glyph-name="thorn" unicode="&#xfe;" horiz-adv-x="588" 
d="M327 480q100 0 165 -69.5t65 -175.5t-65 -175.5t-165 -69.5q-87 0 -136 51h-2v-231h-131v890h131v-271h2q49 51 136 51zM305 106q54 0 87 36t33 93t-33 93t-87 36q-53 0 -86 -36t-33 -93t33 -93t86 -36z" />
    <glyph glyph-name="ydieresis" unicode="&#xff;" horiz-adv-x="508" 
d="M233 -190h-135l89 205l-181 455h140l110 -310h2l109 310h135zM148 690q33 0 54 -21t21 -53t-21 -53.5t-54 -21.5t-53 21t-20 54q0 32 20 53t53 21zM360 690q33 0 53 -21t20 -53q0 -33 -20 -54t-53 -21t-54 21.5t-21 53.5t21 53t54 21z" />
    <glyph glyph-name="Amacron" unicode="&#x100;" horiz-adv-x="737" 
d="M564 0l-45 112h-305l-45 -112h-155l283 664h143l283 -664h-159zM367 494h-2l-101 -255h205zM205 750v103h328v-103h-328z" />
    <glyph glyph-name="amacron" unicode="&#x101;" horiz-adv-x="587" 
d="M529 0h-109l-4 63h-2q-49 -73 -153 -73q-100 0 -165 69.5t-65 175.5t65 175.5t165 69.5q105 0 152 -71h2l5 61h109v-470zM283 106q53 0 86 36t33 93t-33 93t-86 36t-86.5 -36t-33.5 -93t33.5 -93t86.5 -36zM116 564v103h328v-103h-328z" />
    <glyph glyph-name="Abreve" unicode="&#x102;" horiz-adv-x="737" 
d="M564 0l-45 112h-305l-45 -112h-155l283 664h143l283 -664h-159zM367 494h-2l-101 -255h205zM449 889h93q-4 -79 -48.5 -121t-124.5 -42t-124.5 42t-48.5 121h93q10 -64 80 -64t80 64z" />
    <glyph glyph-name="abreve" unicode="&#x103;" horiz-adv-x="587" 
d="M529 0h-109l-4 63h-2q-49 -73 -153 -73q-100 0 -165 69.5t-65 175.5t65 175.5t165 69.5q105 0 152 -71h2l5 61h109v-470zM283 106q53 0 86 36t33 93t-33 93t-86 36t-86.5 -36t-33.5 -93t33.5 -93t86.5 -36zM360 703h93q-4 -79 -48.5 -121t-124.5 -42t-124.5 42t-48.5 121
h93q10 -64 80 -64t80 64z" />
    <glyph glyph-name="Aogonek" unicode="&#x104;" horiz-adv-x="737" 
d="M653 -115q34 0 65 27h5v-95q-36 -17 -92 -17q-51 0 -81 24t-30 66q0 65 62 108v2h-18l-45 112h-305l-45 -112h-155l283 664h143l283 -664h-37q-70 -30 -70 -80q0 -16 10.5 -25.5t26.5 -9.5zM367 494h-2l-101 -255h205z" />
    <glyph glyph-name="aogonek" unicode="&#x105;" horiz-adv-x="587" 
d="M529 0h-37q-70 -30 -70 -80q0 -16 10.5 -25.5t26.5 -9.5q33 0 65 27h5v-95q-36 -17 -92 -17q-51 0 -81 24t-30 66q0 80 93 126l-3 47h-2q-49 -73 -153 -73q-100 0 -165 69.5t-65 175.5t65 175.5t165 69.5q105 0 152 -71h2l5 61h109v-470zM283 106q53 0 86 36t33 93
t-33 93t-86 36t-86.5 -36t-33.5 -93t33.5 -93t86.5 -36z" />
    <glyph glyph-name="Cacute" unicode="&#x106;" horiz-adv-x="637" 
d="M386 674q127 0 204 -52v-162h-7q-65 82 -190 82q-96 0 -154 -57.5t-58 -152.5t58 -152.5t154 -57.5q126 0 190 82h7v-162q-79 -52 -204 -52q-158 0 -256.5 95.5t-98.5 246.5t98.5 246.5t256.5 95.5zM290 724l111 170h138l-129 -170h-120z" />
    <glyph glyph-name="cacute" unicode="&#x107;" horiz-adv-x="476" 
d="M287 480q93 0 146 -35v-140h-5q-46 59 -127 59q-64 0 -101 -34.5t-37 -94.5q0 -59 37 -94t101 -35q82 0 127 60h5v-141q-50 -35 -146 -35q-114 0 -185 68.5t-71 176.5t71 176.5t185 68.5zM203 538l111 170h138l-129 -170h-120z" />
    <glyph glyph-name="Ccircumflex" unicode="&#x108;" horiz-adv-x="637" 
d="M386 674q127 0 204 -52v-162h-7q-65 82 -190 82q-96 0 -154 -57.5t-58 -152.5t58 -152.5t154 -57.5q126 0 190 82h7v-162q-79 -52 -204 -52q-158 0 -256.5 95.5t-98.5 246.5t98.5 246.5t256.5 95.5zM357 804l-64 -80h-120l123 170h121l123 -170h-120z" />
    <glyph glyph-name="ccircumflex" unicode="&#x109;" horiz-adv-x="476" 
d="M287 480q93 0 146 -35v-140h-5q-46 59 -127 59q-64 0 -101 -34.5t-37 -94.5q0 -59 37 -94t101 -35q82 0 127 60h5v-141q-50 -35 -146 -35q-114 0 -185 68.5t-71 176.5t71 176.5t185 68.5zM270 618l-64 -80h-120l123 170h121l123 -170h-120z" />
    <glyph glyph-name="Cdotaccent" unicode="&#x10a;" horiz-adv-x="637" 
d="M386 674q127 0 204 -52v-162h-7q-65 82 -190 82q-96 0 -154 -57.5t-58 -152.5t58 -152.5t154 -57.5q126 0 190 82h7v-162q-79 -52 -204 -52q-158 0 -256.5 95.5t-98.5 246.5t98.5 246.5t256.5 95.5zM357 883q35 0 58.5 -23t23.5 -58q0 -36 -23.5 -59t-58.5 -23t-58.5 23
t-23.5 59q0 35 23.5 58t58.5 23z" />
    <glyph glyph-name="cdotaccent" unicode="&#x10b;" horiz-adv-x="476" 
d="M287 480q93 0 146 -35v-140h-5q-46 59 -127 59q-64 0 -101 -34.5t-37 -94.5q0 -59 37 -94t101 -35q82 0 127 60h5v-141q-50 -35 -146 -35q-114 0 -185 68.5t-71 176.5t71 176.5t185 68.5zM270 697q35 0 58.5 -23t23.5 -58q0 -36 -23.5 -59t-58.5 -23t-58.5 23t-23.5 59
q0 35 23.5 58t58.5 23z" />
    <glyph glyph-name="Ccaron" unicode="&#x10c;" horiz-adv-x="637" 
d="M386 674q127 0 204 -52v-162h-7q-65 82 -190 82q-96 0 -154 -57.5t-58 -152.5t58 -152.5t154 -57.5q126 0 190 82h7v-162q-79 -52 -204 -52q-158 0 -256.5 95.5t-98.5 246.5t98.5 246.5t256.5 95.5zM417 724h-121l-123 170h120l64 -80l63 80h120z" />
    <glyph glyph-name="ccaron" unicode="&#x10d;" horiz-adv-x="476" 
d="M287 480q93 0 146 -35v-140h-5q-46 59 -127 59q-64 0 -101 -34.5t-37 -94.5q0 -59 37 -94t101 -35q82 0 127 60h5v-141q-50 -35 -146 -35q-114 0 -185 68.5t-71 176.5t71 176.5t185 68.5zM330 538h-121l-123 170h120l64 -80l63 80h120z" />
    <glyph glyph-name="Dcaron" unicode="&#x10e;" horiz-adv-x="722" 
d="M71 664h267q169 0 261.5 -87t92.5 -245t-92.5 -245t-261.5 -87h-267v664zM219 132h110q104 0 158.5 51t54.5 149t-54.5 149t-158.5 51h-110v-400zM404 724h-121l-123 170h120l64 -80l63 80h120z" />
    <glyph glyph-name="dcaron" unicode="&#x10f;" horiz-adv-x="587" 
d="M529 0h-109l-4 63h-2q-49 -73 -153 -73q-100 0 -165 69.5t-65 175.5t65 175.5t165 69.5q85 0 135 -50h2v270h131v-700zM283 106q53 0 86 36t33 93t-33 93t-86 36t-86.5 -36t-33.5 -93t33.5 -93t86.5 -36zM561 504l27 196h132l-60 -196h-99z" />
    <glyph glyph-name="Dcroat" unicode="&#x110;" horiz-adv-x="739" 
d="M88 664h267q169 0 261.5 -87t92.5 -245t-92.5 -245t-261.5 -87h-267v277h-69v115h69v272zM236 132h110q104 0 158.5 51t54.5 149t-54.5 149t-158.5 51h-110v-140h144v-115h-144v-145z" />
    <glyph glyph-name="dcroat" unicode="&#x111;" horiz-adv-x="600" 
d="M529 0h-109l-4 63h-2q-49 -73 -153 -73q-100 0 -165 69.5t-65 175.5t65 175.5t165 69.5q85 0 135 -50h2v94h-150v91h150v85h131v-85h71v-91h-71v-524zM283 106q53 0 86 36t33 93t-33 93t-86 36t-86.5 -36t-33.5 -93t33.5 -93t86.5 -36z" />
    <glyph glyph-name="Emacron" unicode="&#x112;" horiz-adv-x="616" 
d="M496 395v-124h-277v-139h349v-132h-497v664h497v-132h-349v-137h277zM155 750v103h328v-103h-328z" />
    <glyph glyph-name="emacron" unicode="&#x113;" horiz-adv-x="544" 
d="M513 202h-350q10 -47 51 -73t102 -26q105 0 164 57h5v-126q-61 -44 -175 -44q-124 0 -201.5 68t-77.5 177q0 108 69 176.5t176 68.5q109 0 173 -60.5t64 -164.5v-53zM280 367q-43 0 -75 -23t-42 -63h232q-7 42 -37.5 64t-77.5 22zM114 564v103h328v-103h-328z" />
    <glyph glyph-name="Ebreve" unicode="&#x114;" horiz-adv-x="616" 
d="M496 395v-124h-277v-139h349v-132h-497v664h497v-132h-349v-137h277zM399 889h93q-4 -79 -48.5 -121t-124.5 -42t-124.5 42t-48.5 121h93q10 -64 80 -64t80 64z" />
    <glyph glyph-name="ebreve" unicode="&#x115;" horiz-adv-x="544" 
d="M513 202h-350q10 -47 51 -73t102 -26q105 0 164 57h5v-126q-61 -44 -175 -44q-124 0 -201.5 68t-77.5 177q0 108 69 176.5t176 68.5q109 0 173 -60.5t64 -164.5v-53zM280 367q-43 0 -75 -23t-42 -63h232q-7 42 -37.5 64t-77.5 22zM358 703h93q-4 -79 -48.5 -121
t-124.5 -42t-124.5 42t-48.5 121h93q10 -64 80 -64t80 64z" />
    <glyph glyph-name="Edotaccent" unicode="&#x116;" horiz-adv-x="616" 
d="M496 395v-124h-277v-139h349v-132h-497v664h497v-132h-349v-137h277zM319 883q35 0 58.5 -23t23.5 -58q0 -36 -23.5 -59t-58.5 -23t-58.5 23t-23.5 59q0 35 23.5 58t58.5 23z" />
    <glyph glyph-name="edotaccent" unicode="&#x117;" horiz-adv-x="544" 
d="M513 202h-350q10 -47 51 -73t102 -26q105 0 164 57h5v-126q-61 -44 -175 -44q-124 0 -201.5 68t-77.5 177q0 108 69 176.5t176 68.5q109 0 173 -60.5t64 -164.5v-53zM280 367q-43 0 -75 -23t-42 -63h232q-7 42 -37.5 64t-77.5 22zM278 697q35 0 58.5 -23t23.5 -58
q0 -36 -23.5 -59t-58.5 -23t-58.5 23t-23.5 59q0 35 23.5 58t58.5 23z" />
    <glyph glyph-name="Eogonek" unicode="&#x118;" horiz-adv-x="616" 
d="M219 395h277v-124h-277v-139h349v-132h-37q-70 -30 -70 -80q0 -16 10.5 -25.5t26.5 -9.5q34 0 65 27h5v-95q-36 -17 -92 -17q-51 0 -81 24t-30 66q0 65 62 108v2h-356v664h497v-132h-349v-137z" />
    <glyph glyph-name="eogonek" unicode="&#x119;" horiz-adv-x="544" 
d="M513 255v-53h-350q10 -47 51 -73t102 -26q105 0 164 57h5v-126q-19 -13 -63 -31q-30 -12 -48 -34.5t-18 -47.5q0 -16 11 -26t27 -10q34 0 65 27h5v-95q-36 -17 -92 -17q-50 0 -80.5 24.5t-30.5 66.5q0 60 49 97v2q-124 0 -201.5 68t-77.5 177q0 108 69 176.5t176 68.5
q109 0 173 -60.5t64 -164.5zM280 367q-43 0 -75 -23t-42 -63h232q-7 42 -37.5 64t-77.5 22z" />
    <glyph glyph-name="Ecaron" unicode="&#x11a;" horiz-adv-x="616" 
d="M496 395v-124h-277v-139h349v-132h-497v664h497v-132h-349v-137h277zM379 724h-121l-123 170h120l64 -80l63 80h120z" />
    <glyph glyph-name="ecaron" unicode="&#x11b;" horiz-adv-x="544" 
d="M513 202h-350q10 -47 51 -73t102 -26q105 0 164 57h5v-126q-61 -44 -175 -44q-124 0 -201.5 68t-77.5 177q0 108 69 176.5t176 68.5q109 0 173 -60.5t64 -164.5v-53zM280 367q-43 0 -75 -23t-42 -63h232q-7 42 -37.5 64t-77.5 22zM338 538h-121l-123 170h120l64 -80
l63 80h120z" />
    <glyph glyph-name="Gcircumflex" unicode="&#x11c;" horiz-adv-x="700" 
d="M407 542q-103 0 -164.5 -57t-61.5 -153t61.5 -153t164.5 -57q45 0 86 9v113h-146v124h289v-326q-91 -52 -235 -52q-170 0 -270 92.5t-100 249.5t100 249.5t270 92.5q144 0 235 -52v-162h-7q-85 82 -222 82zM370 804l-64 -80h-120l123 170h121l123 -170h-120z" />
    <glyph glyph-name="gcircumflex" unicode="&#x11d;" horiz-adv-x="587" 
d="M529 470v-432q0 -110 -70 -174t-192 -64t-189 51v132h5q26 -31 71 -49t97 -18q70 0 108.5 34t38.5 96v3h-2q-49 -51 -135 -51q-100 0 -165 67.5t-65 173.5t65 173.5t165 67.5q104 0 153 -72h2l4 62h109zM283 114q53 0 86 34t33 91t-33 91t-86 34q-54 0 -87 -34t-33 -91
t33 -91t87 -34zM280 618l-64 -80h-120l123 170h121l123 -170h-120z" />
    <glyph glyph-name="Gbreve" unicode="&#x11e;" horiz-adv-x="700" 
d="M407 542q-103 0 -164.5 -57t-61.5 -153t61.5 -153t164.5 -57q45 0 86 9v113h-146v124h289v-326q-91 -52 -235 -52q-170 0 -270 92.5t-100 249.5t100 249.5t270 92.5q144 0 235 -52v-162h-7q-85 82 -222 82zM450 889h93q-4 -79 -48.5 -121t-124.5 -42t-124.5 42t-48.5 121
h93q10 -64 80 -64t80 64z" />
    <glyph glyph-name="gbreve" unicode="&#x11f;" horiz-adv-x="587" 
d="M529 470v-432q0 -110 -70 -174t-192 -64t-189 51v132h5q26 -31 71 -49t97 -18q70 0 108.5 34t38.5 96v3h-2q-49 -51 -135 -51q-100 0 -165 67.5t-65 173.5t65 173.5t165 67.5q104 0 153 -72h2l4 62h109zM283 114q53 0 86 34t33 91t-33 91t-86 34q-54 0 -87 -34t-33 -91
t33 -91t87 -34zM360 703h93q-4 -79 -48.5 -121t-124.5 -42t-124.5 42t-48.5 121h93q10 -64 80 -64t80 64z" />
    <glyph glyph-name="Gdotaccent" unicode="&#x120;" horiz-adv-x="700" 
d="M407 542q-103 0 -164.5 -57t-61.5 -153t61.5 -153t164.5 -57q45 0 86 9v113h-146v124h289v-326q-91 -52 -235 -52q-170 0 -270 92.5t-100 249.5t100 249.5t270 92.5q144 0 235 -52v-162h-7q-85 82 -222 82zM370 883q35 0 58.5 -23t23.5 -58q0 -36 -23.5 -59t-58.5 -23
t-58.5 23t-23.5 59q0 35 23.5 58t58.5 23z" />
    <glyph glyph-name="gdotaccent" unicode="&#x121;" horiz-adv-x="587" 
d="M529 470v-432q0 -110 -70 -174t-192 -64t-189 51v132h5q26 -31 71 -49t97 -18q70 0 108.5 34t38.5 96v3h-2q-49 -51 -135 -51q-100 0 -165 67.5t-65 173.5t65 173.5t165 67.5q104 0 153 -72h2l4 62h109zM283 114q53 0 86 34t33 91t-33 91t-86 34q-54 0 -87 -34t-33 -91
t33 -91t87 -34zM280 697q35 0 58.5 -23t23.5 -58q0 -36 -23.5 -59t-58.5 -23t-58.5 23t-23.5 59q0 35 23.5 58t58.5 23z" />
    <glyph glyph-name="uni0122" unicode="&#x122;" horiz-adv-x="700" 
d="M407 542q-103 0 -164.5 -57t-61.5 -153t61.5 -153t164.5 -57q45 0 86 9v113h-146v124h289v-326q-91 -52 -235 -52q-170 0 -270 92.5t-100 249.5t100 249.5t270 92.5q144 0 235 -52v-162h-7q-85 82 -222 82zM208 -210l97 150h132l-115 -150h-114z" />
    <glyph glyph-name="uni0123" unicode="&#x123;" horiz-adv-x="588" 
d="M451 708l-111 -170h-132l129 170h114zM529 470v-432q0 -110 -70 -174t-192 -64t-189 51v132h5q26 -31 71 -49t97 -18q70 0 108.5 34t38.5 96v3h-2q-49 -51 -135 -51q-100 0 -165 67.5t-65 173.5t65 173.5t165 67.5q104 0 153 -72h2l4 62h109zM283 114q53 0 86 34t33 91
t-33 91t-86 34q-54 0 -87 -34t-33 -91t33 -91t87 -34z" />
    <glyph glyph-name="Hcircumflex" unicode="&#x124;" horiz-adv-x="734" 
d="M663 0h-149v268h-295v-268h-148v664h148v-264h295v264h149v-664zM367 804l-64 -80h-120l123 170h121l123 -170h-120z" />
    <glyph glyph-name="hcircumflex" unicode="&#x125;" horiz-adv-x="553" 
d="M321 480q86 0 134.5 -53t48.5 -148v-279h-131v263q0 49 -23 75t-64 26q-46 0 -71.5 -29.5t-25.5 -84.5v-250h-131v700h131v-273h2q45 53 130 53zM124 835l-64 -80h-120l123 170h121l123 -170h-120z" />
    <glyph glyph-name="Hbar" unicode="&#x126;" horiz-adv-x="737" 
d="M665 472v-472h-149v268h-295v-268h-148v472h-51v101h51v91h148v-91h295v91h149v-91h49v-101h-49zM221 472v-72h295v72h-295z" />
    <glyph glyph-name="hbar" unicode="&#x127;" horiz-adv-x="560" 
d="M329 480q86 0 134.5 -53t48.5 -148v-279h-131v263q0 49 -23 75t-64 26q-46 0 -71.5 -29.5t-25.5 -84.5v-250h-131v524h-66v91h66v85h131v-85h142v-91h-142v-97h2q45 53 130 53z" />
    <glyph glyph-name="Itilde" unicode="&#x128;" horiz-adv-x="290" 
d="M71 0v664h148v-664h-148zM309 885v-101q-34 -56 -93 -56q-38 0 -81 24q-38 21 -68 21q-52 0 -81 -55h-5v101q32 56 93 56q38 0 81 -24q38 -21 68 -21q50 0 81 55h5z" />
    <glyph glyph-name="itilde" unicode="&#x129;" horiz-adv-x="248" 
d="M189 470v-470h-131v470h131zM288 699v-101q-34 -56 -93 -56q-38 0 -81 24q-38 21 -68 21q-52 0 -81 -55h-5v101q32 56 93 56q38 0 81 -24q38 -21 68 -21q50 0 81 55h5z" />
    <glyph glyph-name="Imacron" unicode="&#x12a;" horiz-adv-x="290" 
d="M71 0v664h148v-664h-148zM-19 750v103h328v-103h-328z" />
    <glyph glyph-name="imacron" unicode="&#x12b;" horiz-adv-x="248" 
d="M189 470v-470h-131v470h131zM-40 564v103h328v-103h-328z" />
    <glyph glyph-name="Ibreve" unicode="&#x12c;" horiz-adv-x="290" 
d="M71 0v664h148v-664h-148zM225 889h93q-4 -79 -48.5 -121t-124.5 -42t-124.5 42t-48.5 121h93q10 -64 80 -64t80 64z" />
    <glyph glyph-name="ibreve" unicode="&#x12d;" horiz-adv-x="248" 
d="M189 470v-470h-131v470h131zM204 703h93q-4 -79 -48.5 -121t-124.5 -42t-124.5 42t-48.5 121h93q10 -64 80 -64t80 64z" />
    <glyph glyph-name="Iogonek" unicode="&#x12e;" horiz-adv-x="290" 
d="M227 -88v-95q-36 -17 -92 -17q-51 0 -81 24t-30 66q0 65 62 108v2h-15v664h148v-664h-34q-66 -33 -66 -80q0 -15 11 -25t27 -10q33 0 65 27h5z" />
    <glyph glyph-name="iogonek" unicode="&#x12f;" horiz-adv-x="248" 
d="M126 -115q33 0 65 27h5v-95q-36 -17 -92 -17q-51 0 -80.5 24t-29.5 66q0 67 64 110v470h131v-470h-34q-66 -33 -66 -80q0 -15 11 -25t26 -10zM124 696q35 0 58 -22.5t23 -57.5q0 -36 -23 -58.5t-58 -22.5t-58 22.5t-23 58.5q0 35 23 57.5t58 22.5z" />
    <glyph glyph-name="Idotaccent" unicode="&#x130;" horiz-adv-x="290" 
d="M71 0v664h148v-664h-148zM145 883q35 0 58.5 -23t23.5 -58q0 -36 -23.5 -59t-58.5 -23t-58.5 23t-23.5 59q0 35 23.5 58t58.5 23z" />
    <glyph glyph-name="dotlessi" unicode="&#x131;" horiz-adv-x="248" 
d="M189 470v-470h-131v470h131z" />
    <glyph glyph-name="IJ" unicode="&#x132;" horiz-adv-x="802" 
d="M71 0v664h148v-664h-148zM746 664v-425q0 -249 -249 -249q-108 0 -181 52v156h7q24 -34 67 -55t90 -21q118 0 118 132v410h148z" />
    <glyph glyph-name="ij" unicode="&#x133;" horiz-adv-x="496" 
d="M124 696q35 0 58 -22.5t23 -57.5q0 -36 -23 -58.5t-58 -22.5t-58 22.5t-23 58.5q0 35 23 57.5t58 22.5zM58 0v470h131v-470h-131zM372 696q35 0 58 -22.5t23 -57.5q0 -36 -23 -58.5t-58 -22.5t-58 22.5t-23 58.5q0 35 23 57.5t58 22.5zM437 470v-514q0 -76 -37.5 -116
t-106.5 -40q-36 0 -67 10v118h6q15 -12 35 -12q39 0 39 51v503h131z" />
    <glyph glyph-name="Jcircumflex" unicode="&#x134;" horiz-adv-x="512" 
d="M456 664v-425q0 -249 -249 -249q-108 0 -181 52v156h7q24 -34 67 -55t90 -21q118 0 118 132v410h148zM382 804l-64 -80h-120l123 170h121l123 -170h-120z" />
    <glyph glyph-name="jcircumflex" unicode="&#x135;" horiz-adv-x="248" 
d="M189 470v-514q0 -76 -37.5 -116t-106.5 -40q-36 0 -67 10v118h6q15 -12 35 -12q39 0 39 51v503h131zM124 618l-64 -80h-120l123 170h121l123 -170h-120z" />
    <glyph glyph-name="uni0136" unicode="&#x136;" horiz-adv-x="673" 
d="M219 282v-282h-148v664h148v-279l244 279h187l-297 -326l307 -338h-195zM175 -210l97 150h132l-115 -150h-114z" />
    <glyph glyph-name="uni0137" unicode="&#x137;" horiz-adv-x="534" 
d="M189 0h-131v700h131v-422l162 192h162l-204 -229l214 -241h-169l-165 197v-197zM107 -210l97 150h132l-115 -150h-114z" />
    <glyph glyph-name="kgreenlandic" unicode="&#x138;" horiz-adv-x="534" 
d="M189 197v-197h-131v470h131v-192l162 192h162l-204 -229l214 -241h-169z" />
    <glyph glyph-name="Lacute" unicode="&#x139;" horiz-adv-x="580" 
d="M554 0h-483v664h148v-532h335v-132zM78 724l111 170h138l-129 -170h-120z" />
    <glyph glyph-name="lacute" unicode="&#x13a;" horiz-adv-x="247" 
d="M58 0v700h131v-700h-131zM57 755l111 170h138l-129 -170h-120z" />
    <glyph glyph-name="uni013B" unicode="&#x13b;" horiz-adv-x="580" 
d="M554 0h-483v664h148v-532h335v-132zM153 -210l97 150h132l-115 -150h-114z" />
    <glyph glyph-name="uni013C" unicode="&#x13c;" horiz-adv-x="247" 
d="M58 0v700h131v-700h-131zM-38 -210l97 150h132l-115 -150h-114z" />
    <glyph glyph-name="Lcaron" unicode="&#x13d;" horiz-adv-x="580" 
d="M554 0h-483v664h148v-532h335v-132zM283 504l27 196h132l-60 -196h-99z" />
    <glyph glyph-name="lcaron" unicode="&#x13e;" horiz-adv-x="330" 
d="M58 0v700h131v-700h-131zM218 504l27 196h132l-60 -196h-99z" />
    <glyph glyph-name="Ldot" unicode="&#x13f;" horiz-adv-x="580" 
d="M554 0h-483v664h148v-532h335v-132zM433 413q35 0 58.5 -23t23.5 -58q0 -36 -23.5 -59t-58.5 -23t-58.5 23t-23.5 59q0 35 23.5 58t58.5 23z" />
    <glyph glyph-name="ldot" unicode="&#x140;" horiz-adv-x="342" 
d="M58 0v700h131v-700h-131zM295 413q35 0 58.5 -23t23.5 -58q0 -36 -23.5 -59t-58.5 -23t-58.5 23t-23.5 59q0 35 23.5 58t58.5 23z" />
    <glyph glyph-name="Lslash" unicode="&#x141;" horiz-adv-x="596" 
d="M571 0h-483v187l-69 -40v134l69 40v343h148v-259l228 131v-134l-228 -131v-139h335v-132z" />
    <glyph glyph-name="lslash" unicode="&#x142;" horiz-adv-x="277" 
d="M198 300v-300h-131v220l-66 -40v122l66 40v358h131v-278l78 48v-122z" />
    <glyph glyph-name="Nacute" unicode="&#x143;" horiz-adv-x="741" 
d="M492 0l-276 493h-2v-493h-143v664h203l251 -446h2v446h143v-664h-178zM303 724l111 170h138l-129 -170h-120z" />
    <glyph glyph-name="nacute" unicode="&#x144;" horiz-adv-x="553" 
d="M321 480q86 0 134.5 -53t48.5 -148v-279h-131v263q0 49 -23 75t-64 26q-46 0 -71.5 -29.5t-25.5 -84.5v-250h-131v470h109l5 -67h2q44 77 147 77zM210 538l111 170h138l-129 -170h-120z" />
    <glyph glyph-name="uni0145" unicode="&#x145;" horiz-adv-x="741" 
d="M492 0l-276 493h-2v-493h-143v664h203l251 -446h2v446h143v-664h-178zM208 -210l97 150h132l-115 -150h-114z" />
    <glyph glyph-name="uni0146" unicode="&#x146;" horiz-adv-x="553" 
d="M321 480q86 0 134.5 -53t48.5 -148v-279h-131v263q0 49 -23 75t-64 26q-46 0 -71.5 -29.5t-25.5 -84.5v-250h-131v470h109l5 -67h2q44 77 147 77zM119 -210l97 150h132l-115 -150h-114z" />
    <glyph glyph-name="Ncaron" unicode="&#x147;" horiz-adv-x="741" 
d="M492 0l-276 493h-2v-493h-143v664h203l251 -446h2v446h143v-664h-178zM430 724h-121l-123 170h120l64 -80l63 80h120z" />
    <glyph glyph-name="ncaron" unicode="&#x148;" horiz-adv-x="553" 
d="M321 480q86 0 134.5 -53t48.5 -148v-279h-131v263q0 49 -23 75t-64 26q-46 0 -71.5 -29.5t-25.5 -84.5v-250h-131v470h109l5 -67h2q44 77 147 77zM337 538h-121l-123 170h120l64 -80l63 80h120z" />
    <glyph glyph-name="napostrophe" unicode="&#x149;" horiz-adv-x="553" 
d="M12 700h121q0 -118 -37 -175h-103q21 57 21 129q0 29 -2 46zM321 480q86 0 134.5 -53t48.5 -148v-279h-131v263q0 49 -23 75t-64 26q-46 0 -71.5 -29.5t-25.5 -84.5v-250h-131v470h109l5 -67h2q44 77 147 77z" />
    <glyph glyph-name="Eng" unicode="&#x14a;" horiz-adv-x="741" 
d="M670 664v-708q0 -76 -40.5 -116t-110.5 -40q-43 0 -73 10v126h5q17 -12 36 -12q39 0 39 43v50l-310 490h-2v-507h-143v664h205l248 -393h2v393h144z" />
    <glyph glyph-name="eng" unicode="&#x14b;" horiz-adv-x="553" 
d="M321 480q86 0 134.5 -53t48.5 -148v-323q0 -77 -37.5 -116.5t-106.5 -39.5q-37 0 -67 10v118h5q16 -12 36 -12q39 0 39 51v296q0 49 -23 75t-64 26q-46 0 -71.5 -29.5t-25.5 -84.5v-250h-131v470h109l5 -67h2q44 77 147 77z" />
    <glyph glyph-name="Omacron" unicode="&#x14c;" horiz-adv-x="760" 
d="M380 674q154 0 251.5 -96t97.5 -246t-97.5 -246t-251.5 -96t-251.5 96t-97.5 246t97.5 246t251.5 96zM380 542q-88 0 -143.5 -58.5t-55.5 -151.5t55.5 -151.5t143.5 -58.5t143.5 58.5t55.5 151.5t-55.5 151.5t-143.5 58.5zM216 750v103h328v-103h-328z" />
    <glyph glyph-name="omacron" unicode="&#x14d;" horiz-adv-x="565" 
d="M283 480q110 0 180.5 -68.5t70.5 -176.5q0 -107 -70.5 -176t-180.5 -69q-111 0 -181.5 69t-70.5 176q0 108 70.5 176.5t181.5 68.5zM283 364q-53 0 -86.5 -36t-33.5 -93t33.5 -93t86.5 -36t86 36t33 93t-33 93t-86 36zM119 564v103h328v-103h-328z" />
    <glyph glyph-name="Obreve" unicode="&#x14e;" horiz-adv-x="760" 
d="M380 674q154 0 251.5 -96t97.5 -246t-97.5 -246t-251.5 -96t-251.5 96t-97.5 246t97.5 246t251.5 96zM380 542q-88 0 -143.5 -58.5t-55.5 -151.5t55.5 -151.5t143.5 -58.5t143.5 58.5t55.5 151.5t-55.5 151.5t-143.5 58.5zM460 889h93q-4 -79 -48.5 -121t-124.5 -42
t-124.5 42t-48.5 121h93q10 -64 80 -64t80 64z" />
    <glyph glyph-name="obreve" unicode="&#x14f;" horiz-adv-x="565" 
d="M283 480q110 0 180.5 -68.5t70.5 -176.5q0 -107 -70.5 -176t-180.5 -69q-111 0 -181.5 69t-70.5 176q0 108 70.5 176.5t181.5 68.5zM283 364q-53 0 -86.5 -36t-33.5 -93t33.5 -93t86.5 -36t86 36t33 93t-33 93t-86 36zM363 703h93q-4 -79 -48.5 -121t-124.5 -42
t-124.5 42t-48.5 121h93q10 -64 80 -64t80 64z" />
    <glyph glyph-name="Ohungarumlaut" unicode="&#x150;" horiz-adv-x="760" 
d="M380 674q154 0 251.5 -96t97.5 -246t-97.5 -246t-251.5 -96t-251.5 96t-97.5 246t97.5 246t251.5 96zM380 542q-88 0 -143.5 -58.5t-55.5 -151.5t55.5 -151.5t143.5 -58.5t143.5 58.5t55.5 151.5t-55.5 151.5t-143.5 58.5zM215 724l111 170h132l-129 -170h-114zM409 724
l112 170h131l-129 -170h-114z" />
    <glyph glyph-name="ohungarumlaut" unicode="&#x151;" horiz-adv-x="565" 
d="M283 480q110 0 180.5 -68.5t70.5 -176.5q0 -107 -70.5 -176t-180.5 -69q-111 0 -181.5 69t-70.5 176q0 108 70.5 176.5t181.5 68.5zM283 364q-53 0 -86.5 -36t-33.5 -93t33.5 -93t86.5 -36t86 36t33 93t-33 93t-86 36zM118 538l111 170h132l-129 -170h-114zM312 538
l112 170h131l-129 -170h-114z" />
    <glyph glyph-name="OE" unicode="&#x152;" horiz-adv-x="1048" 
d="M928 395v-124h-276v-139h348v-132h-616q-169 0 -261 87t-92 245t92 245t261 87h616v-132h-348v-137h276zM503 532h-110q-104 0 -158 -51t-54 -149t54 -149t158 -51h110v400z" />
    <glyph glyph-name="oe" unicode="&#x153;" horiz-adv-x="915" 
d="M884 255v-53h-350q10 -47 51 -73t102 -26q105 0 164 57h5v-126q-62 -44 -167 -44q-155 0 -220 100h-2q-61 -100 -196 -100q-106 0 -173 68.5t-67 176.5q0 109 67 177t173 68q135 0 196 -99h2q60 99 194 99q106 0 163.5 -59t57.5 -166zM283 106q53 0 86 36t33 93t-33 93
t-86 36t-86.5 -36t-33.5 -93t33.5 -93t86.5 -36zM651 367q-43 0 -75 -23t-42 -63h232q-7 42 -37.5 64t-77.5 22z" />
    <glyph glyph-name="Racute" unicode="&#x154;" horiz-adv-x="669" 
d="M219 231v-231h-148v664h298q251 0 251 -217q0 -160 -139 -201l159 -246h-174l-135 231h-112zM219 363h144q107 0 107 84q0 85 -107 85h-144v-169zM259 724l111 170h138l-129 -170h-120z" />
    <glyph glyph-name="racute" unicode="&#x155;" horiz-adv-x="395" 
d="M315 480q46 0 69 -18v-128h-5q-31 22 -74 22q-60 0 -88 -37.5t-28 -116.5v-202h-131v470h109l6 -73h2q39 83 140 83zM138 538l111 170h138l-129 -170h-120z" />
    <glyph glyph-name="uni0156" unicode="&#x156;" horiz-adv-x="669" 
d="M219 231v-231h-148v664h298q251 0 251 -217q0 -160 -139 -201l159 -246h-174l-135 231h-112zM219 363h144q107 0 107 84q0 85 -107 85h-144v-169zM178 -210l97 150h132l-115 -150h-114z" />
    <glyph glyph-name="uni0157" unicode="&#x157;" horiz-adv-x="395" 
d="M315 480q46 0 69 -18v-128h-5q-31 22 -74 22q-60 0 -88 -37.5t-28 -116.5v-202h-131v470h109l6 -73h2q39 83 140 83zM-38 -210l97 150h132l-115 -150h-114z" />
    <glyph glyph-name="Rcaron" unicode="&#x158;" horiz-adv-x="669" 
d="M219 231v-231h-148v664h298q251 0 251 -217q0 -160 -139 -201l159 -246h-174l-135 231h-112zM219 363h144q107 0 107 84q0 85 -107 85h-144v-169zM386 724h-121l-123 170h120l64 -80l63 80h120z" />
    <glyph glyph-name="rcaron" unicode="&#x159;" horiz-adv-x="395" 
d="M315 480q46 0 69 -18v-128h-5q-31 22 -74 22q-60 0 -88 -37.5t-28 -116.5v-202h-131v470h109l6 -73h2q39 83 140 83zM265 538h-121l-123 170h120l64 -80l63 80h120z" />
    <glyph glyph-name="Sacute" unicode="&#x15a;" horiz-adv-x="590" 
d="M310 674q62 0 119.5 -13.5t88.5 -35.5v-153h-7q-69 71 -203 71q-55 0 -87 -19.5t-32 -53.5q0 -29 27.5 -43.5t100.5 -22.5q130 -14 185.5 -62t55.5 -144q0 -100 -69 -154t-197 -54q-166 0 -247 58v153h7q95 -80 235 -80q124 0 124 73q0 30 -28.5 45.5t-103.5 23.5
q-128 14 -182.5 60t-54.5 138q0 100 71 156.5t197 56.5zM229 724l111 170h138l-129 -170h-120z" />
    <glyph glyph-name="sacute" unicode="&#x15b;" horiz-adv-x="438" 
d="M233 480q90 0 148 -30v-125h-5q-47 47 -140 47q-76 0 -76 -44q0 -16 16.5 -23.5t61.5 -10.5q93 -6 133.5 -41t40.5 -110q0 -72 -51 -112.5t-142 -40.5q-118 0 -178 42v126h6q55 -60 166 -60q76 0 76 45q0 19 -18.5 28t-67.5 13q-90 8 -128 39.5t-38 100.5
q0 71 53.5 113.5t142.5 42.5zM152 538l111 170h138l-129 -170h-120z" />
    <glyph glyph-name="Scircumflex" unicode="&#x15c;" horiz-adv-x="590" 
d="M310 674q62 0 119.5 -13.5t88.5 -35.5v-153h-7q-69 71 -203 71q-55 0 -87 -19.5t-32 -53.5q0 -29 27.5 -43.5t100.5 -22.5q130 -14 185.5 -62t55.5 -144q0 -100 -69 -154t-197 -54q-166 0 -247 58v153h7q95 -80 235 -80q124 0 124 73q0 30 -28.5 45.5t-103.5 23.5
q-128 14 -182.5 60t-54.5 138q0 100 71 156.5t197 56.5zM296 804l-64 -80h-120l123 170h121l123 -170h-120z" />
    <glyph glyph-name="scircumflex" unicode="&#x15d;" horiz-adv-x="438" 
d="M233 480q90 0 148 -30v-125h-5q-47 47 -140 47q-76 0 -76 -44q0 -16 16.5 -23.5t61.5 -10.5q93 -6 133.5 -41t40.5 -110q0 -72 -51 -112.5t-142 -40.5q-118 0 -178 42v126h6q55 -60 166 -60q76 0 76 45q0 19 -18.5 28t-67.5 13q-90 8 -128 39.5t-38 100.5
q0 71 53.5 113.5t142.5 42.5zM219 618l-64 -80h-120l123 170h121l123 -170h-120z" />
    <glyph glyph-name="Scedilla" unicode="&#x15e;" horiz-adv-x="590" 
d="M45 48v153h7q95 -80 235 -80q124 0 124 73q0 30 -28.5 45.5t-103.5 23.5q-128 14 -182.5 60t-54.5 138q0 100 71 156.5t197 56.5q62 0 119.5 -13.5t88.5 -35.5v-153h-7q-69 71 -203 71q-55 0 -87 -19.5t-32 -53.5q0 -29 27.5 -43.5t100.5 -22.5q130 -14 185.5 -62
t55.5 -144q0 -91 -58.5 -144.5t-166.5 -61.5l-22 -39v-2q99 0 99 -74q0 -77 -123 -77q-56 0 -90 14v67h5q35 -19 80 -19q16 0 25 6.5t9 16.5q0 24 -37 24q-23 0 -47 -6v15l41 72q-152 3 -228 58z" />
    <glyph glyph-name="scedilla" unicode="&#x15f;" horiz-adv-x="438" 
d="M41 32v126h6q55 -60 166 -60q76 0 76 45q0 19 -18.5 28t-67.5 13q-90 8 -128 39.5t-38 100.5q0 71 53.5 113.5t142.5 42.5q90 0 148 -30v-125h-5q-47 47 -140 47q-76 0 -76 -44q0 -16 16.5 -23.5t61.5 -10.5q93 -6 133.5 -41t40.5 -110q0 -64 -40 -103t-113 -48l-23 -39
v-2q99 0 99 -74q0 -77 -123 -77q-56 0 -90 14v67h5q35 -19 80 -19q16 0 25 6.5t9 16.5q0 24 -37 24q-23 0 -47 -6v15l41 72q-103 5 -157 42z" />
    <glyph glyph-name="Scaron" unicode="&#x160;" horiz-adv-x="590" 
d="M310 674q62 0 119.5 -13.5t88.5 -35.5v-153h-7q-69 71 -203 71q-55 0 -87 -19.5t-32 -53.5q0 -29 27.5 -43.5t100.5 -22.5q130 -14 185.5 -62t55.5 -144q0 -100 -69 -154t-197 -54q-166 0 -247 58v153h7q95 -80 235 -80q124 0 124 73q0 30 -28.5 45.5t-103.5 23.5
q-128 14 -182.5 60t-54.5 138q0 100 71 156.5t197 56.5zM356 724h-121l-123 170h120l64 -80l63 80h120z" />
    <glyph glyph-name="scaron" unicode="&#x161;" horiz-adv-x="438" 
d="M233 480q90 0 148 -30v-125h-5q-47 47 -140 47q-76 0 -76 -44q0 -16 16.5 -23.5t61.5 -10.5q93 -6 133.5 -41t40.5 -110q0 -72 -51 -112.5t-142 -40.5q-118 0 -178 42v126h6q55 -60 166 -60q76 0 76 45q0 19 -18.5 28t-67.5 13q-90 8 -128 39.5t-38 100.5
q0 71 53.5 113.5t142.5 42.5zM279 538h-121l-123 170h120l64 -80l63 80h120z" />
    <glyph glyph-name="uni0162" unicode="&#x162;" horiz-adv-x="595" 
d="M306 -47v-2q99 0 99 -74q0 -77 -123 -77q-56 0 -90 14v67h5q35 -19 80 -19q16 0 25 6.5t9 16.5q0 24 -37 24q-23 0 -47 -6v15l47 82h-50v532h-198v132h543v-132h-197v-532h-39z" />
    <glyph glyph-name="uni0163" unicode="&#x163;" horiz-adv-x="391" 
d="M215 -47v-2q99 0 99 -74q0 -77 -123 -77q-56 0 -90 14v67h5q35 -19 80 -19q16 0 25 6.5t9 16.5q0 24 -37 24q-23 0 -47 -6v15l50 85q-95 38 -95 168v188h-78v111h82l17 132h110v-132h135v-111h-135v-183q0 -34 17 -52t48 -18q40 0 66 27h5v-127q-33 -16 -92 -16
q-20 0 -29 1z" />
    <glyph glyph-name="Tcaron" unicode="&#x164;" horiz-adv-x="595" 
d="M372 532v-532h-148v532h-198v132h543v-132h-197zM357 724h-121l-123 170h120l64 -80l63 80h120z" />
    <glyph glyph-name="tcaron" unicode="&#x165;" horiz-adv-x="391" 
d="M358 133v-127q-33 -16 -92 -16q-86 0 -130.5 46t-44.5 135v188h-78v111h82l17 132h110v-132h135v-111h-135v-183q0 -34 17 -52t48 -18q40 0 66 27h5zM262 504l27 196h132l-60 -196h-99z" />
    <glyph glyph-name="Tbar" unicode="&#x166;" horiz-adv-x="595" 
d="M372 388h108v-101h-108v-287h-148v287h-110v101h110v144h-198v132h543v-132h-197v-144z" />
    <glyph glyph-name="tbar" unicode="&#x167;" horiz-adv-x="401" 
d="M360 133v-127q-33 -16 -92 -16q-86 0 -130.5 46t-44.5 135v37h-68v89h68v62h-78v111h82l17 132h110v-132h135v-111h-135v-62h114v-89h-114v-32q0 -34 17 -52t48 -18q40 0 66 27h5z" />
    <glyph glyph-name="Utilde" unicode="&#x168;" horiz-adv-x="690" 
d="M634 664v-381q0 -293 -291 -293q-287 0 -287 293v381h148v-371q0 -171 143 -171q144 0 144 171v371h143zM509 885v-101q-34 -56 -93 -56q-38 0 -81 24q-38 21 -68 21q-52 0 -81 -55h-5v101q32 56 93 56q38 0 81 -24q38 -21 68 -21q50 0 81 55h5z" />
    <glyph glyph-name="utilde" unicode="&#x169;" horiz-adv-x="552" 
d="M494 0h-109l-5 67h-2q-44 -77 -146 -77q-86 0 -134.5 53.5t-48.5 148.5v278h131v-263q0 -49 23 -75t64 -26q45 0 70.5 30t25.5 84v250h131v-470zM435 699v-101q-34 -56 -93 -56q-38 0 -81 24q-38 21 -68 21q-52 0 -81 -55h-5v101q32 56 93 56q38 0 81 -24q38 -21 68 -21
q50 0 81 55h5z" />
    <glyph glyph-name="Umacron" unicode="&#x16a;" horiz-adv-x="690" 
d="M634 664v-381q0 -293 -291 -293q-287 0 -287 293v381h148v-371q0 -171 143 -171q144 0 144 171v371h143zM181 750v103h328v-103h-328z" />
    <glyph glyph-name="umacron" unicode="&#x16b;" horiz-adv-x="552" 
d="M494 0h-109l-5 67h-2q-44 -77 -146 -77q-86 0 -134.5 53.5t-48.5 148.5v278h131v-263q0 -49 23 -75t64 -26q45 0 70.5 30t25.5 84v250h131v-470zM107 564v103h328v-103h-328z" />
    <glyph glyph-name="Ubreve" unicode="&#x16c;" horiz-adv-x="690" 
d="M634 664v-381q0 -293 -291 -293q-287 0 -287 293v381h148v-371q0 -171 143 -171q144 0 144 171v371h143zM425 889h93q-4 -79 -48.5 -121t-124.5 -42t-124.5 42t-48.5 121h93q10 -64 80 -64t80 64z" />
    <glyph glyph-name="ubreve" unicode="&#x16d;" horiz-adv-x="552" 
d="M494 0h-109l-5 67h-2q-44 -77 -146 -77q-86 0 -134.5 53.5t-48.5 148.5v278h131v-263q0 -49 23 -75t64 -26q45 0 70.5 30t25.5 84v250h131v-470zM351 703h93q-4 -79 -48.5 -121t-124.5 -42t-124.5 42t-48.5 121h93q10 -64 80 -64t80 64z" />
    <glyph glyph-name="Uring" unicode="&#x16e;" horiz-adv-x="690" 
d="M634 664v-381q0 -293 -291 -293q-287 0 -287 293v381h148v-371q0 -171 143 -171q144 0 144 171v371h143zM345 918q48 0 78.5 -30.5t30.5 -78.5t-30.5 -78.5t-78.5 -30.5t-78.5 30.5t-30.5 78.5t30.5 78.5t78.5 30.5zM345 850q-18 0 -29.5 -11t-11.5 -30t11.5 -30
t29.5 -11t29.5 11t11.5 30t-11.5 30t-29.5 11z" />
    <glyph glyph-name="uring" unicode="&#x16f;" horiz-adv-x="552" 
d="M494 0h-109l-5 67h-2q-44 -77 -146 -77q-86 0 -134.5 53.5t-48.5 148.5v278h131v-263q0 -49 23 -75t64 -26q45 0 70.5 30t25.5 84v250h131v-470zM271 732q48 0 78.5 -30.5t30.5 -78.5t-30.5 -78.5t-78.5 -30.5t-78.5 30.5t-30.5 78.5t30.5 78.5t78.5 30.5zM271 664
q-18 0 -29.5 -11t-11.5 -30t11.5 -30t29.5 -11t29.5 11t11.5 30t-11.5 30t-29.5 11z" />
    <glyph glyph-name="Uhungarumlaut" unicode="&#x170;" horiz-adv-x="690" 
d="M634 664v-381q0 -293 -291 -293q-287 0 -287 293v381h148v-371q0 -171 143 -171q144 0 144 171v371h143zM180 724l111 170h132l-129 -170h-114zM374 724l112 170h131l-129 -170h-114z" />
    <glyph glyph-name="uhungarumlaut" unicode="&#x171;" horiz-adv-x="552" 
d="M494 0h-109l-5 67h-2q-44 -77 -146 -77q-86 0 -134.5 53.5t-48.5 148.5v278h131v-263q0 -49 23 -75t64 -26q45 0 70.5 30t25.5 84v250h131v-470zM106 538l111 170h132l-129 -170h-114zM300 538l112 170h131l-129 -170h-114z" />
    <glyph glyph-name="Uogonek" unicode="&#x172;" horiz-adv-x="690" 
d="M634 664v-381q0 -191 -127 -260q-82 -46 -82 -102q0 -16 11 -26t27 -10q33 0 65 27h5v-95q-36 -17 -92 -17q-50 0 -80.5 24.5t-30.5 66.5q0 58 45 98v2q-10 -1 -32 -1q-287 0 -287 293v381h148v-371q0 -171 143 -171q144 0 144 171v371h143z" />
    <glyph glyph-name="uogonek" unicode="&#x173;" horiz-adv-x="552" 
d="M494 0h-37q-70 -30 -70 -80q0 -16 10.5 -25.5t26.5 -9.5q34 0 65 27h5v-95q-36 -17 -92 -17q-51 0 -81 24t-30 66q0 80 93 126l-4 51h-2q-44 -77 -146 -77q-86 0 -134.5 53.5t-48.5 148.5v278h131v-263q0 -49 23 -75t64 -26q45 0 70.5 30t25.5 84v250h131v-470z" />
    <glyph glyph-name="Wcircumflex" unicode="&#x174;" horiz-adv-x="1010" 
d="M788 0h-151l-131 423h-2l-132 -423h-150l-205 664h156l130 -443h2l138 443h127l138 -446h2l131 446h152zM505 804l-64 -80h-120l123 170h121l123 -170h-120z" />
    <glyph glyph-name="wcircumflex" unicode="&#x175;" horiz-adv-x="768" 
d="M762 470l-157 -470h-125l-94 284h-2l-95 -284h-125l-158 470h139l88 -303h2l101 303h103l100 -303h2l88 303h133zM384 618l-64 -80h-120l123 170h121l123 -170h-120z" />
    <glyph glyph-name="Ycircumflex" unicode="&#x176;" horiz-adv-x="699" 
d="M424 0h-148v272l-272 392h179l169 -257l169 257h174l-271 -392v-272zM350 804l-64 -80h-120l123 170h121l123 -170h-120z" />
    <glyph glyph-name="ycircumflex" unicode="&#x177;" horiz-adv-x="508" 
d="M233 -190h-135l89 205l-181 455h140l110 -310h2l109 310h135zM254 618l-64 -80h-120l123 170h121l123 -170h-120z" />
    <glyph glyph-name="Ydieresis" unicode="&#x178;" horiz-adv-x="699" 
d="M424 0h-148v272l-272 392h179l169 -257l169 257h174l-271 -392v-272zM244 876q33 0 54 -21t21 -53t-21 -53.5t-54 -21.5t-53 21t-20 54q0 32 20 53t53 21zM456 876q33 0 53 -21t20 -53q0 -33 -20 -54t-53 -21t-54 21.5t-21 53.5t21 53t54 21z" />
    <glyph glyph-name="Zacute" unicode="&#x179;" horiz-adv-x="647" 
d="M601 0h-554v126l353 406h-333v132h529v-126l-353 -406h358v-132zM261 724l111 170h138l-129 -170h-120z" />
    <glyph glyph-name="zacute" unicode="&#x17a;" horiz-adv-x="497" 
d="M41 0v105l237 254h-222v111h395v-105l-237 -254h242v-111h-415zM185 538l111 170h138l-129 -170h-120z" />
    <glyph glyph-name="Zdotaccent" unicode="&#x17b;" horiz-adv-x="647" 
d="M601 0h-554v126l353 406h-333v132h529v-126l-353 -406h358v-132zM328 883q35 0 58.5 -23t23.5 -58q0 -36 -23.5 -59t-58.5 -23t-58.5 23t-23.5 59q0 35 23.5 58t58.5 23z" />
    <glyph glyph-name="zdotaccent" unicode="&#x17c;" horiz-adv-x="497" 
d="M41 0v105l237 254h-222v111h395v-105l-237 -254h242v-111h-415zM252 697q35 0 58.5 -23t23.5 -58q0 -36 -23.5 -59t-58.5 -23t-58.5 23t-23.5 59q0 35 23.5 58t58.5 23z" />
    <glyph glyph-name="Zcaron" unicode="&#x17d;" horiz-adv-x="647" 
d="M601 0h-554v126l353 406h-333v132h529v-126l-353 -406h358v-132zM388 724h-121l-123 170h120l64 -80l63 80h120z" />
    <glyph glyph-name="zcaron" unicode="&#x17e;" horiz-adv-x="497" 
d="M41 0v105l237 254h-222v111h395v-105l-237 -254h242v-111h-415zM312 538h-121l-123 170h120l64 -80l63 80h120z" />
    <glyph glyph-name="florin" unicode="&#x192;" horiz-adv-x="650" 
d="M474 674q62 0 99 -17l-9 -117h-7q-25 18 -65 18q-75 0 -86 -76l-7 -51h136v-112h-152l-29 -209q-12 -87 -60.5 -133.5t-126.5 -46.5q-62 0 -99 17l9 117h7q26 -18 65 -18q65 0 76 76l28 197h-118v112h133l9 63q26 180 197 180z" />
    <glyph glyph-name="AEacute" unicode="&#x1fc;" horiz-adv-x="1050" 
d="M653 395h277v-124h-277v-139h349v-132h-497v112h-261l-72 -112h-168l441 664h557v-132h-349v-137zM505 517h-2l-178 -278h180v278zM480 724l111 170h138l-129 -170h-120z" />
    <glyph glyph-name="aeacute" unicode="&#x1fd;" horiz-adv-x="917" 
d="M887 202h-356q10 -47 51.5 -73t104.5 -26q108 0 167 57h5v-126q-62 -44 -159 -44q-127 0 -182 71h-2l-2 -61h-97l-2 61h-2q-49 -71 -152 -71q-100 0 -165 69.5t-65 175.5t65 175.5t165 69.5q102 0 151 -69h2l3 59h97l2 -59h2q50 69 156 69q102 0 157.5 -59t55.5 -166v-53
zM283 106q53 0 86 36t33 93t-33 93t-86 36t-86.5 -36t-33.5 -93t33.5 -93t86.5 -36zM531 281h238q-8 40 -39 63t-78 23t-78.5 -23t-42.5 -63zM398 538l111 170h138l-129 -170h-120z" />
    <glyph glyph-name="Oslashacute" unicode="&#x1fe;" horiz-adv-x="760" 
d="M729 664l-84 -100q84 -95 84 -232q0 -150 -97.5 -246t-251.5 -96q-101 0 -179 43l-28 -33h-142l84 100q-84 95 -84 232q0 150 97.5 246t251.5 96q101 0 179 -43l28 33h142zM181 332q0 -66 30 -117l258 308q-41 19 -89 19q-88 0 -143.5 -58.5t-55.5 -151.5zM579 332
q0 66 -30 117l-258 -308q41 -19 89 -19q88 0 143.5 58.5t55.5 151.5zM313 724l111 170h138l-129 -170h-120z" />
    <glyph glyph-name="oslashacute" unicode="&#x1ff;" horiz-adv-x="565" 
d="M534 470l-57 -72q57 -66 57 -163q0 -107 -70.5 -176t-180.5 -69q-60 0 -112 22l-10 -12h-130l58 73q-58 66 -58 162q0 108 70.5 176.5t181.5 68.5q59 0 111 -22l10 12h130zM163 235q0 -28 10 -56l143 181q-20 4 -33 4q-53 0 -86.5 -36t-33.5 -93zM402 235q0 28 -10 56
l-143 -181q20 -4 34 -4q53 0 86 36t33 93zM223 538l111 170h138l-129 -170h-120z" />
    <glyph glyph-name="uni0218" unicode="&#x218;" horiz-adv-x="590" 
d="M310 674q62 0 119.5 -13.5t88.5 -35.5v-153h-7q-69 71 -203 71q-55 0 -87 -19.5t-32 -53.5q0 -29 27.5 -43.5t100.5 -22.5q130 -14 185.5 -62t55.5 -144q0 -100 -69 -154t-197 -54q-166 0 -247 58v153h7q95 -80 235 -80q124 0 124 73q0 30 -28.5 45.5t-103.5 23.5
q-128 14 -182.5 60t-54.5 138q0 100 71 156.5t197 56.5zM140 -210l97 150h132l-115 -150h-114z" />
    <glyph glyph-name="uni0219" unicode="&#x219;" horiz-adv-x="438" 
d="M233 480q90 0 148 -30v-125h-5q-47 47 -140 47q-76 0 -76 -44q0 -16 16.5 -23.5t61.5 -10.5q93 -6 133.5 -41t40.5 -110q0 -72 -51 -112.5t-142 -40.5q-118 0 -178 42v126h6q55 -60 166 -60q76 0 76 45q0 19 -18.5 28t-67.5 13q-90 8 -128 39.5t-38 100.5
q0 71 53.5 113.5t142.5 42.5zM65 -210l97 150h132l-115 -150h-114z" />
    <glyph glyph-name="uni021A" unicode="&#x21a;" horiz-adv-x="595" 
d="M372 532v-532h-148v532h-198v132h543v-132h-197zM135 -210l97 150h132l-115 -150h-114z" />
    <glyph glyph-name="uni021B" unicode="&#x21b;" horiz-adv-x="391" 
d="M358 133v-127q-33 -16 -92 -16q-86 0 -130.5 46t-44.5 135v188h-78v111h82l17 132h110v-132h135v-111h-135v-183q0 -34 17 -52t48 -18q40 0 66 27h5zM44 -210l97 150h132l-115 -150h-114z" />
    <glyph glyph-name="uni0237" unicode="&#x237;" horiz-adv-x="248" 
d="M189 470v-514q0 -76 -37.5 -116t-106.5 -40q-36 0 -67 10v118h6q15 -12 35 -12q39 0 39 51v503h131z" />
    <glyph glyph-name="circumflex" unicode="&#x2c6;" horiz-adv-x="500" 
d="M251 618l-64 -80h-120l123 170h121l123 -170h-120z" />
    <glyph glyph-name="caron" unicode="&#x2c7;" horiz-adv-x="500" 
d="M311 538h-121l-123 170h120l64 -80l63 80h120z" />
    <glyph glyph-name="breve" unicode="&#x2d8;" horiz-adv-x="500" 
d="M330 703h93q-4 -79 -48.5 -121t-124.5 -42t-124.5 42t-48.5 121h93q10 -64 80 -64t80 64z" />
    <glyph glyph-name="dotaccent" unicode="&#x2d9;" horiz-adv-x="500" 
d="M250 697q35 0 58.5 -23t23.5 -58q0 -36 -23.5 -59t-58.5 -23t-58.5 23t-23.5 59q0 35 23.5 58t58.5 23z" />
    <glyph glyph-name="ring" unicode="&#x2da;" horiz-adv-x="500" 
d="M250 732q48 0 78.5 -30.5t30.5 -78.5t-30.5 -78.5t-78.5 -30.5t-78.5 30.5t-30.5 78.5t30.5 78.5t78.5 30.5zM250 664q-18 0 -29.5 -11t-11.5 -30t11.5 -30t29.5 -11t29.5 11t11.5 30t-11.5 30t-29.5 11z" />
    <glyph glyph-name="ogonek" unicode="&#x2db;" horiz-adv-x="500" 
d="M320 39l14 -39q-70 -30 -70 -80q0 -16 10.5 -25.5t26.5 -9.5q33 0 65 27h5v-95q-36 -17 -92 -17q-51 0 -81 24t-30 66q0 101 152 149z" />
    <glyph glyph-name="tilde" unicode="&#x2dc;" horiz-adv-x="500" 
d="M414 699v-101q-34 -56 -93 -56q-38 0 -81 24q-38 21 -68 21q-52 0 -81 -55h-5v101q32 56 93 56q38 0 81 -24q38 -21 68 -21q50 0 81 55h5z" />
    <glyph glyph-name="hungarumlaut" unicode="&#x2dd;" horiz-adv-x="500" 
d="M82 538l111 170h132l-129 -170h-114zM276 538l112 170h131l-129 -170h-114z" />
    <glyph glyph-name="uni0394" unicode="&#x394;" horiz-adv-x="736" 
d="M13 0l283 664h143l283 -664h-709zM364 495l-144 -363h290l-144 363h-2z" />
    <glyph glyph-name="uni03A9" unicode="&#x3a9;" horiz-adv-x="772" 
d="M723 132v-132h-273v126q135 78 135 218q0 88 -55.5 143t-143.5 55t-143.5 -55t-55.5 -143q0 -140 135 -218v-126h-273v132h120v2q-63 33 -97.5 93.5t-34.5 139.5q0 137 97 222t252 85t252 -85t97 -222q0 -79 -34.5 -139.5t-97.5 -93.5v-2h120z" />
    <glyph glyph-name="uni03BC" unicode="&#x3bc;" horiz-adv-x="568" 
d="M507 0h-109l-5 67h-2q-43 -77 -147 -77q-28 0 -52 6v-186h-131v660h131v-263q0 -49 23 -75t64 -26q47 0 72 29.5t25 84.5v250h131v-470z" />
    <glyph glyph-name="pi" unicode="&#x3c0;" horiz-adv-x="604" 
d="M514 359v-359h-131v359h-163v-359h-131v359h-73v111h572v-111h-74z" />
    <glyph glyph-name="uni1E02" unicode="&#x1e02;" horiz-adv-x="648" 
d="M508 340v-2q110 -36 110 -153q0 -185 -236 -185h-311v664h286q117 0 177 -46.5t60 -136.5q0 -102 -86 -141zM219 396h126q100 0 100 69q0 67 -90 67h-136v-136zM219 132h158q91 0 91 69q0 71 -100 71h-149v-140zM315 883q35 0 58.5 -23t23.5 -58q0 -36 -23.5 -59
t-58.5 -23t-58.5 23t-23.5 59q0 35 23.5 58t58.5 23z" />
    <glyph glyph-name="uni1E03" unicode="&#x1e03;" horiz-adv-x="588" 
d="M327 480q100 0 165 -69.5t65 -175.5t-65 -175.5t-165 -69.5q-105 0 -153 72h-2l-5 -62h-109v700h131v-271h2q49 51 136 51zM305 106q54 0 87 36t33 93t-33 93t-87 36q-53 0 -86 -36t-33 -93t33 -93t86 -36zM124 914q35 0 58.5 -23t23.5 -58q0 -36 -23.5 -59t-58.5 -23
t-58.5 23t-23.5 59q0 35 23.5 58t58.5 23z" />
    <glyph glyph-name="uni1E0A" unicode="&#x1e0a;" horiz-adv-x="722" 
d="M71 664h267q169 0 261.5 -87t92.5 -245t-92.5 -245t-261.5 -87h-267v664zM219 132h110q104 0 158.5 51t54.5 149t-54.5 149t-158.5 51h-110v-400zM344 883q35 0 58.5 -23t23.5 -58q0 -36 -23.5 -59t-58.5 -23t-58.5 23t-23.5 59q0 35 23.5 58t58.5 23z" />
    <glyph glyph-name="uni1E0B" unicode="&#x1e0b;" horiz-adv-x="587" 
d="M529 0h-109l-4 63h-2q-49 -73 -153 -73q-100 0 -165 69.5t-65 175.5t65 175.5t165 69.5q85 0 135 -50h2v270h131v-700zM283 106q53 0 86 36t33 93t-33 93t-86 36t-86.5 -36t-33.5 -93t33.5 -93t86.5 -36zM464 914q35 0 58.5 -23t23.5 -58q0 -36 -23.5 -59t-58.5 -23
t-58.5 23t-23.5 59q0 35 23.5 58t58.5 23z" />
    <glyph glyph-name="uni1E1E" unicode="&#x1e1e;" horiz-adv-x="598" 
d="M219 386h277v-132h-277v-254h-148v664h497v-132h-349v-146zM315 883q35 0 58.5 -23t23.5 -58q0 -36 -23.5 -59t-58.5 -23t-58.5 23t-23.5 59q0 35 23.5 58t58.5 23z" />
    <glyph glyph-name="uni1E1F" unicode="&#x1e1f;" horiz-adv-x="370" 
d="M270 710q61 0 98 -16v-120h-5q-30 20 -73 20q-32 0 -50 -19t-18 -53v-52h135v-111h-135v-359h-131v359h-78v111h78v56q0 89 46 136.5t133 47.5zM208 914q35 0 58.5 -23t23.5 -58q0 -36 -23.5 -59t-58.5 -23t-58.5 23t-23.5 59q0 35 23.5 58t58.5 23z" />
    <glyph glyph-name="uni1E40" unicode="&#x1e40;" horiz-adv-x="949" 
d="M878 0h-148v500h-2l-192 -500h-134l-186 486h-2v-486h-143v664h222l178 -463h2l178 463h227v-664zM474 883q35 0 58.5 -23t23.5 -58q0 -36 -23.5 -59t-58.5 -23t-58.5 23t-23.5 59q0 35 23.5 58t58.5 23z" />
    <glyph glyph-name="uni1E41" unicode="&#x1e41;" horiz-adv-x="837" 
d="M613 480q84 0 129.5 -52t45.5 -148v-280h-131v265q0 99 -79 99q-88 0 -88 -122v-242h-131v265q0 99 -80 99q-88 0 -88 -112v-252h-131v470h109l5 -63h2q42 73 138 73q98 0 143 -77h2q43 77 154 77zM424 697q35 0 58.5 -23t23.5 -58q0 -36 -23.5 -59t-58.5 -23t-58.5 23
t-23.5 59q0 35 23.5 58t58.5 23z" />
    <glyph glyph-name="uni1E56" unicode="&#x1e56;" horiz-adv-x="642" 
d="M71 664h293q251 0 251 -221q0 -220 -251 -220h-145v-223h-148v664zM219 355h138q108 0 108 88q0 89 -108 89h-138v-177zM325 883q35 0 58.5 -23t23.5 -58q0 -36 -23.5 -59t-58.5 -23t-58.5 23t-23.5 59q0 35 23.5 58t58.5 23z" />
    <glyph glyph-name="uni1E57" unicode="&#x1e57;" horiz-adv-x="588" 
d="M327 480q100 0 165 -69.5t65 -175.5t-65 -175.5t-165 -69.5q-87 0 -136 51h-2v-231h-131v660h109l5 -62h2q47 72 153 72zM305 106q54 0 87 36t33 93t-33 93t-87 36q-53 0 -86 -36t-33 -93t33 -93t86 -36zM308 697q35 0 58.5 -23t23.5 -58q0 -36 -23.5 -59t-58.5 -23
t-58.5 23t-23.5 59q0 35 23.5 58t58.5 23z" />
    <glyph glyph-name="uni1E60" unicode="&#x1e60;" horiz-adv-x="590" 
d="M310 674q62 0 119.5 -13.5t88.5 -35.5v-153h-7q-69 71 -203 71q-55 0 -87 -19.5t-32 -53.5q0 -29 27.5 -43.5t100.5 -22.5q130 -14 185.5 -62t55.5 -144q0 -100 -69 -154t-197 -54q-166 0 -247 58v153h7q95 -80 235 -80q124 0 124 73q0 30 -28.5 45.5t-103.5 23.5
q-128 14 -182.5 60t-54.5 138q0 100 71 156.5t197 56.5zM296 883q35 0 58.5 -23t23.5 -58q0 -36 -23.5 -59t-58.5 -23t-58.5 23t-23.5 59q0 35 23.5 58t58.5 23z" />
    <glyph glyph-name="uni1E61" unicode="&#x1e61;" horiz-adv-x="438" 
d="M233 480q90 0 148 -30v-125h-5q-47 47 -140 47q-76 0 -76 -44q0 -16 16.5 -23.5t61.5 -10.5q93 -6 133.5 -41t40.5 -110q0 -72 -51 -112.5t-142 -40.5q-118 0 -178 42v126h6q55 -60 166 -60q76 0 76 45q0 19 -18.5 28t-67.5 13q-90 8 -128 39.5t-38 100.5
q0 71 53.5 113.5t142.5 42.5zM219 697q35 0 58.5 -23t23.5 -58q0 -36 -23.5 -59t-58.5 -23t-58.5 23t-23.5 59q0 35 23.5 58t58.5 23z" />
    <glyph glyph-name="uni1E6A" unicode="&#x1e6a;" horiz-adv-x="595" 
d="M372 532v-532h-148v532h-198v132h543v-132h-197zM297 883q35 0 58.5 -23t23.5 -58q0 -36 -23.5 -59t-58.5 -23t-58.5 23t-23.5 59q0 35 23.5 58t58.5 23z" />
    <glyph glyph-name="uni1E6B" unicode="&#x1e6b;" horiz-adv-x="391" 
d="M358 133v-127q-33 -16 -92 -16q-86 0 -130.5 46t-44.5 135v188h-78v111h82l17 132h110v-132h135v-111h-135v-183q0 -34 17 -52t48 -18q40 0 66 27h5zM165 823q35 0 58.5 -23t23.5 -58q0 -36 -23.5 -59t-58.5 -23t-58.5 23t-23.5 59q0 35 23.5 58t58.5 23z" />
    <glyph glyph-name="Wgrave" unicode="&#x1e80;" horiz-adv-x="1010" 
d="M788 0h-151l-131 423h-2l-132 -423h-150l-205 664h156l130 -443h2l138 443h127l138 -446h2l131 446h152zM451 724l-129 170h138l111 -170h-120z" />
    <glyph glyph-name="wgrave" unicode="&#x1e81;" horiz-adv-x="768" 
d="M762 470l-157 -470h-125l-94 284h-2l-95 -284h-125l-158 470h139l88 -303h2l101 303h103l100 -303h2l88 303h133zM330 538l-129 170h138l111 -170h-120z" />
    <glyph glyph-name="Wacute" unicode="&#x1e82;" horiz-adv-x="1010" 
d="M788 0h-151l-131 423h-2l-132 -423h-150l-205 664h156l130 -443h2l138 443h127l138 -446h2l131 446h152zM438 724l111 170h138l-129 -170h-120z" />
    <glyph glyph-name="wacute" unicode="&#x1e83;" horiz-adv-x="768" 
d="M762 470l-157 -470h-125l-94 284h-2l-95 -284h-125l-158 470h139l88 -303h2l101 303h103l100 -303h2l88 303h133zM317 538l111 170h138l-129 -170h-120z" />
    <glyph glyph-name="Wdieresis" unicode="&#x1e84;" horiz-adv-x="1010" 
d="M788 0h-151l-131 423h-2l-132 -423h-150l-205 664h156l130 -443h2l138 443h127l138 -446h2l131 446h152zM399 876q33 0 54 -21t21 -53t-21 -53.5t-54 -21.5t-53 21t-20 54q0 32 20 53t53 21zM611 876q33 0 53 -21t20 -53q0 -33 -20 -54t-53 -21t-54 21.5t-21 53.5t21 53
t54 21z" />
    <glyph glyph-name="wdieresis" unicode="&#x1e85;" horiz-adv-x="768" 
d="M762 470l-157 -470h-125l-94 284h-2l-95 -284h-125l-158 470h139l88 -303h2l101 303h103l100 -303h2l88 303h133zM278 690q33 0 54 -21t21 -53t-21 -53.5t-54 -21.5t-53 21t-20 54q0 32 20 53t53 21zM490 690q33 0 53 -21t20 -53q0 -33 -20 -54t-53 -21t-54 21.5
t-21 53.5t21 53t54 21z" />
    <glyph glyph-name="Ygrave" unicode="&#x1ef2;" horiz-adv-x="699" 
d="M424 0h-148v272l-272 392h179l169 -257l169 257h174l-271 -392v-272zM296 724l-129 170h138l111 -170h-120z" />
    <glyph glyph-name="ygrave" unicode="&#x1ef3;" horiz-adv-x="508" 
d="M233 -190h-135l89 205l-181 455h140l110 -310h2l109 310h135zM200 538l-129 170h138l111 -170h-120z" />
    <glyph glyph-name="uni2007" unicode="&#x2007;" horiz-adv-x="650" 
 />
    <glyph glyph-name="figuredash" unicode="&#x2012;" horiz-adv-x="650" 
d="M50 274v116h550v-116h-550z" />
    <glyph glyph-name="endash" unicode="&#x2013;" horiz-adv-x="500" 
d="M50 216v116h400v-116h-400z" />
    <glyph glyph-name="emdash" unicode="&#x2014;" horiz-adv-x="1000" 
d="M50 216v116h900v-116h-900z" />
    <glyph glyph-name="quoteleft" unicode="&#x2018;" horiz-adv-x="275" 
d="M253 664l-92 -251h-135l121 251h106z" />
    <glyph glyph-name="quoteright" unicode="&#x2019;" horiz-adv-x="275" 
d="M22 413l92 251h135l-121 -251h-106z" />
    <glyph glyph-name="quotesinglbase" unicode="&#x201a;" horiz-adv-x="275" 
d="M-7 -106l92 251h135l-121 -251h-106z" />
    <glyph glyph-name="quotedblleft" unicode="&#x201c;" horiz-adv-x="483" 
d="M253 664l-92 -251h-135l121 251h106zM461 664l-92 -251h-135l121 251h106z" />
    <glyph glyph-name="quotedblright" unicode="&#x201d;" horiz-adv-x="483" 
d="M22 413l92 251h135l-121 -251h-106zM230 413l92 251h135l-121 -251h-106z" />
    <glyph glyph-name="quotedblbase" unicode="&#x201e;" horiz-adv-x="483" 
d="M201 -106l92 251h135l-121 -251h-106zM-7 -106l92 251h135l-121 -251h-106z" />
    <glyph glyph-name="dagger" unicode="&#x2020;" horiz-adv-x="487" 
d="M297 456v-368h-106v368h-143v92h143v152h106v-152h143v-92h-143z" />
    <glyph glyph-name="daggerdbl" unicode="&#x2021;" horiz-adv-x="487" 
d="M297 332h143v-92h-143v-152h-106v152h-143v92h143v124h-143v92h143v152h106v-152h143v-92h-143v-124z" />
    <glyph glyph-name="bullet" unicode="&#x2022;" horiz-adv-x="500" 
d="M250 427q66 0 109 -43.5t43 -109.5t-43 -109t-109 -43t-109 43t-43 109t43 109.5t109 43.5z" />
    <glyph glyph-name="ellipsis" unicode="&#x2026;" horiz-adv-x="1000" 
d="M820 155q35 0 58.5 -24t23.5 -59t-23.5 -58.5t-58.5 -23.5q-36 0 -59.5 23.5t-23.5 58.5t23.5 59t59.5 24zM500 155q35 0 58.5 -24t23.5 -59t-23.5 -58.5t-58.5 -23.5q-36 0 -59.5 23.5t-23.5 58.5t23.5 59t59.5 24zM181 155q35 0 58.5 -24t23.5 -59t-23.5 -58.5
t-58.5 -23.5q-36 0 -59.5 23.5t-23.5 58.5t23.5 59t59.5 24z" />
    <glyph glyph-name="perthousand" unicode="&#x2030;" horiz-adv-x="1109" 
d="M925 319q71 0 111 -45t40 -120q0 -74 -40 -119t-111 -45t-111 45t-40 119q0 75 40 120t111 45zM925 240q-28 0 -44.5 -23t-16.5 -63q0 -39 16.5 -62t44.5 -23t44.5 23t16.5 62q0 40 -16.5 63t-44.5 23zM185 674q71 0 111 -45t40 -120q0 -74 -40 -119t-111 -45t-111 45
t-40 119q0 75 40 120t111 45zM116 0l428 664h102l-428 -664h-102zM185 595q-28 0 -44.5 -23t-16.5 -63q0 -39 16.5 -62t44.5 -23t44.5 23t16.5 62q0 40 -16.5 63t-44.5 23zM577 319q71 0 111 -45t40 -120q0 -74 -40 -119t-111 -45t-111 45t-40 119q0 75 40 120t111 45z
M577 240q-28 0 -44.5 -23t-16.5 -63q0 -39 16.5 -62t44.5 -23t44.5 23t16.5 62q0 40 -16.5 63t-44.5 23z" />
    <glyph glyph-name="guilsinglleft" unicode="&#x2039;" horiz-adv-x="292" 
d="M244 146v-134l-217 219v8l217 220v-134l-97 -90z" />
    <glyph glyph-name="guilsinglright" unicode="&#x203a;" horiz-adv-x="292" 
d="M48 324v134l217 -219v-8l-217 -220v134l97 90z" />
    <glyph glyph-name="fraction" unicode="&#x2044;" horiz-adv-x="158" 
d="M-186 0l430 664h100l-430 -664h-100z" />
    <glyph glyph-name="zerosuperior" unicode="&#x2070;" 
d="M205 804q80 0 123 -54.5t43 -156.5t-43 -156.5t-123 -54.5t-123 54.5t-43 156.5t43 156.5t123 54.5zM205 718q-71 0 -71 -125t71 -125t71 125t-71 125z" />
    <glyph glyph-name="foursuperior" unicode="&#x2074;" 
d="M333 459v-71h-94v71h-200v82l197 257h97v-253h50v-86h-50zM239 682l-106 -137h106v137z" />
    <glyph glyph-name="fivesuperior" unicode="&#x2075;" 
d="M219 654q68 0 106.5 -35.5t38.5 -98.5q0 -65 -43.5 -101.5t-119.5 -36.5q-88 0 -138 28v96h5q46 -38 128 -38q35 0 54 13.5t19 38.5q0 53 -92 53q-55 0 -97 -14h-5v239h262v-86h-185v-64q30 6 67 6z" />
    <glyph glyph-name="sixsuperior" unicode="&#x2076;" 
d="M234 657q63 0 99.5 -35.5t36.5 -96.5q0 -65 -41 -104t-109 -39q-82 0 -128 53t-46 147q0 104 49 163t136 59q72 0 107 -26v-96h-5q-38 36 -92 36q-83 0 -98 -89h2q34 28 89 28zM217 468q26 0 42 15t16 40q0 26 -16 41t-43 15q-49 0 -73 -37q2 -35 21.5 -54.5t52.5 -19.5z
" />
    <glyph glyph-name="sevensuperior" unicode="&#x2077;" 
d="M369 710l-185 -322h-112l194 324h-209v86h312v-88z" />
    <glyph glyph-name="eightsuperior" unicode="&#x2078;" 
d="M310 600v-2q64 -27 64 -97q0 -56 -45 -87.5t-125 -31.5q-79 0 -123.5 31.5t-44.5 87.5q0 67 64 93v2q-52 29 -52 91q0 55 41.5 86t114.5 31q74 0 116 -31t42 -86q0 -61 -52 -87zM204 718q-62 0 -62 -43q0 -41 62 -41q64 0 64 41q0 43 -64 43zM204 468q75 0 75 45
q0 43 -75 43q-73 0 -73 -43q0 -45 73 -45z" />
    <glyph glyph-name="ninesuperior" unicode="&#x2079;" 
d="M190 804q82 0 128 -53t46 -147q0 -104 -49 -163t-136 -59q-72 0 -107 26v96h5q38 -36 92 -36q83 0 98 89h-2q-34 -28 -89 -28q-63 0 -99.5 35.5t-36.5 96.5q0 65 41 104t109 39zM194 607q49 0 73 37q-2 35 -21.5 54.5t-52.5 19.5q-26 0 -42 -15t-16 -40q0 -26 16 -41
t43 -15z" />
    <glyph glyph-name="zeroinferior" unicode="&#x2080;" 
d="M205 226q80 0 123 -54.5t43 -156.5t-43 -156.5t-123 -54.5t-123 54.5t-43 156.5t43 156.5t123 54.5zM205 140q-71 0 -71 -125t71 -125t71 125t-71 125z" />
    <glyph glyph-name="oneinferior" unicode="&#x2081;" 
d="M312 -190h-94v299l-103 -62v94l121 79h76v-410z" />
    <glyph glyph-name="twoinferior" unicode="&#x2082;" 
d="M349 -104v-86h-287v90l101 78q54 42 72.5 64.5t18.5 47.5q0 50 -68 50q-66 0 -114 -50h-5v102q49 34 123 34q76 0 117.5 -33t41.5 -94q0 -45 -24.5 -79.5t-95.5 -89.5l-42 -32v-2h162z" />
    <glyph glyph-name="threeinferior" unicode="&#x2083;" 
d="M303 20v-2q57 -29 57 -95q0 -56 -42.5 -87.5t-118.5 -31.5q-92 0 -135 37v102h5q43 -53 128 -53q68 0 68 46q0 42 -72 42h-53v78h46q74 0 74 40q0 44 -66 44q-71 0 -117 -49h-5v101q50 34 133 34q71 0 110 -31t39 -86q0 -60 -51 -89z" />
    <glyph glyph-name="fourinferior" unicode="&#x2084;" 
d="M333 -119v-71h-94v71h-200v82l197 257h97v-253h50v-86h-50zM239 104l-106 -137h106v137z" />
    <glyph glyph-name="fiveinferior" unicode="&#x2085;" 
d="M219 76q68 0 106.5 -35.5t38.5 -98.5q0 -65 -43.5 -101.5t-119.5 -36.5q-88 0 -138 28v96h5q46 -38 128 -38q35 0 54 13.5t19 38.5q0 53 -92 53q-55 0 -97 -14h-5v239h262v-86h-185v-64q30 6 67 6z" />
    <glyph glyph-name="sixinferior" unicode="&#x2086;" 
d="M234 79q63 0 99.5 -35.5t36.5 -96.5q0 -65 -41 -104t-109 -39q-82 0 -128 53t-46 147q0 104 49 163t136 59q72 0 107 -26v-96h-5q-38 36 -92 36q-83 0 -98 -89h2q34 28 89 28zM217 -110q26 0 42 15t16 40q0 26 -16 41t-43 15q-49 0 -73 -37q2 -35 21.5 -54.5t52.5 -19.5z
" />
    <glyph glyph-name="seveninferior" unicode="&#x2087;" 
d="M369 132l-185 -322h-112l194 324h-209v86h312v-88z" />
    <glyph glyph-name="eightinferior" unicode="&#x2088;" 
d="M310 22v-2q64 -27 64 -97q0 -56 -45 -87.5t-125 -31.5q-79 0 -123.5 31.5t-44.5 87.5q0 67 64 93v2q-52 29 -52 91q0 55 41.5 86t114.5 31q74 0 116 -31t42 -86q0 -61 -52 -87zM204 140q-62 0 -62 -43q0 -41 62 -41q64 0 64 41q0 43 -64 43zM204 -110q75 0 75 45
q0 43 -75 43q-73 0 -73 -43q0 -45 73 -45z" />
    <glyph glyph-name="nineinferior" unicode="&#x2089;" 
d="M190 226q82 0 128 -53t46 -147q0 -104 -49 -163t-136 -59q-72 0 -107 26v96h5q38 -36 92 -36q83 0 98 89h-2q-34 -28 -89 -28q-63 0 -99.5 35.5t-36.5 96.5q0 65 41 104t109 39zM194 29q49 0 73 37q-2 35 -21.5 54.5t-52.5 19.5q-26 0 -42 -15t-16 -40q0 -26 16 -41
t43 -15z" />
    <glyph glyph-name="Euro" unicode="&#x20ac;" horiz-adv-x="650" 
d="M439 550q-119 0 -161 -108h242v-72h-257q-2 -24 -2 -38q0 -25 1 -36h258v-72h-243q39 -110 162 -110q90 0 148 58h7v-139q-60 -43 -169 -43q-114 0 -190.5 61.5t-101.5 172.5h-77v72h66q-1 12 -1 36q0 26 1 38h-66v72h77q26 110 102 171t190 61q109 0 169 -43v-139h-7
q-58 58 -148 58z" />
    <glyph glyph-name="uni20B9" unicode="&#x20b9;" horiz-adv-x="650" 
d="M470 585v-2q29 -33 36 -82h83v-78h-82q-19 -146 -192 -163v-2l271 -258h-182l-282 280v68h106q117 0 137 75h-307v78h306q-20 73 -136 73h-170v90h531v-79h-119z" />
    <glyph glyph-name="uni2113" unicode="&#x2113;" horiz-adv-x="510" 
d="M338 106q61 0 103 45h5v-137q-44 -24 -118 -24q-78 0 -131 34.5t-72 102.5q-5 -3 -29.5 -16t-38.5 -20v131q46 24 59 32v246q0 81 47 127.5t129 46.5q76 0 120 -44t44 -120q0 -86 -49.5 -159.5t-160.5 -149.5q2 -45 26 -70t66 -25zM246 340h2q85 76 85 170q0 54 -41 54
q-46 0 -46 -66v-158z" />
    <glyph glyph-name="uni2117" unicode="&#x2117;" horiz-adv-x="776" 
d="M388 674q147 0 244.5 -97.5t97.5 -244.5t-97.5 -244.5t-244.5 -97.5t-244.5 97.5t-97.5 244.5t97.5 244.5t244.5 97.5zM388 67q112 0 185 74.5t73 190.5t-73 190.5t-185 74.5t-185 -74.5t-73 -190.5t73 -190.5t185 -74.5zM267 507h155q135 0 135 -121t-135 -121h-67v-108
h-88v350zM355 344h63q49 0 49 42t-49 42h-63v-84z" />
    <glyph glyph-name="trademark" unicode="&#x2122;" horiz-adv-x="776" 
d="M281 664v-71h-91v-266h-80v266h-90v71h261zM725 327h-80v238h-2l-83 -238h-71l-82 235h-2v-235h-76v337h119l77 -223h2l76 223h122v-337z" />
    <glyph glyph-name="uni2126" unicode="&#x2126;" horiz-adv-x="772" 
d="M723 132v-132h-273v126q135 78 135 218q0 88 -55.5 143t-143.5 55t-143.5 -55t-55.5 -143q0 -140 135 -218v-126h-273v132h120v2q-63 33 -97.5 93.5t-34.5 139.5q0 137 97 222t252 85t252 -85t97 -222q0 -79 -34.5 -139.5t-97.5 -93.5v-2h120z" />
    <glyph glyph-name="estimated" unicode="&#x212e;" horiz-adv-x="798" 
d="M399 674q149 0 254.5 -100t105.5 -242v-8h-584q-4 0 -4 -4v-188q0 -8 8 -20q89 -102 222 -102q67 0 127.5 30.5t104.5 83.5h53q-51 -62 -126.5 -98t-160.5 -36q-149 0 -254.5 100t-105.5 242t105.5 242t254.5 100zM401 654q-129 0 -222 -100q-8 -12 -8 -22v-184
q0 -6 4 -6h448q6 0 6 6v188q0 12 -10 22q-93 96 -218 96z" />
    <glyph glyph-name="onethird" unicode="&#x2153;" horiz-adv-x="978" 
d="M224 0l430 664h100l-430 -664h-100zM871 210v-2q57 -29 57 -95q0 -56 -42.5 -87.5t-118.5 -31.5q-92 0 -135 37v102h5q43 -53 128 -53q68 0 68 46q0 42 -72 42h-53v78h46q74 0 74 40q0 44 -66 44q-71 0 -117 -49h-5v101q50 34 133 34q71 0 110 -31t39 -86q0 -60 -51 -89z
M312 254h-94v299l-103 -62v94l121 79h76v-410z" />
    <glyph glyph-name="twothirds" unicode="&#x2154;" horiz-adv-x="978" 
d="M239 0l430 664h100l-430 -664h-100zM871 210v-2q57 -29 57 -95q0 -56 -42.5 -87.5t-118.5 -31.5q-92 0 -135 37v102h5q43 -53 128 -53q68 0 68 46q0 42 -72 42h-53v78h46q74 0 74 40q0 44 -66 44q-71 0 -117 -49h-5v101q50 34 133 34q71 0 110 -31t39 -86q0 -60 -51 -89z
M349 340v-86h-287v90l101 78q54 42 72.5 64.5t18.5 47.5q0 50 -68 50q-66 0 -114 -50h-5v102q49 34 123 34q76 0 117.5 -33t41.5 -94q0 -45 -24.5 -79.5t-95.5 -89.5l-42 -32v-2h162z" />
    <glyph glyph-name="oneeighth" unicode="&#x215b;" horiz-adv-x="978" 
d="M224 0l430 664h100l-430 -664h-100zM878 212v-2q64 -27 64 -97q0 -56 -45 -87.5t-125 -31.5q-79 0 -123.5 31.5t-44.5 87.5q0 67 64 93v2q-52 29 -52 91q0 55 41.5 86t114.5 31q74 0 116 -31t42 -86q0 -61 -52 -87zM772 330q-62 0 -62 -43q0 -41 62 -41q64 0 64 41
q0 43 -64 43zM772 80q75 0 75 45q0 43 -75 43q-73 0 -73 -43q0 -45 73 -45zM312 254h-94v299l-103 -62v94l121 79h76v-410z" />
    <glyph glyph-name="threeeighths" unicode="&#x215c;" horiz-adv-x="978" 
d="M225 0l430 664h100l-430 -664h-100zM878 212v-2q64 -27 64 -97q0 -56 -45 -87.5t-125 -31.5q-79 0 -123.5 31.5t-44.5 87.5q0 67 64 93v2q-52 29 -52 91q0 55 41.5 86t114.5 31q74 0 116 -31t42 -86q0 -61 -52 -87zM772 330q-62 0 -62 -43q0 -41 62 -41q64 0 64 41
q0 43 -64 43zM772 80q75 0 75 45q0 43 -75 43q-73 0 -73 -43q0 -45 73 -45zM303 464v-2q57 -29 57 -95q0 -56 -42.5 -87.5t-118.5 -31.5q-92 0 -135 37v102h5q43 -53 128 -53q68 0 68 46q0 42 -72 42h-53v78h46q74 0 74 40q0 44 -66 44q-71 0 -117 -49h-5v101q50 34 133 34
q71 0 110 -31t39 -86q0 -60 -51 -89z" />
    <glyph glyph-name="fiveeighths" unicode="&#x215d;" horiz-adv-x="978" 
d="M225 0l430 664h100l-430 -664h-100zM878 212v-2q64 -27 64 -97q0 -56 -45 -87.5t-125 -31.5q-79 0 -123.5 31.5t-44.5 87.5q0 67 64 93v2q-52 29 -52 91q0 55 41.5 86t114.5 31q74 0 116 -31t42 -86q0 -61 -52 -87zM772 330q-62 0 -62 -43q0 -41 62 -41q64 0 64 41
q0 43 -64 43zM772 80q75 0 75 45q0 43 -75 43q-73 0 -73 -43q0 -45 73 -45zM219 520q68 0 106.5 -35.5t38.5 -98.5q0 -65 -43.5 -101.5t-119.5 -36.5q-88 0 -138 28v96h5q46 -38 128 -38q35 0 54 13.5t19 38.5q0 53 -92 53q-55 0 -97 -14h-5v239h262v-86h-185v-64q30 6 67 6
z" />
    <glyph glyph-name="seveneighths" unicode="&#x215e;" horiz-adv-x="978" 
d="M183 0l430 664h100l-430 -664h-100zM878 212v-2q64 -27 64 -97q0 -56 -45 -87.5t-125 -31.5q-79 0 -123.5 31.5t-44.5 87.5q0 67 64 93v2q-52 29 -52 91q0 55 41.5 86t114.5 31q74 0 116 -31t42 -86q0 -61 -52 -87zM772 330q-62 0 -62 -43q0 -41 62 -41q64 0 64 41
q0 43 -64 43zM772 80q75 0 75 45q0 43 -75 43q-73 0 -73 -43q0 -45 73 -45zM369 576l-185 -322h-112l194 324h-209v86h312v-88z" />
    <glyph glyph-name="partialdiff" unicode="&#x2202;" horiz-adv-x="590" 
d="M305 710q109 0 172.5 -79t63.5 -215q0 -185 -86.5 -305.5t-219.5 -120.5q-88 0 -140.5 55t-52.5 148q0 113 68.5 195.5t162.5 82.5q81 0 125 -57h2v8q0 80 -33 122t-96 42q-72 0 -125 -53h-7v135q64 42 166 42zM251 114q43 0 78.5 45t53.5 120q-11 34 -33 54t-50 20
q-50 0 -83.5 -44.5t-33.5 -113.5q0 -37 18.5 -59t49.5 -22z" />
    <glyph glyph-name="uni2206" unicode="&#x2206;" horiz-adv-x="736" 
d="M13 0l283 664h143l283 -664h-709zM364 495l-144 -363h290l-144 363h-2z" />
    <glyph glyph-name="product" unicode="&#x220f;" horiz-adv-x="689" 
d="M620 -130h-148v662h-256v-662h-148v794h552v-794z" />
    <glyph glyph-name="summation" unicode="&#x2211;" horiz-adv-x="587" 
d="M248 531l226 -264l-227 -265h317v-132h-520v126l232 271l-232 271v125h520v-132h-316z" />
    <glyph glyph-name="minus" unicode="&#x2212;" horiz-adv-x="650" 
d="M47 242v116h556v-116h-556z" />
    <glyph glyph-name="uni2219" unicode="&#x2219;" horiz-adv-x="275" 
d="M138 415q35 0 58.5 -24t23.5 -59t-23.5 -58.5t-58.5 -23.5q-36 0 -59.5 23.5t-23.5 58.5t23.5 59t59.5 24z" />
    <glyph glyph-name="radical" unicode="&#x221a;" horiz-adv-x="546" 
d="M342 -70h-130l-81 197h-86v116h164l56 -145h2l145 586h125z" />
    <glyph glyph-name="infinity" unicode="&#x221e;" horiz-adv-x="701" 
d="M498 499q73 0 115.5 -45t42.5 -122t-43 -122t-118 -45q-97 0 -154 82h-2q-55 -82 -136 -82q-73 0 -115.5 45t-42.5 122t43 122t118 45q95 0 152 -84h2q55 84 138 84zM212 257q53 0 91 59q-26 51 -48 71t-51 20t-46 -20.5t-17 -54.5t19.5 -54.5t51.5 -20.5zM497 257
q29 0 46 20.5t17 54.5t-19 54.5t-51 20.5q-53 0 -93 -61q27 -50 49 -69.5t51 -19.5z" />
    <glyph glyph-name="integral" unicode="&#x222b;" horiz-adv-x="388" 
d="M276 710q53 0 88 -19v-121h-5q-18 24 -54 24q-46 0 -46 -55v-581q0 -158 -147 -158q-53 0 -88 19v121h5q17 -24 54 -24q45 0 45 55v581q0 158 148 158z" />
    <glyph glyph-name="approxequal" unicode="&#x2248;" horiz-adv-x="650" 
d="M212 540q37 0 69.5 -13t76.5 -45q49 -36 78 -36q23 0 45 21.5t50 72.5l95 -56q-79 -154 -188 -154q-37 0 -69.5 13t-76.5 45q-49 36 -78 36q-23 0 -45 -21.5t-50 -72.5l-95 56q79 154 188 154zM212 270q37 0 69.5 -13t76.5 -45q49 -36 78 -36q23 0 45 21.5t50 72.5
l95 -56q-79 -154 -188 -154q-37 0 -69.5 13t-76.5 45q-49 36 -78 36q-23 0 -45 -21.5t-50 -72.5l-95 56q79 154 188 154z" />
    <glyph glyph-name="notequal" unicode="&#x2260;" horiz-adv-x="650" 
d="M358 231h235v-114h-294l-59 -115h-117l59 115h-125v114h184l71 138h-255v114h314l59 115h117l-59 -115h105v-114h-164z" />
    <glyph glyph-name="lessequal" unicode="&#x2264;" horiz-adv-x="650" 
d="M255 379l328 -109v-127l-516 187v99l516 186v-126l-328 -108v-2zM583 116v-116h-516v116h516z" />
    <glyph glyph-name="greaterequal" unicode="&#x2265;" horiz-adv-x="650" 
d="M583 330l-516 -187v127l328 109v2l-328 108v126l516 -186v-99zM583 116v-116h-516v116h516z" />
    <glyph glyph-name="lozenge" unicode="&#x25ca;" horiz-adv-x="629" 
d="M264 0l-222 332l222 332h101l222 -332l-222 -332h-101zM177 332l137 -207l137 207l-137 207z" />
    <glyph glyph-name="uniE069" unicode="&#xe069;" horiz-adv-x="248" 
d="M124 696q35 0 58 -22.5t23 -57.5q0 -36 -23 -58.5t-58 -22.5t-58 22.5t-23 58.5q0 35 23 57.5t58 22.5zM58 0v470h131v-470h-131z" />
    <glyph glyph-name="uniEF01" unicode="&#xef01;" horiz-adv-x="500" 
d="M89 -210l97 150h132l-115 -150h-114z" />
    <glyph glyph-name="uniEF02" unicode="&#xef02;" horiz-adv-x="500" 
d="M171 504l27 196h132l-60 -196h-99z" />
    <glyph glyph-name="uniF8FF" unicode="&#xf8ff;" horiz-adv-x="1000" 
d="M439 210v52h-1l-17 -78h-23l28 126h26l1 -66h1l28 66h31l-28 -126h-24l17 78h-1l-22 -52h-16zM140 285l-17 -77q-7 -24 -25 -24h-46l28 126h43q18 0 18 -15q0 -4 -1 -10zM293 184h-24l6 26h-17l-7 -26h-24l23 103q5 23 26 23h22q18 0 18 -15q0 -4 -1 -10zM570 184h-24
l6 26h-17l-7 -26h-24l23 103q5 23 26 23h22q18 0 18 -15q0 -4 -1 -10zM401 285l-11 -52q-4 -17 -13 -20l6 -29h-23l-4 26h-13l-6 -26h-24l28 126h43q18 0 18 -15q0 -4 -1 -10zM845 285l-12 -53q-4 -22 -24 -22h-22l-6 -26h-24l28 126h43q18 0 18 -15q0 -4 -1 -10zM233 310
l-28 -126h-24l6 26h-18l-6 -26h-24l28 126h24l-18 -81h18l18 81h24zM703 310h24l-17 -75q-1 -6 4 -6h7q5 0 6 4l17 77h24l-17 -78q-4 -22 -24 -22l-14 -26h-24l14 26q-18 0 -18 15q0 5 1 10zM901 242l-4 -19h-26l-4 -20h33l-5 -19h-56l28 126h57l-5 -19h-32l-11 -49h25z
M671 291l-24 -107h-24l24 107h-19l4 19h61l-4 -19h-18zM100 291l-20 -88h13q4 0 6 5l17 77q1 6 -3 6h-13zM810 233l11 52q1 6 -4 6h-12l-14 -62h13q5 0 6 4zM366 233l11 52q1 6 -4 6h-12l-14 -62h13q5 0 6 4zM564 291h-7q-5 0 -6 -5l-13 -57h18l12 56q1 6 -4 6zM287 291h-7
q-5 0 -6 -5l-13 -57h18l12 56q1 6 -4 6zM987 333v-30h-6v25h-1l-7 -20h-4l-7 20h-1v-25h-5v30h10l5 -16h1l5 16h10zM952 333v-5h-9v-25h-6v25h-8v5h23z" />
    <glyph glyph-name="zero.numr" 
d="M205 670q80 0 123 -54.5t43 -156.5t-43 -156.5t-123 -54.5t-123 54.5t-43 156.5t43 156.5t123 54.5zM205 584q-71 0 -71 -125t71 -125t71 125t-71 125z" />
    <glyph glyph-name="one.numr" 
d="M312 254h-94v299l-103 -62v94l121 79h76v-410z" />
    <glyph glyph-name="two.numr" 
d="M349 340v-86h-287v90l101 78q54 42 72.5 64.5t18.5 47.5q0 50 -68 50q-66 0 -114 -50h-5v102q49 34 123 34q76 0 117.5 -33t41.5 -94q0 -45 -24.5 -79.5t-95.5 -89.5l-42 -32v-2h162z" />
    <glyph glyph-name="three.numr" 
d="M303 464v-2q57 -29 57 -95q0 -56 -42.5 -87.5t-118.5 -31.5q-92 0 -135 37v102h5q43 -53 128 -53q68 0 68 46q0 42 -72 42h-53v78h46q74 0 74 40q0 44 -66 44q-71 0 -117 -49h-5v101q50 34 133 34q71 0 110 -31t39 -86q0 -60 -51 -89z" />
    <glyph glyph-name="four.numr" 
d="M333 325v-71h-94v71h-200v82l197 257h97v-253h50v-86h-50zM239 548l-106 -137h106v137z" />
    <glyph glyph-name="five.numr" 
d="M219 520q68 0 106.5 -35.5t38.5 -98.5q0 -65 -43.5 -101.5t-119.5 -36.5q-88 0 -138 28v96h5q46 -38 128 -38q35 0 54 13.5t19 38.5q0 53 -92 53q-55 0 -97 -14h-5v239h262v-86h-185v-64q30 6 67 6z" />
    <glyph glyph-name="six.numr" 
d="M234 523q63 0 99.5 -35.5t36.5 -96.5q0 -65 -41 -104t-109 -39q-82 0 -128 53t-46 147q0 104 49 163t136 59q72 0 107 -26v-96h-5q-38 36 -92 36q-83 0 -98 -89h2q34 28 89 28zM217 334q26 0 42 15t16 40q0 26 -16 41t-43 15q-49 0 -73 -37q2 -35 21.5 -54.5t52.5 -19.5z
" />
    <glyph glyph-name="seven.numr" 
d="M369 576l-185 -322h-112l194 324h-209v86h312v-88z" />
    <glyph glyph-name="eight.numr" 
d="M310 466v-2q64 -27 64 -97q0 -56 -45 -87.5t-125 -31.5q-79 0 -123.5 31.5t-44.5 87.5q0 67 64 93v2q-52 29 -52 91q0 55 41.5 86t114.5 31q74 0 116 -31t42 -86q0 -61 -52 -87zM204 584q-62 0 -62 -43q0 -41 62 -41q64 0 64 41q0 43 -64 43zM204 334q75 0 75 45
q0 43 -75 43q-73 0 -73 -43q0 -45 73 -45z" />
    <glyph glyph-name="nine.numr" 
d="M190 670q82 0 128 -53t46 -147q0 -104 -49 -163t-136 -59q-72 0 -107 26v96h5q38 -36 92 -36q83 0 98 89h-2q-34 -28 -89 -28q-63 0 -99.5 35.5t-36.5 96.5q0 65 41 104t109 39zM194 473q49 0 73 37q-2 35 -21.5 54.5t-52.5 19.5q-26 0 -42 -15t-16 -40q0 -26 16 -41
t43 -15z" />
    <glyph glyph-name="zero.dnom" 
d="M205 416q80 0 123 -54.5t43 -156.5t-43 -156.5t-123 -54.5t-123 54.5t-43 156.5t43 156.5t123 54.5zM205 330q-71 0 -71 -125t71 -125t71 125t-71 125z" />
    <glyph glyph-name="one.dnom" 
d="M312 0h-94v299l-103 -62v94l121 79h76v-410z" />
    <glyph glyph-name="two.dnom" 
d="M349 86v-86h-287v90l101 78q54 42 72.5 64.5t18.5 47.5q0 50 -68 50q-66 0 -114 -50h-5v102q49 34 123 34q76 0 117.5 -33t41.5 -94q0 -45 -24.5 -79.5t-95.5 -89.5l-42 -32v-2h162z" />
    <glyph glyph-name="three.dnom" 
d="M303 210v-2q57 -29 57 -95q0 -56 -42.5 -87.5t-118.5 -31.5q-92 0 -135 37v102h5q43 -53 128 -53q68 0 68 46q0 42 -72 42h-53v78h46q74 0 74 40q0 44 -66 44q-71 0 -117 -49h-5v101q50 34 133 34q71 0 110 -31t39 -86q0 -60 -51 -89z" />
    <glyph glyph-name="four.dnom" 
d="M333 71v-71h-94v71h-200v82l197 257h97v-253h50v-86h-50zM239 294l-106 -137h106v137z" />
    <glyph glyph-name="five.dnom" 
d="M219 266q68 0 106.5 -35.5t38.5 -98.5q0 -65 -43.5 -101.5t-119.5 -36.5q-88 0 -138 28v96h5q46 -38 128 -38q35 0 54 13.5t19 38.5q0 53 -92 53q-55 0 -97 -14h-5v239h262v-86h-185v-64q30 6 67 6z" />
    <glyph glyph-name="six.dnom" 
d="M234 269q63 0 99.5 -35.5t36.5 -96.5q0 -65 -41 -104t-109 -39q-82 0 -128 53t-46 147q0 104 49 163t136 59q72 0 107 -26v-96h-5q-38 36 -92 36q-83 0 -98 -89h2q34 28 89 28zM217 80q26 0 42 15t16 40q0 26 -16 41t-43 15q-49 0 -73 -37q2 -35 21.5 -54.5t52.5 -19.5z
" />
    <glyph glyph-name="seven.dnom" 
d="M369 322l-185 -322h-112l194 324h-209v86h312v-88z" />
    <glyph glyph-name="eight.dnom" 
d="M310 212v-2q64 -27 64 -97q0 -56 -45 -87.5t-125 -31.5q-79 0 -123.5 31.5t-44.5 87.5q0 67 64 93v2q-52 29 -52 91q0 55 41.5 86t114.5 31q74 0 116 -31t42 -86q0 -61 -52 -87zM204 330q-62 0 -62 -43q0 -41 62 -41q64 0 64 41q0 43 -64 43zM204 80q75 0 75 45
q0 43 -75 43q-73 0 -73 -43q0 -45 73 -45z" />
    <glyph glyph-name="nine.dnom" 
d="M190 416q82 0 128 -53t46 -147q0 -104 -49 -163t-136 -59q-72 0 -107 26v96h5q38 -36 92 -36q83 0 98 89h-2q-34 -28 -89 -28q-63 0 -99.5 35.5t-36.5 96.5q0 65 41 104t109 39zM194 219q49 0 73 37q-2 35 -21.5 54.5t-52.5 19.5q-26 0 -42 -15t-16 -40q0 -26 16 -41
t43 -15z" />
    </font>
</defs>
</svg>
